<?xml version="1.0" standalone="no"?>
<!DOCTYPE svg PUBLIC "-//W3C//DTD SVG 20010904//EN"
 "http://www.w3.org/TR/2001/REC-SVG-20010904/DTD/svg10.dtd">
<svg version="1.0" xmlns="http://www.w3.org/2000/svg"
 width="472.000000pt" height="400.000000pt" viewBox="0 0 472.000000 400.000000"
 preserveAspectRatio="xMidYMid meet">

<g transform="translate(0.000000,400.000000) scale(0.100000,-0.100000)"
fill="#000000" stroke="none">
<path d="M2038 3563 c7 -3 16 -2 19 1 4 3 -2 6 -13 5 -11 0 -14 -3 -6 -6z"/>
<path d="M2498 3563 c12 -2 30 -2 40 0 9 3 -1 5 -23 4 -22 0 -30 -2 -17 -4z"/>
<path d="M2085 3509 c-27 -4 -93 -11 -145 -14 -52 -4 -113 -13 -135 -21 -22
-7 -58 -14 -80 -14 -22 0 -51 -7 -65 -15 -14 -8 -44 -14 -67 -15 -23 0 -44 -4
-47 -9 -4 -5 -24 -12 -46 -16 -22 -4 -42 -10 -45 -15 -3 -5 -23 -11 -45 -15
-22 -4 -42 -11 -46 -16 -3 -5 -12 -9 -21 -9 -8 0 -31 -7 -51 -16 -115 -52
-182 -85 -187 -94 -3 -6 -13 -10 -21 -10 -9 0 -30 -11 -48 -25 -18 -14 -36
-25 -40 -25 -20 0 -266 -210 -266 -226 0 -3 -19 -31 -43 -62 -47 -62 -81 -129
-105 -207 -18 -58 -28 -279 -14 -310 5 -11 17 -46 28 -78 47 -151 262 -390
424 -472 19 -10 37 -21 40 -24 4 -6 62 -38 129 -71 108 -53 348 -134 491 -164
242 -52 587 -77 802 -58 162 15 328 37 428 58 88 19 262 70 307 90 17 8 34 14
38 14 6 0 73 29 165 73 63 29 165 92 233 143 31 24 59 44 62 44 9 0 135 124
135 133 0 4 13 22 30 40 28 30 39 57 23 57 -5 0 -21 -18 -37 -40 -16 -22 -37
-42 -47 -45 -9 -3 -20 -16 -23 -28 -6 -23 -81 -84 -97 -79 -5 1 -13 -6 -16
-15 -11 -27 -44 -51 -87 -64 -22 -6 -40 -18 -43 -28 -3 -10 -25 -28 -49 -41
-36 -17 -48 -19 -59 -10 -12 10 -15 9 -15 -3 0 -21 -47 -57 -74 -57 -12 0 -27
-5 -34 -12 -12 -12 -71 -36 -112 -45 -14 -3 -29 -9 -35 -13 -28 -20 -180 -59
-260 -67 -27 -3 -55 -9 -61 -14 -6 -5 -78 -18 -160 -30 -195 -27 -610 -30
-774 -4 -219 34 -446 88 -560 134 -111 45 -140 61 -140 76 0 13 -7 15 -33 10
-24 -5 -37 -2 -46 9 -8 9 -19 16 -26 16 -7 0 -27 14 -45 30 -18 17 -39 30 -47
30 -8 0 -32 14 -53 30 -21 17 -41 30 -44 30 -13 0 -44 36 -48 55 -2 12 -13 21
-28 24 -30 4 -100 77 -100 104 0 11 -9 21 -20 24 -25 7 -70 80 -70 115 0 14
-9 33 -19 42 -20 18 -51 100 -51 136 0 11 7 23 15 26 19 8 20 24 1 24 -7 0
-16 9 -19 20 -9 35 4 124 21 144 10 10 16 27 14 38 -4 24 14 73 42 111 19 27
46 37 46 17 0 -5 11 -10 25 -10 32 0 33 18 1 26 -33 8 -37 35 -11 68 20 25 27
28 59 22 29 -6 36 -4 36 9 0 8 -7 15 -15 15 -27 0 -16 38 19 65 25 19 41 24
67 20 19 -3 28 -3 22 1 -44 20 19 93 80 94 23 0 36 4 32 10 -11 17 5 50 24 50
10 0 24 6 31 14 6 8 26 16 43 18 21 2 35 10 42 25 6 15 21 23 54 28 24 4 59
18 76 31 18 13 43 24 56 24 14 0 30 5 36 11 5 5 32 16 59 24 27 7 63 18 79 23
78 26 198 52 268 57 27 2 54 9 62 15 7 6 37 11 67 11 102 0 163 5 205 19 37
11 45 11 66 -3 21 -14 27 -14 43 -2 23 18 64 19 98 4 20 -9 29 -9 41 1 19 16
103 5 128 -17 14 -13 22 -14 43 -5 53 25 118 4 98 -30 -4 -7 4 -2 19 11 28 26
25 26 182 -4 50 -9 100 -23 113 -31 13 -9 31 -13 39 -10 17 7 71 -8 115 -30
14 -8 38 -14 52 -14 15 0 35 -10 48 -25 15 -17 32 -25 54 -25 43 0 77 -14 103
-41 11 -12 35 -23 55 -25 21 -2 47 -14 63 -28 22 -21 24 -27 14 -40 -9 -11
-10 -16 -2 -16 6 0 11 5 11 10 0 16 35 12 70 -7 21 -13 29 -24 26 -36 -4 -15
0 -18 14 -14 12 3 38 -7 63 -24 37 -24 43 -33 39 -55 -4 -22 -2 -24 20 -19 17
4 29 0 42 -14 11 -12 25 -21 33 -21 8 0 13 -11 13 -29 0 -22 6 -30 25 -35 14
-4 25 -10 25 -15 0 -4 9 -18 20 -31 11 -13 20 -37 20 -55 0 -33 15 -55 37 -55
20 0 15 37 -7 53 -12 8 -20 18 -19 23 3 12 -34 74 -43 74 -5 0 -8 5 -8 11 0
16 -63 89 -77 89 -7 0 -13 6 -13 13 0 6 -16 26 -36 42 -20 17 -42 35 -48 40
-47 43 -148 110 -203 134 -11 5 -24 15 -28 20 -3 6 -14 11 -24 11 -10 0 -24 7
-31 15 -7 8 -21 15 -31 15 -11 0 -19 3 -19 8 0 4 -15 12 -32 18 -18 7 -71 26
-118 44 -47 18 -105 36 -130 41 -24 5 -49 14 -54 19 -6 6 -22 10 -38 10 -15 0
-47 6 -70 14 -53 17 -222 45 -303 51 -33 2 -87 9 -120 14 -72 11 -349 12 -420
0z"/>
<path d="M2883 3503 c9 -2 25 -2 35 0 9 3 1 5 -18 5 -19 0 -27 -2 -17 -5z"/>
<path d="M3028 3473 c6 -2 18 -2 25 0 6 3 1 5 -13 5 -14 0 -19 -2 -12 -5z"/>
<path d="M3133 3443 c9 -2 23 -2 30 0 6 3 -1 5 -18 5 -16 0 -22 -2 -12 -5z"/>
<path d="M1348 3423 c6 -2 18 -2 25 0 6 3 1 5 -13 5 -14 0 -19 -2 -12 -5z"/>
<path d="M3200 3420 c0 -5 7 -7 15 -4 8 4 15 8 15 10 0 2 -7 4 -15 4 -8 0 -15
-4 -15 -10z"/>
<path d="M1255 3390 c-3 -5 3 -10 14 -10 11 0 23 5 26 10 3 6 -3 10 -14 10
-11 0 -23 -4 -26 -10z"/>
<path d="M3265 3390 c3 -5 20 -10 36 -10 17 0 32 -6 35 -15 7 -16 54 -21 54
-6 0 5 -13 12 -30 16 -16 4 -32 11 -35 16 -4 5 -20 9 -36 9 -18 0 -28 -4 -24
-10z"/>
<path d="M1190 3360 c0 -5 9 -10 19 -10 11 0 23 5 26 10 4 6 -5 10 -19 10 -14
0 -26 -4 -26 -10z"/>
<path d="M1150 3340 c-13 -8 -13 -10 2 -10 9 0 20 5 23 10 8 13 -5 13 -25 0z"/>
<path d="M2935 3340 c-3 -5 -1 -10 4 -10 6 0 11 5 11 10 0 6 -2 10 -4 10 -3 0
-8 -4 -11 -10z"/>
<path d="M2220 3329 c-58 -5 -139 -14 -180 -20 -41 -6 -106 -15 -145 -20 -38
-6 -74 -14 -79 -19 -6 -6 -25 -10 -42 -10 -18 0 -39 -7 -48 -15 -8 -8 -25 -15
-38 -15 -27 0 -55 -16 -45 -26 3 -4 26 0 49 9 24 9 60 19 81 23 20 3 37 10 37
14 0 4 30 10 66 13 37 4 71 11 78 16 6 5 79 12 161 16 83 4 180 10 218 14 37
4 70 5 72 3 3 -3 17 -6 32 -7 16 -1 84 -5 153 -10 69 -4 132 -11 140 -15 8 -4
40 -11 70 -14 50 -7 121 -24 190 -46 49 -16 79 -20 84 -11 5 8 -49 35 -65 33
-21 -3 -94 28 -93 40 1 12 -6 13 -36 5 -46 -13 -87 -3 -95 24 -5 15 -11 18
-23 13 -16 -7 -178 -6 -262 1 -122 11 -187 12 -280 4z"/>
<path d="M3410 3330 c0 -5 9 -10 20 -10 11 0 20 5 20 10 0 6 -9 10 -20 10 -11
0 -20 -4 -20 -10z"/>
<path d="M1090 3310 c-12 -8 -11 -10 8 -10 12 0 22 5 22 10 0 13 -11 13 -30 0z"/>
<path d="M3052 3294 c-12 -15 -21 -28 -18 -31 4 -5 56 41 56 51 0 13 -16 5
-38 -20z"/>
<path d="M3469 3309 c-9 -5 -9 -9 -2 -9 6 0 18 -3 27 -6 9 -3 16 -2 16 4 0 15
-25 21 -41 11z"/>
<path d="M1024 3279 c-3 -6 -16 -15 -27 -20 -116 -53 -301 -211 -386 -329 -97
-136 -132 -223 -153 -377 -9 -71 -9 -98 0 -118 7 -14 12 -44 12 -66 0 -22 7
-56 15 -76 8 -19 15 -44 15 -55 0 -10 7 -21 15 -24 8 -4 15 -12 15 -20 0 -41
105 -187 204 -281 41 -40 80 -73 85 -73 6 0 14 -6 18 -13 13 -22 171 -121 264
-166 89 -43 128 -73 169 -131 28 -41 34 -48 77 -95 17 -19 33 -38 35 -42 8
-19 125 -109 168 -129 8 -4 19 -13 23 -21 4 -7 14 -13 22 -13 7 0 15 -4 17 -8
5 -13 74 -52 92 -52 9 0 16 -4 16 -10 0 -5 12 -10 26 -10 14 0 23 4 19 10 -3
6 -15 10 -26 10 -10 0 -19 4 -19 10 0 5 -11 12 -25 16 -14 3 -25 9 -25 13 0 3
-21 17 -47 31 -27 14 -52 28 -58 33 -5 4 -20 15 -32 25 -11 9 -31 24 -43 32
-51 35 -127 106 -161 150 -13 17 -30 38 -36 45 -7 8 -13 23 -13 36 0 19 4 21
31 15 39 -7 35 15 -4 25 -15 4 -55 21 -90 38 -35 17 -69 31 -75 31 -7 0 -12 4
-12 8 0 4 -12 13 -27 19 -56 24 -215 122 -271 168 -37 30 -192 184 -192 191 0
3 -13 23 -30 44 -16 21 -30 41 -30 44 0 4 -10 23 -23 44 -31 50 -52 110 -72
212 -17 83 -17 89 3 185 19 96 40 164 53 175 4 3 10 16 14 29 4 14 11 29 16
35 5 6 35 47 67 91 33 44 97 115 143 159 78 73 234 186 257 186 18 0 23 18 7
24 -8 3 -17 1 -21 -5z"/>
<path d="M3520 3280 c0 -7 24 -20 36 -20 13 0 1 19 -16 23 -11 3 -20 2 -20 -3z"/>
<path d="M3200 3270 c0 -5 7 -7 15 -4 8 4 15 8 15 10 0 2 -7 4 -15 4 -8 0 -15
-4 -15 -10z"/>
<path d="M2400 3244 c0 -13 -3 -14 -15 -4 -8 7 -22 10 -30 6 -15 -5 -14 -9 1
-35 15 -25 16 -34 6 -56 -17 -36 -6 -48 24 -28 19 12 28 13 37 4 9 -9 5 -17
-15 -36 -33 -30 -45 -31 -53 -5 -9 27 -22 25 -29 -5 -8 -30 -22 -32 -36 -5 -6
11 -17 20 -24 20 -20 0 -27 37 -9 44 23 9 33 7 33 -8 0 -8 7 -16 15 -20 11 -4
14 3 12 35 -2 40 -2 40 -37 34 -60 -11 -129 -48 -132 -70 -2 -13 -12 -21 -30
-23 -31 -4 -35 -19 -13 -48 8 -10 15 -28 15 -39 1 -18 2 -18 23 6 l23 26 12
-26 c7 -14 12 -31 12 -38 0 -8 12 -13 31 -13 22 0 32 -5 36 -19 3 -11 13 -21
24 -24 22 -6 22 -6 10 25 -10 27 -9 44 3 40 4 -1 14 2 22 9 11 9 16 6 23 -12
6 -17 5 -26 -5 -32 -23 -13 -46 -67 -40 -93 5 -20 11 -23 31 -18 15 4 25 2 25
-5 0 -6 11 -11 25 -11 30 0 33 24 6 59 -15 20 -19 21 -24 7 -8 -20 -37 -10
-37 14 0 15 8 18 57 16 46 -2 59 -6 61 -19 2 -9 8 -17 13 -17 5 0 9 -22 9 -49
0 -28 5 -53 10 -56 6 -3 10 -18 9 -33 -1 -27 -1 -27 -8 -3 -6 24 -31 42 -31
23 0 -18 -73 -83 -86 -78 -8 3 -14 10 -14 16 0 5 -6 10 -14 10 -11 0 -13 -10
-9 -40 4 -26 2 -40 -6 -40 -6 0 -11 4 -11 9 0 5 -9 11 -20 14 -12 3 -20 14
-20 25 0 11 -7 22 -15 26 -18 6 -20 36 -3 36 6 0 19 -7 29 -16 22 -20 44 -13
52 16 7 28 -20 38 -38 14 -14 -18 -14 -18 -15 3 0 12 5 25 10 28 16 10 12 45
-5 45 -8 0 -15 9 -15 20 0 11 -7 20 -15 20 -9 0 -15 -9 -15 -24 0 -13 7 -26
15 -30 21 -8 19 -38 -2 -34 -10 2 -26 -6 -35 -18 -20 -24 -23 -44 -8 -44 5 0
14 -9 20 -20 8 -16 6 -24 -11 -41 -25 -25 -42 -100 -33 -141 5 -26 24 -40 24
-19 0 5 12 12 26 15 28 7 64 -15 64 -40 0 -24 19 -24 42 -1 13 13 22 31 20 40
-2 9 4 20 12 23 19 7 21 30 5 40 -7 4 -16 -1 -21 -10 -10 -18 -38 -22 -38 -5
0 22 21 49 39 49 10 0 26 9 36 20 13 15 21 17 31 9 9 -7 15 -5 23 8 10 17 12
17 25 1 7 -10 19 -18 26 -18 9 0 10 -10 6 -35 -4 -22 -3 -35 4 -35 5 0 10 -8
10 -18 0 -15 -6 -18 -30 -14 -23 3 -30 0 -30 -12 0 -18 17 -20 56 -6 32 12 64
4 64 -16 0 -16 -3 -16 -62 -19 -42 -2 -43 -2 -40 -35 4 -37 -9 -50 -50 -50
-18 0 -33 -9 -44 -25 -19 -29 -39 -32 -54 -7 -10 16 -10 16 -20 0 -14 -23 -40
-23 -40 -2 0 15 -11 16 -90 12 -68 -4 -92 -2 -101 8 -12 14 -141 16 -132 2 2
-5 13 -8 23 -8 24 0 70 -21 70 -32 0 -4 17 -5 38 -2 34 5 40 3 56 -21 15 -22
16 -32 7 -49 -13 -23 -54 -46 -84 -46 -10 0 -30 -9 -44 -20 -14 -11 -35 -20
-46 -20 -26 0 -117 -33 -117 -42 0 -13 37 -9 80 8 24 10 54 14 74 11 25 -4 35
-1 44 14 9 14 24 19 55 19 23 0 52 7 63 15 12 8 24 12 26 9 3 -2 11 2 18 11 7
8 18 15 26 15 7 0 36 5 63 11 35 7 52 16 56 30 7 22 33 26 41 6 3 -9 21 -12
52 -11 26 1 56 -3 67 -9 11 -5 34 -10 51 -9 27 1 34 -4 42 -26 6 -15 11 -21
11 -14 1 6 9 12 19 12 23 0 23 -47 -1 -84 -12 -18 -17 -37 -12 -53 6 -24 7
-24 24 -9 18 16 51 22 51 9 0 -11 -12 -26 -32 -42 -15 -11 -21 -11 -34 0 -13
11 -18 10 -32 -9 -13 -16 -26 -21 -52 -19 -19 1 -38 7 -42 12 -5 7 -14 6 -28
-3 -26 -16 -48 -15 -66 3 -21 21 -44 19 -44 -4 0 -26 19 -39 65 -43 30 -2 42
-9 51 -26 6 -13 16 -28 20 -32 5 -5 57 4 119 20 192 51 205 56 205 90 0 19
-19 30 -52 30 -11 0 -32 7 -47 16 -25 15 -26 19 -25 87 l1 72 239 6 c330 9
310 7 297 20 -7 7 -99 12 -264 13 -140 2 -262 6 -272 10 -9 5 -22 28 -28 52
-6 25 -15 47 -20 50 -24 14 5 84 35 84 4 0 26 12 49 28 76 49 82 53 100 58 9
4 17 10 17 15 0 13 -27 11 -35 -2 -4 -5 -17 -14 -28 -20 -26 -11 -60 -32 -67
-40 -10 -13 -75 -35 -92 -31 -10 2 -18 11 -18 20 0 8 -13 52 -28 96 -47 133
-52 150 -58 214 -6 53 -4 62 11 68 16 6 15 9 -5 24 -32 24 -13 55 37 65 21 4
43 10 48 15 6 4 43 17 82 29 40 13 75 27 78 32 9 14 51 11 65 -6 23 -27 73
-19 106 19 27 30 38 35 116 46 124 19 182 11 218 -29 23 -25 35 -30 55 -25 15
4 25 2 25 -4 0 -6 8 -13 18 -16 42 -14 222 -210 222 -242 0 -8 6 -14 13 -14 7
0 13 -15 15 -36 1 -19 7 -44 12 -54 10 -19 14 -153 5 -162 -3 -3 -21 9 -41 27
-19 18 -52 41 -72 51 -20 11 -58 31 -85 47 -26 15 -56 27 -65 27 -10 0 -22 4
-27 9 -6 5 -41 19 -80 31 -38 13 -74 27 -80 32 -5 4 -17 8 -26 8 -40 0 -27 26
50 100 50 48 81 87 81 99 0 12 -4 21 -10 21 -5 0 -10 -6 -10 -14 0 -23 -174
-173 -209 -181 -18 -4 -31 -13 -31 -21 0 -16 -39 -56 -80 -83 -14 -9 -34 -24
-45 -33 -11 -10 -29 -24 -40 -32 -18 -14 -18 -15 -2 -16 9 0 17 5 17 10 0 6 4
10 10 10 11 0 95 57 121 82 36 35 80 50 123 44 22 -4 45 -11 51 -16 6 -5 33
-16 60 -25 46 -16 91 -34 172 -71 17 -8 36 -14 41 -14 12 0 142 -97 154 -114
4 -6 8 -30 8 -53 0 -41 11 -55 25 -33 3 6 17 7 31 4 32 -8 31 10 -2 25 -17 8
-24 17 -20 27 3 9 6 22 6 29 0 8 9 23 21 33 18 18 18 20 3 26 -14 5 -16 17
-11 71 4 52 2 67 -10 74 -18 10 -44 78 -36 97 2 7 -5 19 -17 26 -12 7 -31 28
-42 47 -12 19 -39 50 -60 69 -21 19 -38 43 -38 53 0 13 -7 19 -22 19 -30 0
-44 10 -52 38 -5 15 -15 22 -31 22 -35 0 -95 41 -89 62 4 14 1 16 -25 8 -22
-6 -33 -5 -41 5 -6 8 -25 17 -41 20 -24 5 -29 11 -24 26 7 21 3 23 -23 10 -9
-5 -26 -13 -37 -16 -19 -7 -19 -7 3 -18 12 -5 22 -14 22 -18 0 -9 -6 -11 -113
-30 -53 -10 -73 -10 -88 -1 -29 19 -51 14 -84 -16 -17 -16 -44 -32 -60 -36
-17 -4 -48 -15 -70 -25 -65 -29 -150 -53 -171 -49 -27 5 -30 44 -5 58 29 15
26 58 -7 99 -74 93 -122 126 -122 85z m52 -61 c10 -9 18 -22 18 -30 0 -21 -30
-15 -50 9 -29 37 -4 53 32 21z m-247 -93 c3 -5 1 -10 -4 -10 -6 0 -11 5 -11
10 0 6 2 10 4 10 3 0 8 -4 11 -10z m45 -10 c0 -5 -5 -10 -11 -10 -5 0 -7 5 -4
10 3 6 8 10 11 10 2 0 4 -4 4 -10z m170 -100 c0 -14 7 -20 22 -20 16 0 19 -3
11 -11 -6 -6 -25 -8 -46 -4 -35 7 -36 7 -20 31 19 29 33 31 33 4z m165 -610
c9 -27 -3 -43 -28 -36 -12 3 -26 1 -33 -5 -16 -13 -31 8 -16 23 11 11 53 35
64 37 4 1 9 -8 13 -19z m-388 -76 c-3 -3 -12 -4 -19 -1 -8 3 -5 6 6 6 11 1 17
-2 13 -5z"/>
<path d="M3170 3240 c0 -5 4 -10 9 -10 6 0 13 5 16 10 3 6 -1 10 -9 10 -9 0
-16 -4 -16 -10z"/>
<path d="M3598 3238 c12 -6 22 -15 22 -20 0 -4 8 -8 18 -8 14 0 12 4 -8 20
-14 11 -32 19 -40 19 -9 0 -6 -5 8 -11z"/>
<path d="M3350 3209 c0 -5 5 -7 10 -4 6 3 10 8 10 11 0 2 -4 4 -10 4 -5 0 -10
-5 -10 -11z"/>
<path d="M1564 3185 c-10 -8 -27 -15 -36 -15 -10 0 -40 -13 -66 -30 -27 -16
-54 -30 -61 -30 -6 0 -11 -4 -11 -10 0 -16 16 -12 78 19 72 37 127 61 140 61
6 0 14 5 17 10 10 16 -39 12 -61 -5z"/>
<path d="M3315 3189 c-9 -14 -2 -20 14 -10 8 6 9 11 3 15 -6 3 -14 1 -17 -5z"/>
<path d="M3674 3185 c21 -16 32 -13 21 4 -3 6 -14 11 -23 11 -15 -1 -15 -2 2
-15z"/>
<path d="M2050 3146 c0 -53 32 -79 44 -36 3 11 9 29 12 40 4 17 1 20 -25 20
-26 0 -31 -4 -31 -24z"/>
<path d="M3710 3160 c0 -5 7 -10 16 -10 8 0 12 5 9 10 -3 6 -10 10 -16 10 -5
0 -9 -4 -9 -10z"/>
<path d="M3466 3141 c-4 -7 -5 -15 -2 -18 9 -9 19 4 14 18 -4 11 -6 11 -12 0z"/>
<path d="M3750 3130 c0 -5 5 -10 11 -10 5 0 7 5 4 10 -3 6 -8 10 -11 10 -2 0
-4 -4 -4 -10z"/>
<path d="M3410 3101 c0 -5 9 -7 20 -4 11 3 20 7 20 9 0 2 -9 4 -20 4 -11 0
-20 -4 -20 -9z"/>
<path d="M1340 3070 c0 -5 9 -10 20 -10 11 0 20 5 20 10 0 6 -9 10 -20 10 -11
0 -20 -4 -20 -10z"/>
<path d="M3550 3070 c0 -5 4 -10 9 -10 6 0 13 5 16 10 3 6 -1 10 -9 10 -9 0
-16 -4 -16 -10z"/>
<path d="M3810 3075 c0 -2 9 -9 20 -15 16 -9 18 -8 14 5 -5 13 -34 22 -34 10z"/>
<path d="M3512 3053 c-6 -2 -10 -9 -7 -13 7 -11 35 -2 35 11 0 10 -8 10 -28 2z"/>
<path d="M1290 3030 c-14 -10 -22 -21 -19 -25 4 -3 14 1 22 10 9 8 20 15 26
15 5 0 13 5 16 10 10 17 -19 11 -45 -10z"/>
<path d="M3312 3010 c0 -14 2 -19 5 -12 2 6 2 18 0 25 -3 6 -5 1 -5 -13z"/>
<path d="M1240 2990 c-13 -8 -12 -10 3 -10 9 0 17 5 17 10 0 12 -1 12 -20 0z"/>
<path d="M3680 2990 c-13 -8 -12 -10 3 -10 9 0 17 5 17 10 0 12 -1 12 -20 0z"/>
<path d="M1410 2964 c-8 -3 -22 -8 -30 -10 -13 -5 -13 -6 0 -13 8 -4 71 -4
140 1 69 5 234 7 368 5 178 -2 242 0 242 8 0 9 -93 12 -352 13 -194 0 -360 -1
-368 -4z"/>
<path d="M3623 2963 c-13 -2 -23 -8 -23 -12 0 -5 11 -6 25 -3 14 2 25 8 25 13
0 5 -1 8 -2 8 -2 -1 -13 -4 -25 -6z"/>
<path d="M2210 2925 c0 -17 5 -25 13 -22 6 2 12 12 12 22 0 10 -6 20 -12 23
-8 2 -13 -6 -13 -23z"/>
<path d="M1283 2933 c-7 -2 -13 -9 -13 -13 0 -11 71 -1 85 11 10 10 -51 11
-72 2z"/>
<path d="M1136 2883 c-39 -53 -74 -122 -87 -168 -4 -16 -13 -48 -18 -70 -11
-40 -7 -113 9 -150 4 -11 15 -41 25 -67 18 -52 35 -71 35 -39 0 10 -5 21 -11
23 -6 2 -13 21 -16 43 -3 22 -10 46 -15 53 -13 15 -4 143 12 190 13 36 35 42
43 13 2 -11 32 -39 65 -63 34 -24 69 -58 79 -76 17 -31 47 -50 68 -43 6 2 33
6 60 10 48 7 49 8 23 19 -15 6 -34 24 -42 40 -17 33 -50 46 -77 31 -31 -16
-57 -10 -82 21 -14 17 -28 30 -31 30 -21 0 -66 74 -66 109 0 26 60 87 93 95
31 7 35 21 10 30 -10 3 -23 9 -30 12 -7 3 -27 -16 -47 -43z"/>
<path d="M1245 2910 c-3 -5 -1 -10 4 -10 6 0 11 5 11 10 0 6 -2 10 -4 10 -3 0
-8 -4 -11 -10z"/>
<path d="M3775 2900 c-3 -5 3 -10 14 -10 12 0 21 5 21 10 0 6 -6 10 -14 10 -8
0 -18 -4 -21 -10z"/>
<path d="M2640 2870 c8 -5 38 -9 65 -9 37 0 45 3 30 9 -29 12 -114 12 -95 0z"/>
<path d="M3715 2870 c-3 -5 3 -10 14 -10 11 0 23 5 26 10 3 6 -3 10 -14 10
-11 0 -23 -4 -26 -10z"/>
<path d="M2790 2840 c0 -5 10 -10 23 -10 12 0 33 -3 47 -6 24 -5 24 -5 6 10
-22 18 -76 22 -76 6z"/>
<path d="M3660 2838 c0 -4 7 -8 15 -8 8 0 15 4 15 8 0 5 -7 9 -15 9 -8 0 -15
-4 -15 -9z"/>
<path d="M2387 2773 c-23 -28 -34 -50 -28 -56 11 -11 38 15 64 60 34 61 15 59
-36 -4z"/>
<path d="M2084 2789 c-10 -17 13 -36 27 -22 12 12 4 33 -11 33 -5 0 -12 -5
-16 -11z"/>
<path d="M2995 2790 c-4 -6 3 -10 14 -10 25 0 27 6 6 13 -8 4 -17 2 -20 -3z"/>
<path d="M1983 2743 c-53 -38 -71 -48 -123 -74 -24 -13 -82 -51 -129 -86 -95
-73 -131 -93 -161 -93 -13 0 -19 -4 -14 -11 6 -10 -100 -119 -116 -119 -4 0
-20 -16 -36 -36 -16 -19 -37 -45 -46 -56 -10 -12 -18 -29 -18 -40 0 -12 19 4
59 50 33 38 90 93 127 123 60 47 73 54 112 53 30 -1 40 2 32 10 -25 25 -8 46
83 105 50 33 97 65 104 70 7 6 17 11 22 11 6 0 14 6 18 13 9 14 36 30 105 64
25 12 49 27 53 33 13 20 -33 9 -72 -17z"/>
<path d="M3780 2720 c0 -5 6 -10 14 -10 8 0 18 5 21 10 3 6 -3 10 -14 10 -12
0 -21 -4 -21 -10z"/>
<path d="M3980 2713 c0 -13 5 -23 10 -23 13 0 13 11 0 30 -8 12 -10 11 -10 -7z"/>
<path d="M3718 2693 c7 -3 16 -2 19 1 4 3 -2 6 -13 5 -11 0 -14 -3 -6 -6z"/>
<path d="M660 2640 c0 -5 19 -10 43 -10 31 0 38 3 27 10 -20 13 -70 13 -70 0z"/>
<path d="M4000 2622 c0 -19 -7 -35 -17 -41 -16 -9 -16 -10 -2 -11 9 0 20 -8
23 -17 12 -30 27 7 20 47 -9 48 -24 62 -24 22z"/>
<path d="M2431 2581 c-30 -42 -26 -55 9 -29 30 22 38 42 21 53 -5 3 -19 -8
-30 -24z"/>
<path d="M1480 2520 c8 -5 20 -10 25 -10 6 0 3 5 -5 10 -8 5 -19 10 -25 10 -5
0 -3 -5 5 -10z"/>
<path d="M2386 2511 c-4 -7 -5 -15 -2 -18 9 -9 19 4 14 18 -4 11 -6 11 -12 0z"/>
<path d="M705 2490 c3 -5 13 -10 21 -10 8 0 14 5 14 10 0 6 -9 10 -21 10 -11
0 -17 -4 -14 -10z"/>
<path d="M2071 2484 c0 -11 3 -14 6 -6 3 7 2 16 -1 19 -3 4 -6 -2 -5 -13z"/>
<path d="M2148 2463 c-36 -9 -14 -63 25 -63 13 0 17 5 13 16 -3 9 -6 24 -6 35
0 19 -2 20 -32 12z"/>
<path d="M2212 2454 c9 -9 21 -13 27 -9 16 10 3 25 -22 25 -20 0 -20 -1 -5
-16z"/>
<path d="M2410 2450 c0 -11 7 -20 15 -20 8 0 15 9 15 20 0 11 -7 20 -15 20 -8
0 -15 -9 -15 -20z"/>
<path d="M1711 2436 c2 -2 22 -6 44 -10 29 -5 36 -4 25 3 -13 10 -79 16 -69 7z"/>
<path d="M4007 2413 c-6 -15 -16 -23 -33 -23 -30 0 -31 -11 -3 -28 29 -18 52
4 47 44 -3 28 -4 28 -11 7z"/>
<path d="M3818 2403 c6 -2 18 -2 25 0 6 3 1 5 -13 5 -14 0 -19 -2 -12 -5z"/>
<path d="M3598 2383 c-13 -18 -60 -40 -112 -52 -16 -3 -31 -12 -34 -19 -3 -10
5 -12 34 -6 22 4 42 11 45 17 4 5 15 6 26 3 23 -7 89 46 78 64 -9 15 -22 12
-37 -7z"/>
<path d="M835 2333 c-65 -23 -68 -36 -6 -28 31 4 63 15 75 26 20 19 20 19 -5
18 -13 -1 -42 -8 -64 -16z"/>
<path d="M3673 2343 c9 -2 23 -2 30 0 6 3 -1 5 -18 5 -16 0 -22 -2 -12 -5z"/>
<path d="M3985 2326 c-3 -9 -7 -23 -10 -31 -2 -8 -1 -15 4 -15 5 0 11 12 14
28 6 30 0 44 -8 18z"/>
<path d="M3738 2313 c7 -3 16 -2 19 1 4 3 -2 6 -13 5 -11 0 -14 -3 -6 -6z"/>
<path d="M1140 2301 c0 -5 5 -13 10 -16 6 -3 10 -2 10 4 0 5 -4 13 -10 16 -5
3 -10 2 -10 -4z"/>
<path d="M723 2293 c9 -2 23 -2 30 0 6 3 -1 5 -18 5 -16 0 -22 -2 -12 -5z"/>
<path d="M3275 2290 c-14 -6 2 -9 50 -9 39 0 79 4 90 9 14 6 -2 9 -50 9 -38 0
-79 -4 -90 -9z"/>
<path d="M3795 2290 c3 -5 10 -10 16 -10 5 0 9 5 9 10 0 6 -7 10 -16 10 -8 0
-12 -4 -9 -10z"/>
<path d="M3532 2273 c-8 -3 -37 -27 -66 -54 -29 -27 -67 -59 -86 -71 -41 -28
-49 -48 -19 -48 12 0 28 -8 35 -17 12 -17 13 -17 14 -1 0 9 -5 20 -10 23 -18
11 23 54 58 61 21 4 32 12 32 23 0 20 40 61 58 61 7 0 12 7 12 15 0 16 -6 17
-28 8z"/>
<path d="M1170 2260 c0 -5 5 -10 11 -10 5 0 7 5 4 10 -3 6 -8 10 -11 10 -2 0
-4 -4 -4 -10z"/>
<path d="M3860 2260 c8 -5 22 -10 30 -10 13 0 13 1 0 10 -8 5 -22 10 -30 10
-13 0 -13 -1 0 -10z"/>
<path d="M3938 2252 c-15 -17 -30 -82 -19 -82 9 1 37 43 45 67 9 28 -7 37 -26
15z"/>
<path d="M955 2230 c-4 -6 5 -10 20 -10 15 0 24 4 20 10 -3 6 -12 10 -20 10
-8 0 -17 -4 -20 -10z"/>
<path d="M3571 2237 c2 -1 14 -11 27 -21 12 -11 22 -16 22 -13 0 10 -31 37
-42 37 -6 0 -9 -1 -7 -3z"/>
<path d="M900 2200 c0 -5 7 -10 15 -10 8 0 15 5 15 10 0 6 -7 10 -15 10 -8 0
-15 -4 -15 -10z"/>
<path d="M1230 2200 c0 -5 5 -10 11 -10 5 0 7 5 4 10 -3 6 -8 10 -11 10 -2 0
-4 -4 -4 -10z"/>
<path d="M4041 2194 c0 -11 3 -14 6 -6 3 7 2 16 -1 19 -3 4 -6 -2 -5 -13z"/>
<path d="M1306 2175 c-23 -35 -17 -57 17 -61 41 -4 59 -23 55 -56 -4 -26 -3
-27 13 -12 15 14 22 14 56 2 21 -7 49 -18 63 -25 28 -14 37 -4 21 26 -7 12
-26 23 -49 27 -20 4 -41 10 -47 14 -5 5 -21 10 -34 12 -17 2 -32 17 -48 47
-30 57 -27 56 -47 26z"/>
<path d="M840 2170 c0 -5 7 -7 15 -4 8 4 15 8 15 10 0 2 -7 4 -15 4 -8 0 -15
-4 -15 -10z"/>
<path d="M778 2153 c-20 -5 -24 -23 -5 -23 17 0 41 17 31 22 -5 2 -17 3 -26 1z"/>
<path d="M3550 2093 c62 -65 73 -74 79 -67 3 2 -19 27 -47 55 -29 28 -52 55
-52 60 0 5 -8 9 -17 9 -12 0 0 -18 37 -57z"/>
<path d="M3695 2140 c3 -5 10 -10 16 -10 5 0 9 5 9 10 0 6 -7 10 -16 10 -8 0
-12 -4 -9 -10z"/>
<path d="M1724 2115 c-18 -14 -18 -14 6 -15 37 0 71 11 64 21 -8 14 -48 11
-70 -6z"/>
<path d="M2022 2118 c-7 -7 -12 -17 -12 -24 0 -6 -10 -19 -22 -27 -23 -16 -22
-16 15 -16 33 -1 37 2 37 23 0 13 5 26 11 28 7 2 6 8 -3 16 -11 9 -17 9 -26 0z"/>
<path d="M2105 2113 c-4 -13 -13 -23 -20 -23 -7 0 -18 -7 -25 -15 -10 -12 -8
-16 14 -25 14 -5 26 -17 26 -25 0 -13 5 -15 23 -9 12 4 39 8 59 9 20 0 40 3
43 7 13 13 -5 25 -30 20 -18 -3 -25 0 -25 12 0 9 -4 16 -10 16 -5 0 -10 -7
-10 -15 0 -8 -6 -15 -14 -15 -24 0 -40 28 -26 45 6 8 10 20 7 27 -4 8 -8 5
-12 -9z"/>
<path d="M2410 2115 c0 -8 7 -15 15 -15 8 0 15 7 15 15 0 8 -7 15 -15 15 -8 0
-15 -7 -15 -15z"/>
<path d="M2480 2121 c0 -5 9 -7 20 -4 11 3 20 7 20 9 0 2 -9 4 -20 4 -11 0
-20 -4 -20 -9z"/>
<path d="M3730 2120 c0 -5 5 -10 11 -10 5 0 7 5 4 10 -3 6 -8 10 -11 10 -2 0
-4 -4 -4 -10z"/>
<path d="M3270 2080 c-30 -16 -62 -32 -70 -35 -8 -3 -28 -13 -43 -21 -16 -7
-34 -14 -42 -14 -7 0 -18 -7 -25 -15 -7 -8 -24 -15 -39 -15 -15 0 -32 -5 -37
-10 -6 -6 -33 -15 -60 -20 -27 -4 -69 -13 -94 -20 -106 -26 -146 -33 -229 -39
-48 -4 -93 -11 -101 -16 -7 -4 -72 -7 -144 -5 -177 4 -192 5 -341 25 -205 26
-228 28 -221 17 3 -5 23 -12 43 -15 21 -3 65 -10 98 -16 64 -11 117 -17 230
-26 39 -3 93 -7 120 -9 108 -10 448 30 590 69 28 8 59 16 70 19 11 2 36 10 55
17 19 6 44 15 55 19 11 3 49 21 85 38 78 38 92 39 114 10 16 -23 16 -22 10 14
-5 31 -3 37 15 43 12 3 21 13 21 21 0 8 -1 14 -2 13 -2 0 -28 -13 -58 -29z"/>
<path d="M1605 2090 c-18 -7 -19 -8 -2 -15 21 -9 67 2 67 15 0 12 -37 12 -65
0z"/>
<path d="M955 2060 c-3 -5 3 -10 14 -10 12 0 21 5 21 10 0 6 -6 10 -14 10 -8
0 -18 -4 -21 -10z"/>
<path d="M1210 2045 c-13 -14 -19 -25 -14 -25 10 0 54 37 54 45 0 12 -19 3
-40 -20z"/>
<path d="M908 2023 c7 -3 16 -2 19 1 4 3 -2 6 -13 5 -11 0 -14 -3 -6 -6z"/>
<path d="M1339 1994 c-5 -15 -12 -32 -15 -38 -4 -6 5 2 20 18 27 31 33 46 16
46 -6 0 -15 -12 -21 -26z"/>
<path d="M1955 2010 c-3 -5 1 -10 10 -10 9 0 13 5 10 10 -3 6 -8 10 -10 10 -2
0 -7 -4 -10 -10z"/>
<path d="M1170 2000 c0 -5 5 -10 10 -10 6 0 10 5 10 10 0 6 -4 10 -10 10 -5 0
-10 -4 -10 -10z"/>
<path d="M1555 2000 c3 -5 16 -10 28 -10 18 0 19 2 7 10 -20 13 -43 13 -35 0z"/>
<path d="M3655 1990 c3 -5 8 -10 11 -10 2 0 4 5 4 10 0 6 -5 10 -11 10 -5 0
-7 -4 -4 -10z"/>
<path d="M1132 1963 c-30 -33 -23 -40 8 -8 13 14 21 27 19 29 -2 3 -14 -7 -27
-21z"/>
<path d="M1619 1977 c14 -18 71 -24 71 -7 0 6 -11 10 -24 10 -13 0 -33 3 -43
7 -16 6 -16 5 -4 -10z"/>
<path d="M3310 1975 c0 -8 5 -15 10 -15 6 0 10 7 10 15 0 8 -4 15 -10 15 -5 0
-10 -7 -10 -15z"/>
<path d="M2110 1970 c36 -12 60 -12 60 0 0 6 -19 10 -42 9 -37 -1 -39 -2 -18
-9z"/>
<path d="M3510 1948 c1 -19 25 -48 41 -48 10 1 9 4 -3 14 -10 7 -18 18 -18 24
0 6 -4 14 -10 17 -5 3 -10 0 -10 -7z"/>
<path d="M1470 1940 c0 -5 11 -10 25 -10 14 0 25 5 25 10 0 6 -11 10 -25 10
-14 0 -25 -4 -25 -10z"/>
<path d="M1710 1941 c8 -4 32 -12 54 -15 29 -6 37 -4 34 6 -3 8 -24 14 -54 16
-32 1 -44 -1 -34 -7z"/>
<path d="M2273 1943 c9 -2 23 -2 30 0 6 3 -1 5 -18 5 -16 0 -22 -2 -12 -5z"/>
<path d="M3340 1936 c0 -9 5 -16 10 -16 6 0 10 4 10 9 0 6 -4 13 -10 16 -5 3
-10 -1 -10 -9z"/>
<path d="M3834 1925 c-16 -14 -25 -25 -20 -25 4 0 21 11 38 25 16 14 25 25 20
25 -5 0 -22 -11 -38 -25z"/>
<path d="M1527 1901 c-9 -24 -18 -30 -54 -36 -24 -3 -43 -10 -43 -16 0 -14 77
-11 92 5 8 8 23 16 34 18 23 4 31 37 12 49 -22 14 -29 10 -41 -20z"/>
<path d="M3176 1917 c-17 -12 -16 -14 8 -25 15 -7 28 -24 34 -43 10 -42 32
-50 32 -12 0 29 -33 93 -48 93 -4 0 -16 -6 -26 -13z"/>
<path d="M1075 1910 c-3 -5 -2 -10 4 -10 5 0 13 5 16 10 3 6 2 10 -4 10 -5 0
-13 -4 -16 -10z"/>
<path d="M3370 1895 c0 -8 4 -15 10 -15 5 0 7 7 4 15 -4 8 -8 15 -10 15 -2 0
-4 -7 -4 -15z"/>
<path d="M1645 1878 c-11 -6 -30 -21 -43 -34 -18 -19 -21 -28 -12 -43 14 -27
13 -31 -9 -31 -14 0 -17 -6 -13 -25 4 -21 1 -25 -21 -25 -14 0 -42 9 -61 21
-30 18 -34 24 -25 40 7 15 6 21 -6 25 -46 18 -60 -37 -15 -60 75 -39 100 -47
130 -44 31 3 40 11 54 48 3 8 10 22 14 30 48 82 50 121 7 98z"/>
<path d="M3085 1880 c-7 -12 12 -12 40 0 18 8 17 9 -7 9 -15 1 -30 -3 -33 -9z"/>
<path d="M1261 1864 c0 -11 3 -14 6 -6 3 7 2 16 -1 19 -3 4 -6 -2 -5 -13z"/>
<path d="M3035 1861 c-6 -11 9 -23 19 -14 9 9 7 23 -3 23 -6 0 -12 -4 -16 -9z"/>
<path d="M3390 1861 c0 -6 5 -13 10 -16 6 -3 10 1 10 9 0 9 -4 16 -10 16 -5 0
-10 -4 -10 -9z"/>
<path d="M3760 1860 c-8 -5 -12 -12 -9 -15 4 -3 12 1 19 10 14 17 11 19 -10 5z"/>
<path d="M1231 1814 c0 -11 3 -14 6 -6 3 7 2 16 -1 19 -3 4 -6 -2 -5 -13z"/>
<path d="M1855 1810 c-3 -11 -4 -24 0 -29 3 -6 -4 -19 -16 -29 -23 -23 -12
-36 31 -37 14 0 25 -4 25 -10 0 -5 -10 -9 -22 -7 -13 1 -23 -2 -23 -8 0 -13 7
-15 83 -30 51 -10 59 -15 71 -43 l13 -32 13 27 c10 22 11 30 0 43 -7 8 -19 15
-26 15 -8 0 -14 6 -14 13 0 7 13 12 32 12 31 0 31 1 35 53 3 57 -3 62 -49 38
-23 -12 -29 -12 -39 0 -6 8 -22 14 -34 14 -12 0 -28 7 -35 15 -17 21 -37 19
-45 -5z m90 -40 c-3 -5 -15 -10 -26 -10 -10 0 -19 5 -19 10 0 6 12 10 26 10
14 0 23 -4 19 -10z"/>
<path d="M2814 1783 c3 -27 7 -57 8 -68 2 -16 -4 -21 -29 -23 -31 -3 -33 -2
-33 31 0 48 -28 80 -70 79 -40 -1 -60 -19 -65 -58 -4 -36 3 -54 21 -54 8 0 19
-11 24 -25 11 -30 15 -30 60 -7 44 23 91 19 109 -8 7 -11 17 -20 22 -20 12 0
6 135 -7 151 -6 8 -14 22 -17 32 -4 9 -12 17 -18 17 -8 0 -10 -14 -5 -47z
m-96 -65 c-4 -29 -38 -38 -38 -10 0 22 8 32 27 32 9 0 13 -8 11 -22z"/>
<path d="M3710 1820 c0 -5 5 -10 10 -10 6 0 10 5 10 10 0 6 -4 10 -10 10 -5 0
-10 -4 -10 -10z"/>
<path d="M1480 1800 c0 -5 8 -10 18 -10 10 0 22 -3 28 -7 5 -5 1 0 -9 10 -21
19 -37 22 -37 7z"/>
<path d="M3120 1784 c9 -21 7 -29 -7 -40 -16 -12 -14 -13 18 -14 21 0 42 7 49
15 9 11 9 15 1 15 -6 0 -16 11 -21 25 -6 15 -17 25 -30 25 -17 0 -18 -3 -10
-26z"/>
<path d="M3655 1785 c-22 -14 -33 -25 -25 -25 8 0 29 11 45 25 38 31 31 31
-20 0z"/>
<path d="M3270 1790 c0 -5 7 -7 15 -4 8 4 15 8 15 10 0 2 -7 4 -15 4 -8 0 -15
-4 -15 -10z"/>
<path d="M2416 1772 c-7 -11 -1 -181 7 -189 10 -9 39 6 32 17 -3 6 -1 26 6 45
11 31 11 36 -4 48 -12 8 -17 23 -15 46 3 32 -13 53 -26 33z"/>
<path d="M3205 1770 c-3 -5 3 -10 14 -10 11 0 23 5 26 10 3 6 -3 10 -14 10
-11 0 -23 -4 -26 -10z"/>
<path d="M2310 1750 c-11 -7 -9 -11 13 -19 19 -8 27 -17 27 -36 0 -38 18 -30
26 11 5 26 3 39 -7 45 -18 11 -40 11 -59 -1z"/>
<path d="M3578 1743 c-10 -2 -18 -8 -18 -13 0 -4 -21 -17 -47 -29 -27 -12 -55
-25 -63 -30 -22 -13 -87 -41 -96 -41 -8 0 -114 -49 -114 -53 0 -2 16 -1 35 1
28 3 35 1 35 -12 0 -20 -51 -88 -98 -130 -18 -17 -39 -41 -48 -54 -15 -22 -14
-23 4 -13 22 12 92 87 92 99 0 5 10 13 23 19 12 6 29 23 37 38 19 36 99 115
116 115 8 0 14 5 14 10 0 6 6 10 13 10 16 0 86 37 104 56 8 8 21 14 29 14 8 0
14 5 14 10 0 10 -3 11 -32 3z"/>
<path d="M3060 1710 c0 -5 4 -10 9 -10 6 0 13 5 16 10 3 6 -1 10 -9 10 -9 0
-16 -4 -16 -10z"/>
<path d="M2267 1660 c-5 -21 -12 -30 -27 -30 -11 0 -20 -4 -20 -10 0 -11 118
-14 146 -3 13 5 6 9 -27 17 -34 9 -45 16 -47 34 -5 31 -18 27 -25 -8z"/>
<path d="M1360 1570 c0 -6 8 -13 18 -16 9 -3 24 -9 33 -14 19 -10 129 -40 184
-50 22 -4 53 -12 68 -19 16 -6 43 -11 62 -11 19 0 46 -5 62 -11 69 -28 485
-50 692 -38 156 10 297 25 310 34 6 3 48 12 93 19 108 18 168 34 168 46 0 13
-35 12 -85 -1 -22 -6 -62 -15 -90 -20 -27 -5 -70 -13 -95 -18 -25 -6 -70 -10
-100 -11 -32 0 -64 -6 -77 -15 -18 -13 -65 -14 -300 -11 -153 2 -307 8 -343
15 -36 6 -105 18 -155 27 -144 25 -235 47 -379 90 -58 17 -66 17 -66 4z"/>
<path d="M3185 1560 c-8 -13 15 -13 35 0 12 8 11 10 -7 10 -12 0 -25 -4 -28
-10z"/>
<path d="M3100 1543 c-14 -3 -29 -9 -35 -15 -7 -7 0 -9 24 -4 18 3 42 6 52 6
11 0 19 5 19 10 0 10 -15 11 -60 3z"/>
<path d="M2810 1370 c0 -6 -12 -15 -27 -21 -20 -7 -23 -13 -15 -21 7 -7 12
-24 12 -39 0 -23 5 -27 38 -32 47 -5 52 -2 52 33 0 16 5 32 11 36 8 4 2 12
-15 21 -14 7 -26 18 -26 23 0 6 -7 10 -15 10 -8 0 -15 -5 -15 -10z"/>
<path d="M1746 1355 c-3 -8 -15 -15 -26 -15 -21 0 -27 -14 -10 -25 6 -3 10
-19 10 -36 0 -33 0 -33 35 -17 19 9 28 9 37 0 19 -19 28 -14 28 17 0 17 5 33
10 36 15 9 12 25 -4 25 -7 0 -19 7 -26 15 -7 8 -20 15 -30 15 -10 0 -20 -7
-24 -15z"/>
<path d="M3102 1335 c-18 -12 -53 -41 -77 -64 -24 -23 -55 -45 -67 -51 -19 -7
-20 -9 -4 -9 21 -1 172 106 181 128 9 21 3 21 -33 -4z"/>
<path d="M2147 1322 c-20 -22 -21 -30 -4 -65 9 -21 19 -27 43 -27 37 0 48 -9
33 -27 -8 -9 -23 -11 -47 -7 -27 5 -34 4 -30 -7 6 -19 78 -23 99 -7 9 7 20 34
23 59 6 41 4 50 -17 73 -29 31 -76 35 -100 8z m77 -24 c13 -22 -14 -54 -38
-45 -16 6 -22 48 -9 61 11 11 35 3 47 -16z"/>
<path d="M2353 1323 c-13 -8 -23 -21 -23 -27 0 -26 26 -66 43 -66 18 0 24 25
7 35 -26 16 -1 60 29 50 25 -8 30 -55 6 -55 -8 0 -15 -7 -15 -15 0 -8 7 -15
15 -15 22 0 18 -28 -5 -35 -12 -4 -28 -1 -36 6 -11 9 -18 9 -26 1 -18 -18 2
-32 47 -32 54 0 75 25 75 87 0 71 -61 106 -117 66z"/>
<path d="M2556 1321 c-13 -14 -14 -21 -5 -27 7 -4 17 0 25 11 7 10 20 15 29
12 17 -7 21 -42 5 -52 -16 -10 -12 -23 10 -30 11 -3 20 -13 20 -21 0 -23 -29
-28 -66 -11 -26 13 -34 14 -34 4 0 -24 24 -37 66 -37 23 0 46 6 52 13 17 21 6
129 -15 144 -25 19 -67 16 -87 -6z"/>
<path d="M1980 1315 c-10 -13 -10 -19 4 -33 9 -11 16 -36 16 -60 0 -31 4 -42
15 -42 12 0 15 15 15 75 0 67 -2 75 -19 75 -10 0 -24 -7 -31 -15z"/>
<path d="M2888 1187 c-7 -7 -22 -16 -32 -20 -10 -4 -16 -11 -12 -14 8 -8 76
26 76 39 0 12 -17 10 -32 -5z"/>
<path d="M1790 1130 c0 -5 8 -10 17 -10 9 0 24 -6 32 -13 38 -32 201 -71 201
-48 0 6 -12 13 -27 16 -16 3 -57 15 -91 25 -35 11 -67 18 -72 15 -4 -3 -10 2
-14 10 -6 17 -46 21 -46 5z"/>
<path d="M2775 1130 c-3 -5 3 -10 14 -10 12 0 21 5 21 10 0 6 -6 10 -14 10 -8
0 -18 -4 -21 -10z"/>
<path d="M2700 1103 c-8 -2 -22 -7 -30 -11 -8 -3 -35 -11 -60 -18 l-45 -13 45
3 c40 3 69 11 135 37 18 7 17 8 -5 8 -14 -1 -32 -3 -40 -6z"/>
<path d="M2493 1053 c-29 -2 -53 -9 -53 -15 0 -6 12 -8 31 -4 17 3 44 6 60 6
16 0 29 5 29 10 0 6 -3 9 -7 8 -5 -1 -32 -3 -60 -5z"/>
<path d="M2090 1041 c22 -12 175 -20 248 -14 116 11 63 23 -100 22 -90 0 -156
-4 -148 -8z"/>
<path d="M680 1003 c0 -10 -12 -53 -26 -97 -21 -61 -29 -75 -36 -62 -8 13 -29
16 -139 16 -191 0 -201 -8 -274 -215 -53 -148 -55 -175 -19 -204 24 -19 40
-21 148 -21 86 0 129 4 149 14 23 13 27 13 27 0 0 -11 20 -14 100 -14 98 0
100 1 100 23 0 13 43 144 95 291 52 148 95 272 95 277 0 5 -49 9 -110 9 -98 0
-110 -2 -110 -17z m-85 -234 c12 -18 -65 -222 -92 -246 -38 -35 -123 -30 -123
8 0 28 69 211 87 231 18 20 117 26 128 7z"/>
<path d="M1523 1003 c-3 -10 -12 -33 -19 -52 -8 -18 -14 -35 -14 -38 0 -2 48
-2 107 -1 l106 3 18 53 18 52 -105 0 c-91 0 -105 -2 -111 -17z"/>
<path d="M3033 993 c-3 -10 -12 -33 -19 -52 -8 -18 -14 -35 -14 -37 0 -2 47
-4 103 -4 l104 0 12 41 c7 23 15 47 18 55 4 11 -14 14 -96 14 -88 0 -102 -2
-108 -17z"/>
<path d="M3656 998 c-19 -69 -50 -168 -53 -168 -2 0 -15 7 -28 16 -20 13 -46
15 -132 12 -165 -6 -182 -20 -252 -217 -70 -195 -60 -214 113 -219 85 -3 122
0 149 12 32 13 37 13 37 0 0 -11 19 -14 95 -14 88 0 95 2 95 20 0 10 43 141
95 289 52 148 95 272 95 275 0 3 -47 6 -105 6 -76 0 -107 -4 -109 -12z m-86
-247 c0 -24 -57 -189 -76 -218 -24 -38 -134 -43 -134 -6 0 20 69 214 82 231 6
7 34 12 69 12 52 0 59 -2 59 -19z"/>
<path d="M972 843 c-49 -24 -75 -65 -121 -193 -49 -137 -52 -180 -15 -209 25
-20 40 -21 213 -21 l187 0 22 46 c13 26 21 48 19 50 -2 2 -19 -1 -38 -6 -50
-15 -182 -13 -203 3 -18 13 -17 19 20 122 21 60 46 117 56 127 15 15 35 18
119 18 55 0 109 -5 120 -10 22 -12 23 -9 34 53 l6 37 -193 0 c-158 0 -199 -3
-226 -17z"/>
<path d="M1417 712 c-40 -123 -67 -195 -104 -279 -4 -10 22 -13 110 -13 l115
0 6 36 c4 19 36 117 72 216 35 100 64 183 64 185 0 2 -48 3 -107 3 l-108 -1
-48 -147z"/>
<path d="M1757 853 c-4 -3 -7 -16 -7 -28 0 -27 -115 -350 -135 -382 l-15 -23
112 0 113 1 53 163 c30 90 59 169 65 175 6 6 37 11 69 11 52 0 58 -2 58 -21 0
-25 -74 -238 -101 -291 l-19 -38 115 0 c107 0 115 1 115 19 0 11 23 84 50 162
55 155 60 195 31 230 -18 23 -25 24 -144 24 -109 0 -128 -2 -146 -19 -21 -19
-21 -19 -21 2 0 21 -4 22 -93 22 -52 0 -97 -3 -100 -7z"/>
<path d="M2495 851 c-78 -14 -116 -50 -151 -146 -50 -137 -34 -155 138 -155
64 0 119 -4 122 -8 2 -4 1 -14 -4 -22 -12 -20 -282 -22 -302 -2 -6 6 -15 12
-19 12 -6 0 -29 -85 -29 -105 0 -10 397 -4 435 6 56 16 105 71 133 149 23 68
27 106 14 128 -14 21 -72 32 -174 32 -80 0 -98 3 -98 15 0 13 23 15 143 15 93
0 147 -4 154 -11 11 -11 19 15 26 81 2 13 -24 15 -173 16 -96 1 -193 -1 -215
-5z"/>
<path d="M2970 841 c0 -26 -116 -359 -135 -388 -8 -12 -15 -25 -15 -28 0 -3
51 -5 114 -5 l113 0 7 38 c3 20 33 113 66 205 33 93 60 175 60 183 0 11 -22
14 -105 14 -97 0 -105 -1 -105 -19z"/>
<path d="M3985 851 c-80 -21 -112 -61 -165 -210 -45 -126 -48 -158 -21 -192
19 -24 22 -24 245 -27 l225 -3 26 50 25 51 -32 -8 c-44 -9 -284 -9 -294 1 -4
4 -3 24 2 45 l9 37 176 3 176 2 26 78 c33 93 34 132 6 158 -19 17 -40 19 -197
21 -98 1 -190 -1 -207 -6z m215 -100 c0 -11 -4 -31 -10 -45 -9 -25 -13 -26
-80 -26 -69 0 -71 1 -65 23 17 57 32 67 95 67 53 0 60 -2 60 -19z"/>
</g>
</svg>
