<?xml version="1.0" standalone="no"?>
<!DOCTYPE svg PUBLIC "-//W3C//DTD SVG 20010904//EN"
 "http://www.w3.org/TR/2001/REC-SVG-20010904/DTD/svg10.dtd">
<svg version="1.0" xmlns="http://www.w3.org/2000/svg"
 width="472.000000pt" height="400.000000pt" viewBox="0 0 472.000000 400.000000"
 preserveAspectRatio="xMidYMid meet">

<g transform="translate(0.000000,400.000000) scale(0.100000,-0.100000)"
fill="#000000" stroke="none">
<path d="M2028 3563 c12 -2 30 -2 40 0 9 3 -1 5 -23 4 -22 0 -30 -2 -17 -4z"/>
<path d="M2493 3563 c15 -2 37 -2 50 0 12 2 0 4 -28 4 -27 0 -38 -2 -22 -4z"/>
<path d="M2738 3533 c7 -3 16 -2 19 1 4 3 -2 6 -13 5 -11 0 -14 -3 -6 -6z"/>
<path d="M2095 3509 c-27 -5 -92 -11 -144 -14 -52 -3 -113 -13 -135 -20 -23
-8 -61 -15 -86 -15 -25 0 -56 -7 -70 -15 -14 -8 -44 -14 -68 -15 -25 0 -45 -5
-47 -12 -3 -7 -22 -14 -42 -16 -20 -1 -41 -6 -47 -11 -6 -5 -27 -12 -46 -16
-19 -4 -41 -11 -50 -15 -8 -4 -32 -14 -53 -23 -108 -47 -189 -86 -222 -107
-16 -10 -46 -27 -65 -37 -39 -19 -133 -90 -138 -104 -2 -5 -8 -9 -13 -9 -19 0
-156 -147 -200 -215 -45 -70 -62 -106 -93 -201 -17 -56 -23 -278 -7 -288 5 -3
12 -23 16 -43 22 -119 159 -303 320 -429 91 -72 278 -174 410 -225 28 -11 59
-23 70 -28 18 -7 62 -21 185 -56 318 -92 798 -117 1160 -59 134 21 247 44 300
60 92 28 206 66 240 81 54 23 102 43 140 61 58 27 181 103 243 149 31 23 59
43 62 43 9 0 135 124 135 133 0 4 13 22 30 40 16 18 30 38 30 45 0 6 4 12 9
12 5 0 12 8 15 18 4 9 13 29 22 45 19 35 9 55 -17 31 -10 -9 -19 -29 -19 -44
0 -15 -11 -39 -25 -54 -14 -16 -33 -38 -41 -52 -9 -13 -24 -26 -34 -29 -10 -3
-21 -16 -24 -28 -6 -23 -81 -84 -97 -79 -5 1 -13 -6 -16 -15 -9 -24 -30 -40
-80 -64 -23 -11 -46 -25 -50 -32 -15 -24 -82 -59 -102 -52 -14 4 -21 0 -26
-14 -3 -10 -20 -24 -38 -31 -18 -6 -45 -17 -62 -24 -60 -26 -90 -38 -150 -57
-33 -11 -67 -24 -77 -29 -9 -5 -39 -12 -67 -16 -28 -4 -54 -11 -57 -15 -3 -5
-23 -9 -44 -9 -22 0 -57 -6 -77 -14 -87 -31 -300 -50 -568 -49 -300 0 -391 10
-660 73 -112 27 -172 44 -255 77 -120 46 -141 56 -150 73 -6 12 -17 16 -35 12
-14 -2 -33 2 -43 9 -9 8 -34 23 -54 33 -20 10 -39 25 -42 32 -3 8 -14 14 -24
14 -10 0 -33 13 -52 30 -19 16 -38 29 -42 30 -16 0 -48 35 -48 52 0 11 -10 20
-27 24 -34 8 -92 67 -105 106 -6 15 -16 28 -23 28 -19 0 -76 96 -69 115 4 9
-2 25 -14 38 -23 24 -52 99 -52 135 0 12 7 25 16 29 13 5 12 8 -5 24 -18 17
-20 27 -14 82 3 34 12 70 21 79 8 10 13 28 10 40 -8 46 75 169 89 131 5 -15
53 -18 53 -3 0 5 -11 12 -24 16 -35 8 -39 30 -13 65 20 27 26 30 60 25 29 -5
37 -3 37 9 0 8 -7 15 -15 15 -24 0 -17 34 13 63 30 29 52 33 83 17 13 -7 19
-7 19 0 0 5 -4 10 -10 10 -5 0 -10 10 -10 23 0 30 49 67 88 67 24 0 31 5 35
28 7 29 63 62 105 62 14 0 27 9 34 25 8 19 21 26 57 31 25 4 59 17 74 30 16
13 41 24 56 24 15 0 32 5 38 11 5 5 32 16 59 24 27 7 63 18 79 23 78 26 198
52 268 57 27 2 54 8 61 14 7 6 28 11 47 11 68 1 85 1 139 5 30 2 74 9 97 16
37 11 44 11 61 -4 17 -16 21 -16 32 -2 15 18 72 20 102 4 15 -8 26 -8 44 1 29
16 99 7 124 -15 15 -13 23 -14 40 -5 11 6 40 10 63 8 36 -3 42 -6 41 -25 -1
-29 7 -29 24 -2 15 24 23 23 177 -5 50 -10 100 -24 113 -32 13 -9 31 -13 39
-10 17 7 71 -8 115 -30 14 -8 38 -14 52 -14 15 0 38 -11 52 -25 15 -16 36 -25
55 -25 38 0 98 -25 105 -44 3 -7 24 -17 47 -20 42 -7 87 -35 87 -55 0 -6 11
-11 25 -11 31 0 75 -27 75 -46 0 -8 6 -14 13 -14 8 0 35 -14 60 -31 40 -26 46
-34 41 -55 -6 -23 -4 -24 19 -19 19 5 30 1 44 -14 9 -12 23 -21 30 -21 7 0 13
-11 13 -25 0 -26 34 -53 45 -35 7 12 -55 90 -72 90 -7 0 -13 5 -13 11 0 7 -10
20 -22 31 -13 11 -34 29 -48 41 -56 49 -108 86 -165 117 -33 18 -67 39 -76 46
-8 8 -23 14 -31 14 -9 0 -21 7 -28 15 -7 8 -18 15 -25 15 -7 0 -26 7 -41 15
-16 8 -37 15 -46 15 -10 0 -18 4 -18 9 0 5 -33 19 -72 32 -40 12 -77 26 -83
30 -5 4 -28 9 -50 10 -22 2 -46 9 -53 16 -12 12 -42 17 -94 16 -10 0 -18 4
-18 8 0 8 -33 16 -92 23 -21 2 -42 7 -48 11 -6 4 -61 11 -123 16 -62 5 -141
13 -177 19 -74 11 -310 10 -385 -1z"/>
<path d="M2870 3510 c0 -5 15 -10 33 -9 27 0 29 2 12 9 -28 12 -45 12 -45 0z"/>
<path d="M1658 3503 c7 -3 16 -2 19 1 4 3 -2 6 -13 5 -11 0 -14 -3 -6 -6z"/>
<path d="M3018 3473 c12 -2 30 -2 40 0 9 3 -1 5 -23 4 -22 0 -30 -2 -17 -4z"/>
<path d="M3133 3443 c9 -2 23 -2 30 0 6 3 -1 5 -18 5 -16 0 -22 -2 -12 -5z"/>
<path d="M1343 3423 c9 -2 23 -2 30 0 6 3 -1 5 -18 5 -16 0 -22 -2 -12 -5z"/>
<path d="M3200 3420 c0 -5 4 -10 9 -10 6 0 13 5 16 10 3 6 -1 10 -9 10 -9 0
-16 -4 -16 -10z"/>
<path d="M1250 3390 c0 -5 -12 -13 -26 -16 -14 -4 -42 -15 -62 -25 -30 -15
-33 -18 -15 -19 12 0 25 5 28 10 3 6 17 10 29 10 13 0 29 7 36 15 7 8 21 15
31 15 10 0 21 5 24 10 4 6 -5 10 -19 10 -14 0 -26 -4 -26 -10z"/>
<path d="M3270 3390 c8 -5 25 -10 38 -10 12 0 25 -7 28 -15 6 -15 54 -22 54
-7 0 11 -82 42 -110 42 -20 0 -22 -2 -10 -10z"/>
<path d="M2790 3359 c0 -5 5 -7 10 -4 6 3 10 8 10 11 0 2 -4 4 -10 4 -5 0 -10
-5 -10 -11z"/>
<path d="M2945 3350 c-10 -11 -14 -20 -9 -20 5 0 15 9 22 20 7 11 11 20 9 20
-2 0 -12 -9 -22 -20z"/>
<path d="M2305 3334 c-11 -2 -83 -8 -161 -13 -77 -6 -160 -15 -185 -20 -24 -6
-69 -15 -99 -21 -106 -21 -132 -28 -143 -39 -6 -6 -24 -11 -39 -11 -16 0 -31
-7 -34 -15 -4 -8 -18 -15 -34 -15 -16 0 -41 -6 -57 -14 -15 -8 -58 -29 -95
-48 -38 -18 -68 -36 -68 -40 0 -14 19 -9 78 21 78 40 127 61 144 61 8 0 18 3
22 7 11 12 99 43 121 43 11 0 31 6 45 13 15 8 54 17 88 20 34 4 70 11 79 16
10 5 106 15 213 22 229 14 212 14 320 0 46 -6 109 -11 140 -11 30 0 84 -6 120
-14 135 -30 166 -37 200 -47 81 -23 105 -28 114 -19 5 5 -23 18 -65 30 -104
30 -102 29 -95 45 4 13 2 13 -14 5 -44 -23 -109 -7 -122 31 -3 9 -9 9 -25 1
-13 -7 -45 -10 -80 -7 -55 5 -96 8 -273 19 -41 2 -84 3 -95 0z"/>
<path d="M3415 3330 c3 -5 15 -10 26 -10 11 0 17 5 14 10 -3 6 -15 10 -26 10
-11 0 -17 -4 -14 -10z"/>
<path d="M1080 3310 c-12 -8 -9 -10 13 -10 15 0 27 5 27 10 0 13 -20 13 -40 0z"/>
<path d="M3052 3294 c-12 -15 -21 -28 -19 -30 6 -6 57 36 57 47 0 16 -14 9
-38 -17z"/>
<path d="M3470 3311 c0 -11 31 -24 39 -16 3 3 -1 10 -9 15 -19 12 -30 12 -30
1z"/>
<path d="M1000 3267 c-19 -12 -36 -25 -38 -29 -2 -4 -8 -8 -13 -8 -5 0 -28
-14 -52 -30 -179 -127 -301 -262 -374 -415 -46 -95 -79 -246 -70 -320 3 -22 8
-65 12 -95 4 -30 13 -68 21 -84 8 -16 14 -38 14 -48 0 -10 7 -21 15 -24 8 -4
15 -16 15 -29 0 -12 7 -28 15 -35 8 -7 15 -17 15 -22 0 -30 231 -288 259 -288
5 0 14 -6 18 -13 14 -23 135 -99 253 -159 111 -57 170 -100 170 -122 0 -6 11
-23 25 -38 14 -15 25 -32 25 -37 0 -6 6 -14 13 -18 7 -4 22 -20 33 -35 12 -15
52 -52 90 -82 38 -31 74 -60 81 -66 7 -5 19 -10 28 -10 8 0 15 -7 15 -15 0 -8
9 -15 19 -15 11 0 21 -4 23 -8 5 -13 74 -52 92 -52 9 0 16 -4 16 -9 0 -5 11
-11 25 -14 16 -3 24 0 22 7 -2 6 -12 13 -22 15 -10 2 -25 9 -33 17 -7 8 -20
14 -28 14 -8 0 -14 3 -14 8 0 4 -21 18 -47 32 -53 27 -53 27 -103 70 -19 16
-38 30 -43 30 -8 0 -128 118 -170 167 -15 18 -27 42 -27 54 0 19 4 20 35 15
29 -6 34 -4 29 9 -3 8 -15 15 -27 15 -11 0 -53 16 -93 35 -40 19 -77 35 -83
35 -6 0 -11 4 -11 8 0 4 -12 13 -27 19 -16 7 -50 25 -78 42 -27 17 -59 35 -70
40 -19 9 -42 25 -120 84 -35 26 -195 185 -195 193 0 3 -13 23 -30 44 -16 21
-30 41 -30 44 0 4 -10 23 -23 44 -69 110 -95 290 -63 432 15 68 37 131 47 140
4 3 10 16 14 30 14 46 133 195 221 279 79 75 220 178 267 194 10 4 15 11 12
17 -8 13 -14 12 -55 -13z"/>
<path d="M3520 3281 c0 -11 39 -26 47 -17 8 8 3 12 -24 20 -13 4 -23 3 -23 -3z"/>
<path d="M3187 3259 c-28 -32 -10 -37 19 -6 15 16 20 27 12 27 -8 0 -22 -9
-31 -21z"/>
<path d="M2400 3242 c-8 -12 -13 -14 -16 -4 -3 6 -12 12 -20 12 -19 0 -18 -37
1 -48 13 -7 14 -14 5 -36 -5 -15 -10 -34 -10 -42 0 -13 3 -13 22 0 49 35 66 5
23 -39 -31 -30 -42 -31 -50 -5 -11 35 -28 23 -21 -15 4 -19 4 -35 1 -35 -3 0
-19 14 -35 30 -32 33 -50 38 -50 15 0 -22 -34 -18 -55 5 -18 20 -17 20 17 20
29 0 34 3 34 22 -1 31 30 35 54 6 18 -22 19 -22 19 -3 -1 11 -4 30 -7 41 -7
21 -9 21 -60 8 -60 -16 -102 -40 -102 -60 0 -17 -37 -37 -51 -28 -6 3 -8 21
-4 45 6 37 5 39 -19 39 -21 0 -26 -5 -26 -25 0 -14 8 -33 18 -43 9 -9 26 -36
37 -60 23 -48 31 -51 47 -17 16 36 25 31 32 -19 7 -42 8 -44 39 -42 26 1 33
-3 35 -21 2 -13 10 -23 18 -23 16 0 19 26 4 35 -18 11 -11 35 11 35 11 0 17 5
14 10 -3 6 -3 10 2 10 15 0 38 -19 38 -31 0 -21 23 -21 42 0 21 26 30 26 35 4
2 -10 10 -18 18 -18 8 0 16 -4 17 -10 2 -6 -23 -10 -57 -11 -36 0 -66 -6 -73
-14 -10 -10 -6 -12 17 -7 17 3 40 1 52 -4 15 -5 24 -4 27 4 3 7 8 0 12 -15 4
-16 11 -28 15 -28 4 0 10 -21 14 -46 3 -26 11 -53 17 -60 7 -8 8 -29 4 -54 -8
-46 -14 -47 -19 -4 -2 16 -4 32 -5 36 0 4 -22 -12 -48 -36 -42 -39 -73 -50
-73 -25 0 5 -4 9 -10 9 -5 0 -10 -16 -10 -35 0 -39 0 -39 -35 -23 -16 7 -25
19 -25 35 0 14 -6 23 -16 23 -10 0 -14 7 -12 23 2 15 9 21 21 19 18 -3 22 6 9
23 -12 17 -34 17 -53 -1 -24 -22 -24 -36 1 -52 26 -16 25 -30 -5 -62 -21 -22
-26 -38 -28 -87 -2 -64 8 -90 24 -60 18 32 94 10 94 -27 0 -11 6 -21 13 -23 6
-3 12 3 12 11 0 9 7 19 15 22 8 4 15 14 15 25 0 10 7 22 16 27 12 7 14 14 7
26 -8 15 -11 15 -28 -4 -25 -28 -35 -25 -35 9 0 28 20 46 46 42 6 -1 19 10 29
25 12 18 20 23 27 16 7 -7 17 -7 30 1 16 10 21 9 29 -5 6 -10 16 -18 24 -18
11 0 12 -7 4 -32 -10 -37 -5 -46 16 -28 9 7 19 10 23 6 4 -4 0 -13 -9 -19 -21
-16 -13 -37 13 -37 19 0 47 -25 48 -42 0 -4 -8 -7 -17 -7 -104 0 -113 -2 -103
-22 12 -21 -2 -58 -23 -60 -7 -1 -19 -3 -27 -4 -8 -1 -20 -3 -26 -4 -7 0 -14
-10 -17 -21 -6 -23 -45 -28 -65 -8 -9 9 -12 9 -12 0 0 -17 -37 -15 -43 2 -6
15 -111 20 -138 6 -10 -6 -24 -3 -40 8 -14 10 -47 17 -86 18 -70 2 -85 -10
-24 -20 22 -3 46 -13 54 -21 10 -9 26 -12 50 -8 28 4 37 1 50 -17 12 -18 21
-20 52 -14 30 5 37 4 33 -7 -2 -8 -19 -15 -37 -17 -18 -2 -35 -10 -38 -17 -6
-18 -59 -45 -85 -45 -11 0 -31 -9 -45 -20 -14 -11 -35 -20 -46 -20 -26 0 -117
-33 -117 -42 0 -13 33 -9 90 11 40 14 60 17 73 9 15 -7 22 -5 33 10 9 13 30
21 66 25 29 4 58 12 63 19 6 7 17 15 25 17 105 25 137 36 151 53 13 16 22 19
50 13 19 -4 39 -12 46 -17 8 -6 18 -6 29 0 11 6 25 5 43 -4 14 -8 39 -14 54
-14 16 0 30 -7 34 -16 3 -8 12 -13 19 -10 43 16 50 -33 12 -86 -12 -17 -17
-36 -13 -48 7 -23 20 -26 32 -7 4 6 17 17 28 23 17 10 20 20 18 67 -1 32 2 59
8 63 6 3 97 6 202 5 106 0 230 4 277 10 47 5 117 14 155 18 102 12 195 33 195
44 0 5 11 6 24 3 32 -8 99 50 75 65 -10 6 -19 3 -31 -11 -9 -11 -21 -20 -27
-20 -6 0 -25 -6 -43 -14 -119 -49 -183 -56 -546 -60 -305 -3 -306 -2 -317 64
-4 22 -11 42 -16 46 -23 14 5 84 34 84 4 0 26 12 50 27 58 38 79 51 97 60 19
9 160 108 180 126 34 30 77 55 100 58 14 1 45 -7 69 -19 25 -12 53 -22 62 -22
10 0 21 -4 24 -10 3 -5 13 -10 21 -10 8 0 36 -9 62 -21 26 -11 63 -27 82 -35
56 -24 91 -45 147 -89 51 -38 53 -42 53 -87 0 -45 11 -61 25 -38 3 6 17 7 30
4 12 -3 26 -1 29 5 4 6 3 11 -3 11 -5 0 -22 5 -37 10 -21 8 -24 14 -16 22 7 7
12 22 12 34 0 12 7 27 15 34 11 9 12 16 4 26 -6 7 -9 38 -8 68 2 39 -2 61 -13
73 -8 10 -18 31 -22 46 -9 39 -29 23 -21 -16 4 -18 11 -36 16 -41 12 -14 11
-163 -1 -171 -6 -3 -13 0 -16 8 -10 28 -204 147 -238 147 -8 0 -27 6 -43 14
-58 29 -162 66 -186 66 -33 0 -16 29 51 89 75 67 127 147 112 171 -7 11 -10 8
-10 -12 0 -18 -5 -28 -15 -28 -8 0 -15 -6 -15 -14 0 -22 -177 -176 -211 -183
-18 -3 -29 -12 -29 -22 0 -16 -48 -61 -88 -85 -16 -9 -56 -42 -84 -68 -10 -10
-27 -18 -38 -18 -11 0 -20 -4 -20 -8 0 -5 -10 -14 -22 -21 -13 -6 -36 -20 -53
-31 -94 -60 -121 -64 -128 -17 -2 17 -15 57 -27 87 -23 59 -34 97 -55 200 -11
59 -11 66 5 80 16 15 15 16 -3 31 -31 24 -15 55 34 63 22 3 48 10 57 15 28 14
85 33 114 38 15 3 33 11 39 19 15 18 53 18 69 -1 22 -26 71 -19 100 16 22 27
37 33 117 48 122 23 184 16 224 -27 24 -25 36 -31 55 -26 14 4 24 2 24 -4 0
-6 8 -13 18 -16 42 -14 222 -210 222 -242 0 -18 15 -18 30 1 11 13 7 21 -24
51 -20 19 -36 39 -36 44 0 5 -20 28 -45 51 -25 23 -45 51 -45 61 0 13 -8 18
-31 18 -25 0 -33 6 -42 30 -8 21 -18 30 -34 30 -29 0 -93 38 -93 56 0 9 -9 14
-22 13 -13 -2 -42 6 -66 16 -35 15 -41 22 -36 39 5 17 4 19 -7 9 -7 -7 -23
-13 -36 -13 -29 0 -29 -7 0 -30 l22 -18 -25 -5 c-14 -3 -56 -12 -95 -20 -61
-14 -74 -14 -99 -1 -38 19 -39 18 -76 -13 -18 -14 -60 -36 -93 -48 -34 -12
-91 -32 -126 -44 -35 -12 -73 -21 -85 -19 -29 4 -33 43 -7 60 31 19 27 59 -9
93 -16 16 -30 34 -30 40 0 14 -38 50 -62 58 -11 4 -22 0 -28 -11z m70 -75 c23
-37 17 -51 -12 -34 -40 22 -61 46 -55 61 9 22 46 8 67 -27z m-60 -127 c0 -5
-2 -10 -4 -10 -3 0 -8 5 -11 10 -3 6 -1 10 4 10 6 0 11 -4 11 -10z m40 -20 c0
-5 -4 -10 -10 -10 -5 0 -10 5 -10 10 0 6 5 10 10 10 6 0 10 -4 10 -10z m65
-580 c3 -5 1 -10 -4 -10 -6 0 -11 5 -11 10 0 6 2 10 4 10 3 0 8 -4 11 -10z
m80 -81 c5 -22 3 -27 -17 -32 -41 -9 -83 -3 -83 13 0 17 76 63 87 52 3 -4 9
-19 13 -33z"/>
<path d="M3580 3251 c0 -5 9 -13 20 -16 11 -3 20 -11 20 -16 0 -5 7 -9 15 -9
8 0 15 5 15 10 0 6 -6 10 -14 10 -7 0 -19 7 -26 15 -14 17 -30 20 -30 6z"/>
<path d="M3350 3209 c0 -5 5 -7 10 -4 6 3 10 8 10 11 0 2 -4 4 -10 4 -5 0 -10
-5 -10 -11z"/>
<path d="M3310 3185 c0 -9 6 -12 15 -9 8 4 12 10 9 15 -8 14 -24 10 -24 -6z"/>
<path d="M3675 3185 c11 -8 25 -19 32 -25 7 -5 18 -10 25 -10 7 0 0 11 -17 25
-16 13 -37 24 -45 24 -11 0 -10 -3 5 -14z"/>
<path d="M3466 3141 c-4 -7 -5 -15 -2 -18 9 -9 19 4 14 18 -4 11 -6 11 -12 0z"/>
<path d="M3750 3130 c0 -5 5 -10 11 -10 5 0 7 5 4 10 -3 6 -8 10 -11 10 -2 0
-4 -4 -4 -10z"/>
<path d="M3420 3110 c-20 -12 -5 -24 16 -12 9 5 12 12 7 15 -5 3 -15 2 -23 -3z"/>
<path d="M3785 3100 c3 -5 8 -10 11 -10 2 0 4 5 4 10 0 6 -5 10 -11 10 -5 0
-7 -4 -4 -10z"/>
<path d="M1340 3071 c0 -6 -18 -21 -41 -34 -28 -17 -37 -27 -28 -32 7 -5 17
-1 24 8 7 10 17 17 24 17 6 0 14 7 17 15 4 8 15 15 25 15 10 0 19 5 19 10 0 6
-9 10 -20 10 -11 0 -20 -4 -20 -9z"/>
<path d="M3550 3070 c0 -13 11 -13 30 0 12 8 11 10 -7 10 -13 0 -23 -4 -23
-10z"/>
<path d="M3820 3065 c7 -8 16 -15 21 -15 5 0 6 7 3 15 -4 8 -13 15 -21 15 -13
0 -13 -3 -3 -15z"/>
<path d="M3510 3050 c-8 -5 -12 -12 -9 -15 8 -8 39 5 39 16 0 11 -11 11 -30
-1z"/>
<path d="M1240 2990 c-8 -5 -12 -11 -9 -14 2 -3 11 -1 19 4 8 5 12 11 9 14 -2
3 -11 1 -19 -4z"/>
<path d="M3675 2990 c-19 -8 -19 -9 3 -9 12 -1 22 4 22 9 0 6 -1 10 -2 9 -2 0
-12 -4 -23 -9z"/>
<path d="M1375 2955 c-22 -8 -48 -15 -58 -15 -19 0 -82 -29 -75 -35 3 -2 123
21 123 25 0 8 179 14 443 14 243 1 322 4 322 13 0 19 -702 17 -755 -2z"/>
<path d="M3623 2963 c-13 -2 -23 -10 -23 -18 0 -10 5 -11 25 -2 14 7 25 15 25
20 0 4 -1 6 -2 6 -2 -1 -13 -4 -25 -6z"/>
<path d="M2207 2943 c-3 -5 0 -19 5 -33 9 -23 10 -24 19 -7 16 28 -8 67 -24
40z"/>
<path d="M1135 2883 c-40 -56 -85 -146 -85 -171 0 -10 -5 -23 -12 -30 -14 -14
-16 -165 -2 -184 5 -7 18 -39 29 -70 10 -32 22 -58 27 -58 12 0 10 25 -7 56
-8 16 -15 39 -15 51 0 12 -4 25 -10 28 -22 14 0 204 26 226 11 9 16 6 24 -15
5 -14 37 -46 71 -71 33 -24 71 -59 83 -77 21 -32 24 -33 95 -33 81 0 97 8 48
24 -22 8 -36 21 -44 42 l-12 32 -59 -7 c-57 -6 -59 -6 -89 28 -17 18 -40 40
-50 48 -24 18 -43 53 -43 81 0 28 56 97 79 97 9 0 22 5 29 12 8 8 5 14 -15 25
-14 7 -27 13 -29 13 -2 0 -19 -21 -39 -47z"/>
<path d="M3775 2900 c-4 -6 5 -10 20 -10 15 0 24 4 20 10 -3 6 -12 10 -20 10
-8 0 -17 -4 -20 -10z"/>
<path d="M2295 2889 c-9 -13 3 -59 15 -59 5 0 12 5 15 10 9 15 25 12 25 -5 0
-9 9 -15 25 -15 29 0 33 24 10 54 -12 16 -17 17 -31 5 -14 -11 -18 -11 -29 4
-14 20 -21 21 -30 6z"/>
<path d="M2588 2893 c7 -3 16 -2 19 1 4 3 -2 6 -13 5 -11 0 -14 -3 -6 -6z"/>
<path d="M3880 2891 c0 -4 9 -20 20 -34 11 -14 20 -38 20 -54 0 -31 16 -53 37
-53 21 0 15 38 -7 50 -11 6 -19 16 -18 23 3 14 -33 77 -44 77 -4 0 -8 -4 -8
-9z"/>
<path d="M2640 2871 c14 -9 77 -15 110 -11 11 1 9 4 -5 10 -27 12 -125 12
-105 1z"/>
<path d="M3715 2870 c-4 -6 5 -10 19 -10 14 0 26 5 26 10 0 6 -9 10 -19 10
-11 0 -23 -4 -26 -10z"/>
<path d="M2230 2849 c0 -19 35 -58 53 -59 13 0 7 28 -8 34 -8 3 -15 15 -15 26
0 11 -7 20 -15 20 -9 0 -15 -9 -15 -21z"/>
<path d="M2790 2841 c0 -4 17 -11 38 -14 20 -3 46 -8 57 -12 16 -6 15 -3 -5
14 -25 20 -90 29 -90 12z"/>
<path d="M3654 2838 c-3 -4 4 -8 15 -8 12 0 21 4 21 8 0 5 -7 9 -15 9 -9 0
-18 -4 -21 -9z"/>
<path d="M2415 2805 c-5 -11 -19 -30 -32 -42 -24 -23 -30 -43 -14 -43 17 0 63
68 58 87 -4 17 -5 16 -12 -2z"/>
<path d="M4030 2813 c0 -4 5 -15 10 -23 8 -13 10 -13 10 2 0 9 -4 20 -10 23
-5 3 -10 3 -10 -2z"/>
<path d="M2084 2789 c-8 -14 11 -33 25 -25 6 4 11 14 11 22 0 16 -26 19 -36 3z"/>
<path d="M2990 2790 c0 -5 10 -10 23 -10 18 0 19 2 7 10 -19 13 -30 13 -30 0z"/>
<path d="M1970 2735 c-30 -19 -60 -38 -65 -42 -6 -4 -28 -17 -50 -28 -22 -11
-75 -47 -118 -80 -93 -72 -134 -95 -165 -95 -14 0 -21 -4 -16 -11 6 -10 -100
-119 -115 -119 -15 0 -101 -108 -101 -128 0 -19 9 -12 54 40 30 35 63 71 75
80 132 110 133 110 172 105 38 -5 38 -5 23 18 -17 27 -21 23 97 100 46 30 89
59 96 64 7 6 14 11 17 11 3 0 25 14 50 30 24 17 60 37 79 45 18 7 39 21 47 29
23 29 -21 18 -80 -19z"/>
<path d="M2285 2750 c-3 -11 -3 -25 0 -30 10 -16 35 8 35 31 0 25 -27 24 -35
-1z"/>
<path d="M3850 2750 c0 -13 11 -13 30 0 12 8 11 10 -7 10 -13 0 -23 -4 -23
-10z"/>
<path d="M3970 2733 c0 -19 11 -43 21 -43 13 0 11 14 -6 36 -8 10 -15 14 -15
7z"/>
<path d="M3775 2720 c-3 -5 3 -10 14 -10 11 0 23 5 26 10 3 6 -3 10 -14 10
-11 0 -23 -4 -26 -10z"/>
<path d="M3718 2693 c7 -3 16 -2 19 1 4 3 -2 6 -13 5 -11 0 -14 -3 -6 -6z"/>
<path d="M2102 2645 c0 -16 2 -22 5 -12 2 9 2 23 0 30 -3 6 -5 -1 -5 -18z"/>
<path d="M3998 2618 c-5 -46 7 -83 23 -72 11 6 2 93 -11 107 -4 5 -10 -11 -12
-35z"/>
<path d="M655 2640 c3 -5 25 -10 48 -10 31 0 38 3 27 10 -20 13 -83 13 -75 0z"/>
<path d="M2438 2585 c-6 -14 -15 -25 -20 -25 -4 0 -8 -8 -8 -17 1 -17 1 -17
14 0 7 9 18 17 25 17 6 0 11 11 11 25 0 14 -2 25 -5 25 -3 0 -11 -11 -17 -25z"/>
<path d="M3958 2573 c7 -3 16 -2 19 1 4 3 -2 6 -13 5 -11 0 -14 -3 -6 -6z"/>
<path d="M1470 2520 c20 -13 53 -13 45 0 -3 6 -18 10 -33 10 -21 0 -24 -2 -12
-10z"/>
<path d="M2455 2521 c-3 -5 -1 -12 5 -16 12 -7 30 2 30 16 0 12 -27 12 -35 0z"/>
<path d="M4012 2478 c-3 -73 -9 -88 -38 -88 -30 0 -31 -11 -3 -28 38 -24 50 2
46 94 -2 64 -3 68 -5 22z"/>
<path d="M2386 2505 c-3 -8 -1 -15 4 -15 6 0 10 7 10 15 0 8 -2 15 -4 15 -2 0
-6 -7 -10 -15z"/>
<path d="M2072 2490 c0 -14 2 -19 5 -12 2 6 2 18 0 25 -3 6 -5 1 -5 -13z"/>
<path d="M700 2490 c0 -5 9 -10 19 -10 11 0 23 5 26 10 4 6 -5 10 -19 10 -14
0 -26 -4 -26 -10z"/>
<path d="M2148 2463 c-24 -6 -23 -40 1 -53 29 -15 31 -13 31 25 0 19 -3 34 -7
34 -5 -1 -16 -3 -25 -6z"/>
<path d="M2210 2461 c0 -14 18 -23 31 -15 8 4 7 9 -2 15 -18 11 -29 11 -29 0z"/>
<path d="M2412 2454 c4 -21 22 -23 26 -1 2 10 -3 17 -13 17 -10 0 -15 -6 -13
-16z"/>
<path d="M1735 2430 c17 -4 39 -8 50 -9 16 -1 17 1 5 9 -8 5 -31 9 -50 9 l-35
-1 30 -8z"/>
<path d="M1848 2403 c7 -3 16 -2 19 1 4 3 -2 6 -13 5 -11 0 -14 -3 -6 -6z"/>
<path d="M3818 2403 c6 -2 18 -2 25 0 6 3 1 5 -13 5 -14 0 -19 -2 -12 -5z"/>
<path d="M3660 2350 c0 -5 12 -10 28 -9 24 0 25 1 7 9 -27 12 -35 12 -35 0z"/>
<path d="M845 2338 c-16 -5 -43 -16 -58 -24 -16 -8 -41 -14 -57 -14 -16 0 -31
-4 -34 -8 -13 -22 182 16 208 40 20 18 19 18 -5 17 -13 -1 -37 -6 -54 -11z"/>
<path d="M1110 2341 c0 -5 5 -13 10 -16 6 -3 10 -2 10 4 0 5 -4 13 -10 16 -5
3 -10 2 -10 -4z"/>
<path d="M3980 2316 c-5 -15 -7 -33 -3 -39 4 -7 10 3 14 23 9 43 3 52 -11 16z"/>
<path d="M3738 2313 c6 -2 18 -2 25 0 6 3 1 5 -13 5 -14 0 -19 -2 -12 -5z"/>
<path d="M1140 2301 c0 -5 5 -13 10 -16 6 -3 10 -2 10 4 0 5 -4 13 -10 16 -5
3 -10 2 -10 -4z"/>
<path d="M3795 2290 c3 -5 13 -10 21 -10 8 0 12 5 9 10 -3 6 -13 10 -21 10 -8
0 -12 -4 -9 -10z"/>
<path d="M3514 2258 c-16 -12 -50 -40 -75 -62 -26 -23 -58 -49 -73 -59 -32
-22 -33 -37 -3 -37 14 -1 35 -18 60 -50 21 -28 43 -50 49 -50 6 0 -4 14 -21
32 -17 17 -33 40 -37 50 -3 10 -10 18 -15 18 -34 0 19 58 61 67 19 3 30 12 30
23 0 19 40 60 58 60 7 0 12 7 12 15 0 21 -12 19 -46 -7z"/>
<path d="M1165 2260 c3 -5 15 -15 26 -21 18 -9 19 -9 7 10 -7 12 -19 21 -26
21 -7 0 -10 -4 -7 -10z"/>
<path d="M3855 2260 c3 -5 18 -10 33 -10 21 0 24 2 12 10 -20 13 -53 13 -45 0z"/>
<path d="M955 2230 c-4 -6 6 -10 24 -10 16 0 33 5 36 10 4 6 -6 10 -24 10 -16
0 -33 -4 -36 -10z"/>
<path d="M3570 2237 c0 -2 14 -13 31 -26 l31 -23 -17 26 c-10 14 -24 26 -31
26 -8 0 -14 -1 -14 -3z"/>
<path d="M900 2200 c0 -5 6 -10 14 -10 8 0 18 5 21 10 3 6 -3 10 -14 10 -12 0
-21 -4 -21 -10z"/>
<path d="M1230 2200 c0 -5 5 -10 11 -10 5 0 7 5 4 10 -3 6 -8 10 -11 10 -2 0
-4 -4 -4 -10z"/>
<path d="M4041 2194 c0 -11 3 -14 6 -6 3 7 2 16 -1 19 -3 4 -6 -2 -5 -13z"/>
<path d="M2355 2190 c3 -5 8 -10 11 -10 2 0 4 5 4 10 0 6 -5 10 -11 10 -5 0
-7 -4 -4 -10z"/>
<path d="M1301 2159 c-7 -16 -12 -32 -10 -33 2 -2 21 -6 41 -10 l38 -7 -12 28
c-12 26 -32 53 -40 53 -2 0 -9 -14 -17 -31z"/>
<path d="M3650 2180 c0 -5 5 -10 11 -10 5 0 7 5 4 10 -3 6 -8 10 -11 10 -2 0
-4 -4 -4 -10z"/>
<path d="M830 2170 c0 -5 6 -10 14 -10 8 0 18 5 21 10 3 6 -3 10 -14 10 -12 0
-21 -4 -21 -10z"/>
<path d="M2221 2154 c0 -11 3 -14 6 -6 3 7 2 16 -1 19 -3 4 -6 -2 -5 -13z"/>
<path d="M778 2153 c-10 -2 -18 -9 -18 -14 0 -15 43 -7 48 9 4 12 0 13 -30 5z"/>
<path d="M3516 2129 c59 -67 116 -121 122 -115 3 4 -20 32 -51 63 -31 31 -57
60 -57 65 0 4 -7 8 -17 8 -14 0 -14 -3 3 -21z"/>
<path d="M3695 2140 c3 -5 10 -10 16 -10 5 0 9 5 9 10 0 6 -7 10 -16 10 -8 0
-12 -4 -9 -10z"/>
<path d="M2197 2133 c-4 -3 -7 -11 -7 -17 0 -6 5 -5 12 2 6 6 9 14 7 17 -3 3
-9 2 -12 -2z"/>
<path d="M2414 2126 c-4 -11 -1 -21 7 -27 17 -11 26 18 10 34 -7 7 -12 5 -17
-7z"/>
<path d="M2480 2124 c0 -7 8 -10 20 -7 11 3 20 9 20 14 0 4 -9 7 -20 6 -11 -1
-20 -7 -20 -13z"/>
<path d="M1721 2121 c-7 -5 -12 -13 -10 -18 5 -12 89 5 89 18 0 11 -60 12 -79
0z"/>
<path d="M2022 2118 c-7 -7 -12 -18 -12 -25 0 -7 -11 -19 -25 -25 -36 -16 -31
-24 15 -20 34 4 40 8 40 27 0 13 5 25 11 27 7 2 6 8 -3 16 -11 9 -17 9 -26 0z"/>
<path d="M2104 2112 c-4 -12 -15 -24 -25 -27 -25 -8 -24 -31 1 -38 11 -3 20
-12 20 -20 0 -13 6 -14 32 -7 17 5 42 7 55 4 31 -8 54 2 47 20 -4 11 -14 13
-35 9 -22 -4 -29 -2 -29 11 0 9 -5 16 -11 16 -5 0 -8 -4 -5 -9 11 -18 -18 -30
-38 -15 -17 12 -18 17 -6 39 7 14 10 28 6 32 -4 4 -9 -3 -12 -15z"/>
<path d="M3730 2124 c0 -8 32 -33 43 -34 5 0 5 4 2 10 -8 13 -45 33 -45 24z"/>
<path d="M3270 2080 c-30 -16 -62 -32 -70 -35 -8 -3 -28 -13 -43 -21 -16 -7
-34 -14 -42 -14 -7 0 -18 -7 -25 -15 -7 -8 -24 -15 -39 -15 -15 0 -31 -4 -36
-9 -6 -5 -32 -14 -60 -20 -27 -6 -81 -17 -120 -26 -113 -25 -177 -35 -222 -35
-23 0 -54 -5 -70 -11 -16 -7 -76 -11 -138 -10 -136 2 -429 28 -472 42 -18 6
-51 11 -74 11 -24 0 -49 7 -57 14 -7 8 -26 14 -42 14 -16 0 -36 3 -46 7 -11 4
-15 2 -12 -7 2 -8 31 -20 64 -27 32 -7 77 -18 99 -23 57 -14 141 -28 205 -34
30 -3 91 -9 135 -14 223 -23 639 26 803 94 18 8 39 14 47 14 9 0 23 4 33 9 9
4 43 20 75 35 31 14 57 30 57 34 0 5 14 7 30 4 17 -2 30 -10 30 -18 0 -7 5
-16 11 -19 7 -5 8 5 3 30 -6 32 -4 37 15 42 11 3 21 12 21 19 0 8 -1 14 -2 13
-2 0 -28 -13 -58 -29z"/>
<path d="M1218 2052 c-48 -47 -57 -62 -38 -62 6 0 10 6 10 13 0 8 11 19 24 26
25 14 73 71 59 71 -4 0 -29 -22 -55 -48z"/>
<path d="M1375 2066 c0 -32 1 -33 17 -19 14 13 23 13 55 3 21 -7 42 -16 48
-21 11 -11 45 -12 45 -1 0 28 -46 50 -140 69 -23 4 -25 2 -25 -31z"/>
<path d="M1597 2093 c-9 -2 -15 -9 -12 -14 9 -14 69 -11 91 6 18 13 16 14 -21
14 -22 -1 -48 -3 -58 -6z"/>
<path d="M2691 2077 c-12 -30 -54 -45 -75 -28 -11 9 -15 7 -19 -9 -4 -16 -13
-20 -51 -20 -25 0 -46 5 -46 10 0 15 -19 12 -36 -5 -20 -20 -26 -19 -54 5 -29
25 -50 26 -50 2 0 -28 21 -42 61 -42 37 0 74 -23 64 -40 -12 -20 30 -28 75
-14 25 7 88 25 140 40 104 29 120 38 120 64 0 20 -19 30 -58 30 -14 0 -34 7
-43 16 -17 16 -19 15 -28 -9z"/>
<path d="M2303 2055 c0 -22 2 -30 4 -17 2 12 2 30 0 40 -3 9 -5 -1 -4 -23z"/>
<path d="M955 2060 c-3 -5 3 -10 14 -10 11 0 23 5 26 10 3 6 -3 10 -14 10 -11
0 -23 -4 -26 -10z"/>
<path d="M908 2023 c7 -3 16 -2 19 1 4 3 -2 6 -13 5 -11 0 -14 -3 -6 -6z"/>
<path d="M1336 1988 c-22 -44 -20 -48 9 -14 26 30 31 46 16 46 -5 0 -17 -14
-25 -32z"/>
<path d="M1950 2010 c0 -5 7 -10 16 -10 8 0 12 5 9 10 -3 6 -10 10 -16 10 -5
0 -9 -4 -9 -10z"/>
<path d="M1555 2000 c3 -5 14 -10 23 -10 9 0 26 -7 36 -15 22 -17 76 -20 76
-5 0 6 -11 10 -25 10 -14 0 -42 7 -62 15 -41 17 -57 19 -48 5z"/>
<path d="M3655 1990 c3 -5 8 -10 11 -10 2 0 4 5 4 10 0 6 -5 10 -11 10 -5 0
-7 -4 -4 -10z"/>
<path d="M1127 1959 c-16 -16 -22 -29 -15 -29 13 1 53 48 46 55 -1 1 -16 -10
-31 -26z"/>
<path d="M3310 1975 c0 -8 5 -15 10 -15 6 0 10 7 10 15 0 8 -4 15 -10 15 -5 0
-10 -7 -10 -15z"/>
<path d="M2093 1974 c3 -3 22 -9 41 -14 28 -6 36 -5 36 6 0 10 -13 14 -42 14
-23 0 -39 -3 -35 -6z"/>
<path d="M3510 1948 c1 -19 25 -48 41 -48 10 1 9 4 -3 14 -10 7 -18 18 -18 24
0 6 -4 14 -10 17 -5 3 -10 0 -10 -7z"/>
<path d="M1470 1940 c0 -5 11 -10 25 -10 14 0 25 5 25 10 0 6 -11 10 -25 10
-14 0 -25 -4 -25 -10z"/>
<path d="M2273 1943 c9 -2 23 -2 30 0 6 3 -1 5 -18 5 -16 0 -22 -2 -12 -5z"/>
<path d="M3340 1935 c0 -8 5 -15 10 -15 6 0 10 7 10 15 0 8 -4 15 -10 15 -5 0
-10 -7 -10 -15z"/>
<path d="M3820 1915 c-36 -38 -35 -48 2 -15 13 10 32 26 43 34 16 12 17 15 4
16 -8 0 -30 -16 -49 -35z"/>
<path d="M1537 1923 c-4 -3 -7 -17 -7 -30 0 -19 -6 -23 -32 -24 -18 -1 -41 -2
-50 -3 -10 -1 -19 -5 -20 -11 -5 -16 78 -18 94 -2 8 8 23 17 34 19 23 4 31 37
12 49 -16 11 -23 11 -31 2z"/>
<path d="M3172 1918 l-23 -11 30 -13 c21 -9 33 -23 38 -45 11 -42 33 -50 33
-12 0 28 -33 94 -47 92 -5 0 -18 -5 -31 -11z"/>
<path d="M1070 1905 c-19 -23 -8 -25 14 -4 11 11 15 19 9 19 -6 0 -16 -7 -23
-15z"/>
<path d="M1285 1900 c-3 -5 -1 -10 4 -10 6 0 11 5 11 10 0 6 -2 10 -4 10 -3 0
-8 -4 -11 -10z"/>
<path d="M3360 1903 c1 -18 18 -35 24 -24 4 6 4 16 1 21 -7 12 -25 13 -25 3z"/>
<path d="M1638 1874 c-16 -8 -28 -23 -28 -34 0 -11 -4 -20 -10 -20 -6 0 -6 -9
-1 -22 12 -33 45 -30 49 4 2 14 10 32 18 38 14 13 20 50 7 50 -5 -1 -20 -8
-35 -16z"/>
<path d="M3057 1873 c-42 -22 -22 -35 21 -14 20 11 44 21 52 24 8 3 2 5 -15 5
-16 0 -42 -7 -58 -15z"/>
<path d="M1246 1846 c-11 -20 -16 -39 -13 -43 4 -3 7 1 7 10 0 9 7 20 16 25 9
5 14 17 13 26 -3 13 -9 8 -23 -18z"/>
<path d="M3394 1854 c3 -9 6 -18 6 -20 0 -3 4 -3 10 1 11 7 2 35 -12 35 -6 0
-7 -7 -4 -16z"/>
<path d="M3754 1855 c-10 -8 -14 -14 -9 -15 15 0 40 18 34 24 -3 3 -14 -1 -25
-9z"/>
<path d="M1858 1818 c-9 -30 7 -83 30 -93 35 -15 29 -39 -9 -31 -22 4 -29 2
-26 -7 2 -6 32 -17 68 -22 55 -9 66 -14 77 -38 15 -30 27 -35 36 -12 9 25 -4
45 -30 45 -18 0 -24 5 -24 23 0 29 -39 67 -68 67 -12 0 -22 4 -22 9 0 17 26
30 48 24 13 -3 22 -1 22 6 0 6 -14 11 -30 11 -18 0 -33 6 -36 15 -7 18 -30 20
-36 3z"/>
<path d="M2813 1779 c4 -28 11 -57 17 -64 8 -10 6 -15 -9 -20 -24 -7 -28 -25
-6 -25 9 0 18 -7 21 -15 10 -24 34 -18 34 9 0 14 -4 27 -9 30 -5 4 -5 18 2 36
9 24 8 32 -6 48 -9 10 -17 26 -17 35 0 9 -7 17 -16 17 -14 0 -16 -8 -11 -51z"/>
<path d="M3710 1820 c0 -5 4 -10 9 -10 6 0 13 5 16 10 3 6 -1 10 -9 10 -9 0
-16 -4 -16 -10z"/>
<path d="M1422 1801 c-20 -12 -11 -40 18 -55 14 -7 39 -21 57 -30 60 -31 135
-13 119 29 -8 21 -44 19 -42 -2 2 -26 -39 -28 -86 -6 -34 16 -37 21 -32 46 6
28 -7 35 -34 18z"/>
<path d="M1485 1800 c-3 -5 1 -10 10 -10 9 0 13 5 10 10 -3 6 -8 10 -10 10 -2
0 -7 -4 -10 -10z"/>
<path d="M3122 1784 c11 -22 10 -28 -7 -40 -17 -13 -16 -14 17 -14 20 0 39 4
42 9 10 15 -27 71 -46 71 -15 0 -16 -3 -6 -26z"/>
<path d="M3641 1779 c-24 -17 -54 -35 -65 -40 -12 -5 -43 -23 -71 -39 -27 -16
-57 -33 -65 -36 -8 -3 -29 -12 -47 -20 -17 -8 -38 -14 -46 -14 -8 0 -20 -7
-27 -15 -7 -8 -19 -15 -27 -15 -8 0 -29 -6 -46 -14 -53 -24 -254 -75 -372 -96
-27 -5 -70 -13 -95 -19 -25 -6 -70 -10 -100 -11 -31 0 -64 -6 -76 -14 -17 -12
-70 -14 -295 -12 -263 2 -306 6 -509 43 -146 26 -223 44 -378 90 -29 8 -56 13
-59 10 -9 -10 7 -27 26 -27 9 0 21 -4 27 -9 9 -9 96 -34 179 -50 22 -5 53 -13
68 -20 16 -6 44 -11 63 -11 20 0 45 -5 56 -11 30 -16 169 -30 383 -38 245 -9
503 6 655 38 30 7 89 19 130 28 41 8 84 21 95 28 11 7 40 16 65 20 24 4 51 11
60 15 32 17 101 40 120 40 11 0 20 -7 20 -16 0 -31 -134 -178 -212 -232 -24
-17 -63 -49 -88 -71 -25 -22 -51 -41 -57 -41 -14 0 -19 -20 -6 -20 16 0 148
98 201 149 31 29 66 60 79 68 13 9 23 21 23 29 0 7 13 23 29 35 16 11 35 33
42 47 20 37 96 112 114 112 8 0 15 4 15 9 0 5 12 12 26 15 14 4 44 19 67 34
23 14 57 35 76 45 19 10 41 25 48 33 8 8 19 14 24 14 5 0 9 5 9 10 0 16 -12
12 -59 -21z"/>
<path d="M2015 1786 c-12 -8 -20 -28 -21 -49 -2 -31 1 -36 24 -40 33 -7 50 7
33 27 -8 10 -9 16 -1 21 15 9 12 55 -3 55 -7 0 -22 -6 -32 -14z"/>
<path d="M2648 1788 c-8 -7 -18 -28 -22 -45 -4 -27 -1 -36 18 -48 13 -9 26
-25 29 -35 6 -25 14 -25 56 1 32 19 33 23 28 65 -2 24 -10 51 -17 59 -15 18
-70 20 -92 3z m75 -60 c7 -23 -4 -38 -29 -38 -19 0 -24 5 -24 25 0 20 5 25 24
25 13 0 26 -6 29 -12z"/>
<path d="M3270 1790 c0 -5 4 -10 9 -10 6 0 13 5 16 10 3 6 -1 10 -9 10 -9 0
-16 -4 -16 -10z"/>
<path d="M2415 1693 c2 -48 4 -94 4 -100 1 -7 8 -13 16 -13 10 0 15 10 15 29
0 17 5 33 10 36 15 10 12 42 -5 49 -11 4 -15 17 -13 43 2 28 -1 38 -14 41 -15
3 -16 -6 -13 -85z"/>
<path d="M3205 1770 c-3 -5 3 -10 14 -10 11 0 23 5 26 10 3 6 -3 10 -14 10
-11 0 -23 -4 -26 -10z"/>
<path d="M2321 1751 c-11 -7 -9 -11 8 -20 13 -7 21 -21 21 -36 0 -38 17 -30
25 11 8 47 -17 68 -54 45z"/>
<path d="M1828 1733 c7 -3 16 -2 19 1 4 3 -2 6 -13 5 -11 0 -14 -3 -6 -6z"/>
<path d="M3055 1710 c-3 -5 1 -10 9 -10 8 0 18 5 21 10 3 6 -1 10 -9 10 -8 0
-18 -4 -21 -10z"/>
<path d="M2267 1660 c-5 -24 -12 -30 -32 -30 -15 0 -24 -4 -20 -10 7 -11 148
-14 159 -3 4 4 -12 12 -36 18 -33 8 -44 15 -46 33 -5 31 -18 27 -25 -8z"/>
<path d="M2775 1680 c3 -5 8 -10 11 -10 2 0 4 5 4 10 0 6 -5 10 -11 10 -5 0
-7 -4 -4 -10z"/>
<path d="M2794 1356 c-28 -20 -30 -24 -18 -41 8 -10 14 -26 14 -36 0 -12 10
-18 35 -21 34 -4 40 1 36 30 -1 8 5 22 13 31 15 16 14 19 -9 29 -14 6 -25 16
-25 22 0 14 -11 11 -46 -14z"/>
<path d="M1750 1355 c-7 -8 -21 -15 -31 -15 -11 0 -19 -4 -19 -10 0 -5 5 -10
10 -10 6 0 10 -16 10 -35 0 -39 2 -40 30 -23 16 10 24 10 40 0 28 -17 30 -16
30 17 0 17 5 33 10 36 15 9 12 25 -4 25 -7 0 -19 7 -26 15 -7 8 -18 15 -25 15
-7 0 -18 -7 -25 -15z"/>
<path d="M1989 1321 c-23 -18 -23 -20 -6 -38 10 -12 17 -36 17 -61 0 -31 4
-42 15 -42 12 0 15 15 15 74 0 41 -4 77 -9 80 -5 3 -19 -3 -32 -13z"/>
<path d="M2147 1322 c-10 -10 -17 -24 -17 -31 0 -19 31 -61 46 -61 17 0 18 12
3 27 -6 6 -9 21 -7 34 2 18 9 24 28 24 30 0 39 -34 16 -58 -14 -13 -14 -16 -1
-27 25 -21 -1 -42 -43 -34 -27 5 -34 4 -30 -7 6 -19 78 -23 101 -7 26 19 28
109 3 137 -24 26 -77 28 -99 3z"/>
<path d="M2353 1323 c-13 -8 -23 -23 -23 -32 1 -24 35 -65 49 -57 9 6 9 11 1
21 -19 22 -8 60 18 63 33 5 48 -37 20 -60 -17 -16 -18 -19 -4 -24 21 -8 20
-31 -1 -42 -12 -7 -24 -5 -39 5 -15 9 -24 11 -29 4 -13 -21 8 -32 53 -29 53 4
72 27 72 90 0 66 -63 99 -117 61z"/>
<path d="M2556 1325 c-16 -12 -17 -18 -7 -28 10 -10 15 -8 25 6 15 19 41 23
51 7 4 -6 0 -23 -8 -39 -14 -27 -13 -30 5 -34 26 -7 20 -41 -9 -45 -12 -2 -33
4 -47 14 -25 16 -26 15 -26 -4 0 -11 7 -23 16 -26 29 -11 91 -6 103 8 16 19 3
127 -17 144 -21 16 -62 15 -86 -3z"/>
<path d="M2865 1175 c-16 -14 -25 -25 -18 -25 17 0 82 33 83 43 0 15 -36 5
-65 -18z"/>
<path d="M1790 1132 c0 -17 144 -70 208 -77 53 -6 56 -5 38 9 -11 9 -29 16
-40 16 -23 0 -147 40 -160 52 -12 10 -46 11 -46 0z"/>
<path d="M2766 1125 c-8 -8 -25 -15 -38 -15 -13 0 -36 -7 -52 -15 -15 -8 -39
-15 -53 -15 -13 0 -33 -4 -43 -10 -10 -5 -47 -13 -82 -16 -35 -3 -67 -10 -73
-16 -12 -12 115 -1 153 13 13 5 34 9 47 9 12 0 36 7 51 15 16 8 39 15 50 15
12 0 27 7 34 15 7 8 21 15 31 15 10 0 21 5 24 10 10 16 -32 12 -49 -5z"/>
<path d="M2088 1049 c-22 -5 -22 -6 -3 -12 30 -10 266 -15 300 -7 20 5 25 9
15 13 -20 8 -283 13 -312 6z"/>
<path d="M680 1003 c0 -10 -12 -53 -26 -96 -24 -73 -27 -77 -43 -63 -14 13
-43 16 -141 16 -181 0 -192 -9 -265 -216 -25 -70 -45 -137 -45 -151 0 -13 11
-35 25 -48 23 -24 30 -25 147 -25 88 1 130 5 148 15 32 18 41 18 34 0 -5 -13
9 -15 95 -15 100 0 101 0 101 24 0 14 43 145 95 292 52 147 95 271 95 276 0 4
-49 8 -110 8 -98 0 -110 -2 -110 -17z m-84 -236 c8 -23 -76 -246 -97 -258 -11
-5 -41 -9 -67 -7 -47 3 -47 3 -46 38 2 42 60 205 81 225 19 20 121 21 129 2z"/>
<path d="M1525 1008 c-3 -7 -11 -32 -19 -55 l-15 -43 104 0 c58 0 105 2 105 5
0 2 9 27 20 55 l20 50 -105 0 c-76 0 -107 -4 -110 -12z"/>
<path d="M3033 993 c-3 -10 -12 -33 -19 -52 -8 -18 -14 -35 -14 -37 0 -2 45
-4 101 -4 l100 0 13 33 c34 83 40 77 -74 77 -87 0 -101 -2 -107 -17z"/>
<path d="M3657 1003 c-4 -3 -7 -16 -7 -28 0 -20 -39 -145 -45 -145 -1 0 -16 7
-31 15 -19 10 -57 15 -109 15 -172 -1 -205 -26 -271 -211 -75 -210 -66 -224
126 -224 112 0 131 2 149 19 21 19 21 19 21 -2 0 -21 4 -22 95 -22 89 0 95 1
95 20 0 11 43 142 95 290 52 148 95 272 95 275 0 8 -206 6 -213 -2z m-88 -236
c15 -18 -60 -225 -90 -249 -21 -18 -73 -24 -103 -12 -23 9 -19 37 22 149 28
75 43 103 62 112 33 17 95 16 109 0z"/>
<path d="M965 837 c-48 -27 -73 -70 -120 -204 -41 -119 -44 -162 -14 -189 19
-17 41 -19 213 -22 l191 -3 23 47 c13 25 21 48 19 50 -2 2 -19 -1 -38 -6 -18
-6 -70 -10 -115 -10 -114 0 -116 4 -70 132 56 157 46 148 179 148 73 0 117 -4
125 -12 13 -13 17 -6 27 55 l6 37 -193 0 c-182 0 -195 -2 -233 -23z"/>
<path d="M1456 827 c-8 -40 -108 -322 -130 -365 -9 -17 -16 -33 -16 -37 0 -3
52 -5 115 -5 107 0 115 1 115 19 0 15 96 300 135 404 7 16 -2 17 -103 17
l-110 0 -6 -33z"/>
<path d="M1757 853 c-4 -3 -7 -16 -7 -28 0 -29 -105 -329 -131 -373 l-18 -32
113 0 114 0 6 33 c14 71 99 293 118 310 25 21 100 23 117 3 9 -10 0 -46 -40
-157 -28 -79 -58 -154 -66 -166 l-15 -23 116 0 c108 0 116 1 116 19 0 11 22
84 50 163 55 156 60 194 31 229 -18 23 -25 24 -144 24 -106 0 -128 -3 -145
-18 -19 -17 -20 -17 -25 3 -5 18 -13 20 -94 20 -49 0 -93 -3 -96 -7z"/>
<path d="M2499 850 c-86 -15 -125 -53 -159 -154 -42 -128 -24 -146 153 -146
65 0 117 -4 117 -9 0 -5 -7 -17 -16 -25 -20 -21 -230 -22 -286 -2 l-38 13 -6
-36 c-3 -20 -8 -44 -11 -54 -5 -18 6 -19 214 -15 l220 3 42 28 c73 49 137 220
96 260 -14 14 -38 17 -141 17 -117 0 -124 1 -124 20 0 13 9 22 26 26 42 11
251 -1 268 -15 13 -11 16 -7 21 26 4 21 7 45 8 53 2 13 -23 15 -168 16 -93 1
-191 -2 -216 -6z"/>
<path d="M2966 823 c-7 -48 -111 -339 -131 -370 -8 -12 -15 -25 -15 -28 0 -3
52 -5 115 -5 l115 0 0 25 c0 13 29 106 65 207 36 100 65 188 65 195 0 10 -24
13 -104 13 l-103 0 -7 -37z"/>
<path d="M3970 843 c-65 -16 -100 -62 -145 -188 -48 -135 -53 -173 -27 -205
l20 -25 226 -3 225 -3 26 52 c23 45 24 51 8 44 -27 -13 -285 -17 -302 -6 -12
7 -13 18 -5 48 l9 38 176 3 175 2 27 80 c32 93 33 120 10 149 -17 19 -30 21
-198 23 -112 2 -196 -1 -225 -9z m227 -75 c7 -9 6 -25 -2 -48 l-12 -35 -71 -3
c-40 -2 -72 -1 -72 2 0 22 35 86 48 89 36 10 100 6 109 -5z"/>
</g>
</svg>
