<?xml version="1.0" standalone="no"?>
<!DOCTYPE svg PUBLIC "-//W3C//DTD SVG 20010904//EN"
 "http://www.w3.org/TR/2001/REC-SVG-20010904/DTD/svg10.dtd">
<svg version="1.0" xmlns="http://www.w3.org/2000/svg"
 width="472.000000pt" height="400.000000pt" viewBox="0 0 472.000000 400.000000"
 preserveAspectRatio="xMidYMid meet">

<g transform="translate(0.000000,400.000000) scale(0.100000,-0.100000)"
fill="#000000" stroke="none">
<path d="M2258 3603 c17 -2 47 -2 65 0 17 2 3 4 -33 4 -36 0 -50 -2 -32 -4z"/>
<path d="M2413 3593 c9 -2 23 -2 30 0 6 3 -1 5 -18 5 -16 0 -22 -2 -12 -5z"/>
<path d="M1953 3583 c9 -2 23 -2 30 0 6 3 -1 5 -18 5 -16 0 -22 -2 -12 -5z"/>
<path d="M2588 3583 c12 -2 30 -2 40 0 9 3 -1 5 -23 4 -22 0 -30 -2 -17 -4z"/>
<path d="M1850 3570 c-9 -6 -10 -10 -3 -10 6 0 15 5 18 10 8 12 4 12 -15 0z"/>
<path d="M1980 3560 c14 -4 41 -8 60 -8 l35 0 -40 9 c-22 4 -49 8 -60 7 -16 0
-15 -2 5 -8z"/>
<path d="M2080 3567 c9 -8 550 -16 550 -9 0 4 -125 9 -277 10 -153 2 -275 1
-273 -1z"/>
<path d="M1768 3553 c7 -3 16 -2 19 1 4 3 -2 6 -13 5 -11 0 -14 -3 -6 -6z"/>
<path d="M1790 3540 c-11 -7 -1 -10 35 -10 36 0 46 3 35 10 -8 5 -24 10 -35
10 -11 0 -27 -5 -35 -10z"/>
<path d="M2053 3543 c-13 -2 -23 -9 -23 -15 0 -5 7 -7 16 -4 9 3 34 6 55 6 24
0 38 4 34 10 -6 10 -40 11 -82 3z"/>
<path d="M2405 3540 c-3 -6 1 -7 9 -4 18 7 21 14 7 14 -6 0 -13 -4 -16 -10z"/>
<path d="M2683 3543 c4 -3 35 -8 69 -9 43 -3 58 -1 48 6 -17 11 -127 14 -117
3z"/>
<path d="M1980 3530 c0 -5 5 -10 10 -10 6 0 10 5 10 10 0 6 -4 10 -10 10 -5 0
-10 -4 -10 -10z"/>
<path d="M2463 3533 c15 -2 39 -2 55 0 15 2 2 4 -28 4 -30 0 -43 -2 -27 -4z"/>
<path d="M2958 3523 c7 -3 16 -2 19 1 4 3 -2 6 -13 5 -11 0 -14 -3 -6 -6z"/>
<path d="M1643 3512 c-6 -4 9 -8 33 -9 24 -1 44 3 44 8 0 11 -60 12 -77 1z"/>
<path d="M1785 3510 c-14 -6 0 -9 45 -9 45 -1 60 2 50 9 -18 12 -68 12 -95 0z"/>
<path d="M2088 3513 c12 -2 30 -2 40 0 9 3 -1 5 -23 4 -22 0 -30 -2 -17 -4z"/>
<path d="M2453 3513 c9 -2 23 -2 30 0 6 3 -1 5 -18 5 -16 0 -22 -2 -12 -5z"/>
<path d="M2705 3510 c-4 -6 14 -10 47 -9 39 0 48 3 33 9 -28 12 -73 12 -80 0z"/>
<path d="M2845 3510 c3 -5 10 -10 16 -10 5 0 9 5 9 10 0 6 -7 10 -16 10 -8 0
-12 -4 -9 -10z"/>
<path d="M2915 3510 c11 -5 27 -9 35 -9 9 0 8 4 -5 9 -11 5 -27 9 -35 9 -9 0
-8 -4 5 -9z"/>
<path d="M1990 3500 c-20 -6 -21 -8 -5 -8 11 0 34 4 50 8 27 7 27 8 5 8 -14 0
-36 -4 -50 -8z"/>
<path d="M2550 3500 c25 -8 107 -13 99 -6 -2 2 -31 6 -64 9 -37 3 -51 2 -35
-3z"/>
<path d="M1908 3493 c6 -2 18 -2 25 0 6 3 1 5 -13 5 -14 0 -19 -2 -12 -5z"/>
<path d="M1650 3480 c-11 -7 -4 -10 28 -10 23 0 42 5 42 10 0 13 -50 13 -70 0z"/>
<path d="M2120 3478 c-27 -12 -87 -17 -219 -18 -19 0 -40 -5 -47 -11 -7 -6
-34 -12 -61 -14 -70 -5 -190 -31 -268 -57 -16 -5 -52 -16 -79 -23 -27 -8 -54
-19 -59 -24 -6 -6 -23 -11 -38 -11 -15 0 -40 -11 -56 -24 -15 -13 -49 -26 -74
-30 -36 -5 -49 -12 -57 -31 -7 -16 -20 -25 -34 -25 -42 0 -98 -33 -105 -62 -4
-23 -11 -28 -35 -28 -39 0 -88 -37 -88 -67 0 -13 5 -23 10 -23 6 0 10 -5 10
-10 0 -7 -6 -7 -19 0 -31 16 -53 12 -83 -17 -30 -29 -37 -63 -13 -63 8 0 15
-7 15 -15 0 -12 -8 -14 -37 -9 -34 5 -40 2 -60 -25 -26 -35 -22 -57 13 -65 13
-4 24 -11 24 -16 0 -15 -48 -12 -53 3 -14 38 -97 -85 -89 -131 3 -12 -2 -30
-10 -40 -9 -9 -18 -45 -21 -79 -6 -55 -4 -65 14 -82 17 -16 18 -19 5 -24 -9
-4 -16 -17 -16 -29 0 -36 29 -111 52 -135 12 -13 18 -29 14 -38 -7 -19 50
-115 69 -115 7 0 17 -13 23 -28 13 -39 71 -98 105 -106 17 -4 27 -13 27 -24 0
-17 32 -52 48 -52 4 -1 23 -14 42 -30 19 -17 42 -30 52 -30 10 0 21 -6 24 -14
3 -7 22 -22 42 -32 20 -10 45 -25 54 -33 10 -7 29 -11 43 -9 18 4 29 0 35 -12
9 -17 30 -27 150 -73 83 -33 143 -50 255 -77 269 -63 360 -73 660 -73 268 -1
481 18 568 49 20 8 55 14 77 14 21 0 41 4 44 9 3 4 29 11 57 15 28 4 58 11 67
16 10 5 44 18 77 29 60 19 90 31 150 57 17 7 44 18 62 24 18 7 35 21 38 31 5
14 12 18 26 14 20 -7 87 28 102 52 4 7 27 21 50 32 50 24 71 40 80 64 3 9 11
16 16 15 16 -5 91 56 97 79 3 12 14 25 24 28 10 3 25 16 34 29 8 14 27 36 41
52 14 15 25 39 25 54 0 15 9 35 19 44 26 24 36 4 17 -31 -9 -16 -18 -36 -22
-45 -3 -10 -10 -18 -15 -18 -5 0 -9 -6 -9 -12 0 -7 -14 -27 -30 -45 -17 -18
-30 -36 -30 -40 0 -9 -126 -133 -135 -133 -3 0 -31 -20 -62 -43 -89 -67 -216
-140 -318 -183 -16 -7 -46 -19 -65 -27 -34 -15 -148 -53 -240 -81 -53 -16
-166 -39 -300 -60 -362 -58 -842 -33 -1160 59 -123 35 -167 49 -185 56 -11 5
-42 17 -70 28 -132 51 -319 153 -410 225 -161 126 -298 310 -320 429 -4 20
-11 40 -16 43 -16 10 -10 232 7 288 31 95 48 131 93 201 44 68 181 215 200
215 5 0 11 4 13 9 5 15 101 86 140 104 38 18 58 37 38 37 -10 0 -51 -20 -60
-30 -3 -3 -30 -22 -60 -42 -77 -51 -161 -127 -218 -196 -134 -162 -189 -324
-175 -517 10 -156 103 -327 255 -471 63 -60 218 -174 237 -174 5 0 11 -7 15
-15 3 -8 14 -15 25 -15 11 0 22 -4 26 -9 7 -13 53 -36 145 -72 41 -17 87 -37
102 -45 14 -8 33 -14 42 -14 9 0 60 -14 114 -31 53 -17 111 -34 127 -40 46
-13 250 -46 340 -55 44 -4 91 -8 105 -10 148 -15 646 9 720 35 14 5 49 12 79
15 30 3 59 10 65 16 5 5 24 10 42 10 17 0 45 7 60 15 16 8 37 15 47 15 10 0
28 5 40 12 12 6 35 15 52 19 86 21 265 104 372 172 24 15 45 27 49 27 15 0
196 155 244 210 56 62 129 174 130 198 0 6 5 12 10 12 6 0 10 10 10 23 0 12 6
31 14 42 40 59 38 307 -4 400 -10 22 -27 60 -38 85 -23 53 -80 132 -139 196
-24 25 -43 50 -43 55 0 5 -5 9 -11 9 -6 0 -43 27 -83 60 -40 33 -79 60 -86 60
-7 0 9 -17 36 -37 27 -21 60 -47 74 -60 14 -12 35 -30 48 -41 31 -27 28 -38
-14 -38 -31 0 -35 2 -30 22 5 18 -3 28 -41 53 -25 17 -52 31 -60 31 -7 0 -13
6 -13 14 0 19 -44 46 -75 46 -14 0 -25 5 -25 11 0 20 -45 48 -87 55 -23 3 -44
13 -47 20 -7 19 -67 44 -105 44 -19 0 -40 9 -55 25 -14 14 -37 25 -52 25 -14
0 -38 6 -52 14 -44 22 -98 37 -115 30 -8 -3 -26 1 -39 10 -13 8 -63 22 -113
32 -154 28 -162 29 -177 5 -17 -27 -25 -27 -24 2 1 19 -5 22 -41 25 -23 2 -52
-2 -63 -8 -17 -9 -25 -8 -40 5 -25 22 -95 31 -124 15 -18 -9 -29 -9 -44 -1
-30 16 -87 14 -102 -4 -12 -14 -15 -14 -30 0 -19 17 -44 18 -80 3z m-65 -30
c19 -9 28 -9 37 0 17 17 93 15 108 -3 12 -14 15 -14 36 0 29 19 73 19 98 0 17
-13 23 -13 43 1 15 9 40 14 66 12 37 -3 42 -6 45 -30 4 -36 19 -35 58 3 24 23
37 29 53 24 13 -4 21 -14 19 -23 -3 -19 9 -42 21 -42 5 0 20 11 35 25 23 21
33 24 74 19 46 -5 194 -35 201 -40 7 -6 -63 -94 -79 -99 -10 -3 -30 -1 -45 5
-20 8 -25 14 -20 28 4 9 10 29 13 45 6 38 -14 35 -52 -9 l-32 -37 -89 14 c-57
8 -168 13 -302 12 -203 -1 -271 -7 -428 -38 -38 -8 -87 -17 -107 -20 -21 -3
-38 -10 -38 -15 0 -6 -15 -10 -33 -10 -18 0 -42 -7 -53 -15 -10 -8 -25 -15
-32 -15 -8 0 -30 -7 -50 -16 -21 -9 -53 -23 -72 -31 -89 -39 -109 -50 -175
-92 -38 -25 -77 -52 -86 -61 -8 -8 -33 -28 -54 -45 -123 -96 -205 -261 -205
-414 0 -83 4 -98 64 -221 29 -61 134 -181 183 -208 16 -10 4 -25 -108 -137
-141 -141 -129 -136 -206 -77 -38 28 -42 53 -10 68 77 36 170 91 177 104 5 9
5 22 0 30 -7 11 -16 11 -49 1 -23 -6 -41 -16 -41 -21 0 -6 -6 -10 -13 -10 -7
0 -30 -12 -52 -27 -22 -15 -55 -35 -73 -44 -32 -17 -33 -17 -72 15 -21 17 -38
36 -36 41 2 10 66 44 131 70 47 19 108 43 127 49 9 2 22 14 27 25 9 17 8 22
-10 31 -16 9 -28 8 -54 -4 -18 -9 -37 -16 -43 -16 -5 0 -15 -7 -22 -15 -7 -8
-21 -15 -30 -15 -10 0 -31 -6 -47 -14 -83 -40 -102 -48 -118 -44 -20 4 -63 73
-52 84 3 4 37 13 74 21 121 25 138 29 161 42 23 12 26 19 16 45 -8 20 -63 21
-90 1 -10 -8 -33 -15 -50 -15 -17 0 -48 -7 -69 -16 -67 -28 -97 -7 -107 72
l-6 41 52 11 c28 7 58 14 66 16 8 3 21 5 28 5 16 1 16 40 -1 46 -7 3 -40 2
-73 -3 -33 -4 -66 -6 -72 -4 -15 5 -16 48 -2 57 6 4 8 15 5 25 -7 21 31 31 91
23 29 -4 43 -1 53 10 10 13 8 18 -13 32 -14 9 -44 19 -66 22 -40 6 -41 7 -34
37 12 57 34 77 81 74 63 -3 76 16 35 50 -23 19 -31 33 -26 45 7 19 44 23 61 6
15 -15 53 6 53 31 0 10 -9 22 -20 25 -26 8 -25 14 6 49 23 26 26 27 43 12 37
-34 78 -5 51 37 -11 18 -9 23 11 38 28 21 41 23 56 8 6 -6 20 -8 32 -4 15 5
21 15 21 38 1 36 27 60 77 70 17 3 43 18 58 33 19 19 32 24 51 20 18 -5 30 0
49 20 16 17 38 28 67 31 24 3 51 14 61 24 10 11 30 19 45 19 16 0 37 7 48 15
10 8 37 15 59 15 22 0 49 7 59 15 12 9 41 15 71 15 28 0 55 4 60 9 6 5 39 12
75 15 95 10 103 10 121 2 10 -4 22 -1 30 7 12 12 20 16 46 26 1 1 14 -4 28
-11z m755 -82 c0 -3 -4 -8 -10 -11 -5 -3 -10 -1 -10 4 0 6 5 11 10 11 6 0 10
-2 10 -4z m148 -16 c-7 -11 -17 -20 -22 -20 -5 0 -1 9 9 20 10 11 20 20 22 20
2 0 -2 -9 -9 -20z m116 12 c3 -5 -12 -29 -34 -54 -35 -39 -43 -44 -74 -40 -40
5 -39 15 7 67 23 27 39 35 63 35 18 0 35 -4 38 -8z m-529 -37 c39 -3 96 -7
128 -10 35 -3 67 0 80 7 16 8 22 8 25 -1 13 -38 78 -54 122 -31 16 8 18 8 14
-5 -7 -16 -9 -15 95 -45 42 -12 70 -25 65 -30 -9 -9 -33 -4 -114 19 -34 10
-65 17 -200 47 -36 8 -90 14 -120 14 -31 0 -94 5 -140 11 -108 14 -91 14 -320
0 -107 -7 -203 -17 -213 -22 -9 -5 -45 -12 -79 -16 -34 -3 -73 -12 -88 -20
-14 -7 -34 -13 -45 -13 -22 0 -110 -31 -121 -43 -4 -4 -14 -7 -22 -7 -17 0
-66 -21 -144 -61 -59 -30 -78 -35 -78 -21 0 4 30 22 68 40 37 19 80 40 95 48
16 8 41 14 57 14 16 0 30 7 34 15 3 8 18 15 34 15 15 0 33 5 39 11 11 11 37
18 143 39 30 6 75 15 99 21 25 5 108 14 185 20 78 5 150 11 161 13 11 3 54 2
95 0 41 -3 107 -7 145 -9z m634 -1 l31 -16 -45 -45 c-43 -44 -46 -45 -75 -33
-20 8 -27 17 -22 25 8 15 71 85 76 85 1 0 17 -7 35 -16z m-89 -13 c0 -11 -51
-53 -57 -47 -5 5 40 56 50 56 4 0 7 -4 7 -9z m-775 -38 c-22 -3 -44 -8 -50
-13 -12 -9 -158 -50 -181 -50 -22 0 -64 -41 -64 -63 0 -25 18 -59 42 -78 18
-14 29 -72 16 -85 -3 -3 -26 0 -51 7 -32 8 -124 10 -299 6 -275 -6 -421 -18
-444 -38 -20 -17 -30 -3 -11 16 9 8 18 15 21 15 3 0 27 15 53 33 27 19 63 40
81 47 17 7 32 16 32 21 0 4 10 11 23 14 12 4 45 17 72 30 76 35 126 53 165 61
19 3 40 10 45 14 12 9 147 36 230 46 33 4 69 10 80 15 11 4 79 7 150 7 72 -1
112 -3 90 -5z m400 -17 c118 -19 206 -38 221 -48 6 -4 31 -10 55 -14 24 -4 52
-13 62 -20 18 -12 18 -12 0 -18 -26 -8 -112 -8 -155 -1 -33 6 -41 3 -74 -29
-24 -23 -47 -36 -64 -36 -15 0 -30 -3 -33 -6 -10 -10 -109 -43 -130 -44 -9 0
-26 -5 -37 -12 -27 -17 -39 0 -14 20 35 28 37 64 8 108 -15 22 -29 41 -33 44
-3 3 -22 23 -41 43 l-35 38 85 -4 c47 -2 130 -12 185 -21z m491 -3 c-14 -15
-28 -24 -31 -21 -9 9 27 48 43 48 8 0 3 -11 -12 -27z m127 13 c9 -7 17 -17 16
-22 -1 -18 -103 -84 -113 -74 -6 6 -18 10 -27 10 -34 0 -30 20 12 60 45 42 79
50 112 26z m-865 -39 c12 -11 22 -26 22 -32 0 -6 14 -24 30 -40 36 -34 40 -74
9 -93 -26 -17 -22 -56 7 -60 12 -2 50 7 85 19 35 12 92 32 126 44 33 12 75 34
93 48 37 31 38 32 76 13 25 -13 38 -13 99 1 39 8 81 17 95 20 l25 5 -22 18
c-29 23 -29 30 0 30 13 0 29 6 36 13 11 10 12 8 7 -9 -5 -17 1 -24 36 -39 24
-10 53 -18 66 -16 13 1 22 -4 22 -13 0 -18 64 -56 93 -56 16 0 26 -9 34 -30 9
-24 17 -30 42 -30 23 0 31 -5 31 -18 0 -10 20 -38 45 -61 25 -23 45 -46 45
-51 0 -5 16 -25 36 -44 31 -30 35 -38 24 -51 -15 -19 -30 -19 -30 -1 0 32
-180 228 -222 242 -10 3 -18 10 -18 16 0 6 -10 8 -24 4 -19 -5 -31 1 -55 26
-40 43 -102 50 -224 27 -80 -15 -95 -21 -117 -48 -29 -35 -78 -42 -100 -16
-16 19 -54 19 -69 1 -6 -8 -24 -16 -39 -19 -29 -5 -86 -24 -114 -38 -9 -5 -35
-12 -57 -15 -49 -8 -65 -39 -34 -63 18 -15 19 -16 3 -31 -16 -14 -16 -21 -5
-80 21 -103 32 -141 55 -200 12 -30 25 -70 27 -87 7 -47 34 -43 128 17 17 11
40 25 53 31 12 7 22 16 22 21 0 4 9 8 20 8 11 0 28 8 38 18 28 26 68 59 84 68
40 24 88 69 88 85 0 10 11 19 29 22 34 7 211 161 211 183 0 8 7 14 15 14 10 0
15 10 15 28 0 20 3 23 10 12 15 -24 -37 -104 -112 -171 -67 -60 -84 -89 -51
-89 24 0 128 -37 186 -66 16 -8 35 -14 43 -14 34 0 228 -119 238 -147 3 -8 10
-11 16 -8 12 8 13 157 1 171 -5 5 -12 23 -16 41 -8 39 12 55 21 16 4 -15 14
-36 22 -46 11 -12 15 -34 13 -73 -1 -30 2 -61 8 -68 8 -10 7 -17 -4 -26 -8 -7
-15 -22 -15 -34 0 -12 -5 -27 -12 -34 -8 -8 -5 -14 16 -22 15 -5 32 -10 37
-10 6 0 7 -5 3 -11 -3 -6 -17 -8 -29 -5 -13 3 -27 2 -30 -4 -14 -23 -25 -7
-25 38 0 45 -2 49 -53 87 -56 44 -91 65 -147 89 -19 8 -56 24 -82 35 -26 12
-54 21 -62 21 -8 0 -18 5 -21 10 -3 6 -14 10 -24 10 -9 0 -37 10 -62 22 -24
12 -55 20 -69 19 -23 -3 -66 -28 -100 -58 -20 -18 -161 -117 -180 -126 -18 -9
-39 -22 -97 -60 -24 -15 -46 -27 -50 -27 -29 0 -57 -70 -34 -84 5 -4 12 -24
16 -46 11 -66 12 -67 317 -64 363 4 427 11 546 60 18 8 37 14 43 14 6 0 18 9
27 20 12 14 21 17 31 11 24 -15 -43 -73 -75 -65 -13 3 -24 2 -24 -3 0 -11 -93
-32 -195 -44 -38 -4 -108 -13 -155 -18 -47 -6 -171 -10 -277 -10 -105 1 -196
-2 -202 -5 -6 -4 -9 -31 -8 -63 2 -47 -1 -57 -18 -67 -11 -6 -24 -17 -28 -23
-12 -19 -25 -16 -32 7 -4 12 1 31 13 48 38 53 31 102 -12 86 -7 -3 -16 2 -19
10 -4 9 -18 16 -34 16 -15 0 -40 6 -54 14 -18 9 -32 10 -43 4 -11 -6 -21 -6
-29 0 -7 5 -27 13 -46 17 -28 6 -37 3 -50 -13 -14 -17 -46 -28 -151 -53 -8 -2
-19 -10 -25 -17 -5 -7 -34 -15 -63 -19 -36 -4 -57 -12 -66 -25 -11 -15 -18
-17 -33 -10 -13 8 -33 5 -73 -9 -57 -20 -90 -24 -90 -11 0 9 91 42 117 42 11
0 32 9 46 20 14 11 34 20 45 20 26 0 79 27 85 45 3 7 20 15 38 17 18 2 35 9
37 17 4 11 -3 12 -33 7 -31 -6 -40 -4 -52 14 -13 18 -22 21 -50 17 -24 -4 -40
-1 -50 8 -8 8 -32 18 -54 21 -61 10 -46 22 24 20 39 -1 72 -8 86 -18 16 -11
30 -14 40 -8 27 14 132 9 138 -6 6 -17 43 -19 43 -2 0 9 3 9 12 0 20 -20 59
-15 65 8 3 11 10 21 17 21 6 1 18 3 26 4 8 1 20 3 27 4 21 2 35 39 23 60 -10
20 -1 22 103 22 9 0 17 3 17 7 -1 17 -29 42 -48 42 -26 0 -34 21 -13 37 9 6
13 15 9 19 -4 4 -14 1 -23 -6 -21 -18 -26 -9 -16 28 8 25 7 32 -4 32 -8 0 -18
8 -24 18 -8 14 -13 15 -29 5 -13 -8 -23 -8 -30 -1 -7 7 -15 2 -27 -16 -10 -15
-23 -26 -29 -25 -26 4 -46 -14 -46 -42 0 -34 10 -37 35 -9 17 19 20 19 28 4 7
-12 5 -19 -7 -26 -9 -5 -16 -17 -16 -27 0 -11 -7 -21 -15 -25 -8 -3 -15 -13
-15 -22 0 -8 -6 -14 -12 -11 -7 2 -13 12 -13 23 0 37 -76 59 -94 27 -16 -30
-26 -4 -24 60 2 49 7 65 28 87 30 32 31 46 5 62 -25 16 -25 30 -1 52 19 18 41
18 53 1 13 -17 9 -26 -9 -23 -12 2 -19 -4 -21 -19 -2 -16 2 -23 12 -23 10 0
16 -9 16 -23 0 -16 9 -28 25 -35 35 -16 35 -16 35 23 0 19 5 35 10 35 6 0 10
-4 10 -9 0 -25 31 -14 73 25 26 24 48 40 48 36 1 -4 3 -20 5 -36 5 -43 11 -42
19 4 4 25 3 46 -4 54 -6 7 -14 34 -17 60 -4 25 -10 46 -14 46 -4 0 -11 12 -15
28 -4 15 -9 22 -12 15 -3 -8 -12 -9 -27 -4 -12 5 -35 7 -52 4 -23 -5 -27 -3
-17 7 7 8 37 14 73 14 34 1 59 5 57 11 -1 6 -9 10 -17 10 -8 0 -16 8 -18 18
-5 22 -14 22 -35 -4 -19 -21 -42 -21 -42 0 0 12 -23 31 -38 31 -5 0 -5 -4 -2
-10 3 -5 -3 -10 -14 -10 -22 0 -29 -24 -11 -35 15 -9 12 -35 -4 -35 -8 0 -16
10 -18 23 -2 18 -9 22 -35 21 -31 -2 -32 0 -39 42 -7 50 -16 55 -32 19 -16
-34 -24 -31 -47 17 -11 24 -28 51 -37 60 -10 10 -18 29 -18 43 0 20 5 25 26
25 24 0 25 -2 19 -39 -4 -24 -2 -42 4 -45 14 -9 51 11 51 28 0 20 42 44 102
60 51 13 53 13 60 -8 3 -11 6 -30 7 -41 0 -19 -1 -19 -19 3 -24 29 -55 25 -54
-6 0 -19 -5 -22 -34 -22 -34 0 -35 0 -17 -20 21 -23 55 -27 55 -5 0 23 18 18
50 -15 16 -16 32 -30 35 -30 3 0 3 16 -1 35 -7 38 10 50 21 15 8 -26 19 -25
50 5 43 44 26 74 -23 39 -19 -13 -22 -13 -22 0 0 8 5 27 10 42 9 22 8 29 -5
36 -19 11 -20 48 -1 48 8 0 17 -6 20 -12 3 -10 8 -8 16 4 12 20 34 15 68 -15z
m902 -11 c0 -3 -4 -8 -10 -11 -5 -3 -10 -1 -10 4 0 6 5 11 10 11 6 0 10 -2 10
-4z m80 -11 c7 -8 20 -15 29 -15 13 -1 13 -2 -3 -12 -18 -10 -55 -40 -82 -65
-17 -17 -42 -16 -60 1 -20 21 -19 25 29 67 45 42 67 48 87 24z m-116 -14 c3
-5 -1 -11 -9 -15 -9 -3 -15 0 -15 9 0 16 16 20 24 6z m142 -68 c-10 -10 -19 5
-10 18 6 11 8 11 12 0 2 -7 1 -15 -2 -18z m93 13 c23 -13 22 -14 -43 -54 -73
-47 -96 -52 -96 -22 0 11 7 20 15 20 9 0 18 7 21 15 4 8 12 15 19 15 6 0 20 9
30 20 21 23 22 23 54 6z m-133 -38 c-10 -6 -20 -7 -24 -3 -9 8 20 25 31 18 5
-3 2 -10 -7 -15z m-206 -3 c7 -8 19 -15 26 -15 14 0 18 -22 14 -70 -2 -32 -60
-108 -105 -139 -19 -13 -35 -28 -35 -33 0 -17 -63 -37 -83 -26 -10 5 -39 13
-65 18 -26 4 -60 12 -77 18 -91 30 -136 42 -161 42 -16 0 -47 7 -69 15 -22 8
-61 14 -87 15 -36 0 -48 4 -48 15 0 8 12 17 28 20 15 3 40 12 55 20 16 8 38
15 49 15 11 0 32 6 46 14 57 29 93 36 108 21 8 -7 27 -16 44 -20 31 -7 69 14
97 55 11 15 26 20 62 20 26 0 51 4 57 9 24 23 126 27 144 6z m-1850 -25 c0 -5
-9 -10 -19 -10 -10 0 -21 -7 -25 -15 -3 -8 -11 -15 -17 -15 -7 0 -17 -7 -24
-17 -7 -9 -17 -13 -24 -8 -9 5 0 15 28 32 23 13 41 28 41 34 0 5 9 9 20 9 11
0 20 -4 20 -10z m2200 0 c-19 -13 -30 -13 -30 0 0 6 10 10 23 10 18 0 19 -2 7
-10z m109 -11 c23 -19 23 -20 6 -39 -10 -11 -24 -20 -30 -20 -14 0 -46 -16
-88 -44 -28 -19 -28 -19 -53 6 -28 28 -24 53 9 64 12 4 24 10 27 13 14 18 58
40 80 40 14 0 36 -9 49 -20z m-149 -8 c0 -11 -31 -24 -39 -16 -3 3 1 10 9 15
19 12 30 12 30 1z m-154 -43 c72 -55 171 -166 196 -218 32 -67 61 -176 56
-213 l-3 -28 -35 31 c-19 17 -40 35 -47 40 -11 9 -115 59 -183 88 -19 8 -46
20 -60 27 -14 7 -53 20 -87 30 l-61 18 26 21 c50 39 132 133 132 152 0 8 5 14
10 14 6 0 10 14 10 30 0 36 8 37 46 8z m-2136 -28 c-8 -5 -17 -7 -19 -4 -3 3
1 9 9 14 8 5 17 7 19 4 3 -3 -1 -9 -9 -14z m2450 10 c0 -5 -10 -10 -22 -9 -22
0 -22 1 -3 9 11 5 21 9 23 9 1 1 2 -3 2 -9z m148 -30 c35 -42 36 -68 1 -50
-10 6 -19 21 -19 34 0 15 -7 26 -20 29 -11 3 -20 10 -20 16 0 23 26 9 58 -29z
m-67 8 c24 -29 24 -48 0 -48 -10 0 -24 -7 -31 -15 -7 -8 -18 -15 -26 -15 -7 0
-28 -9 -47 -20 -37 -22 -62 -18 -78 11 -8 16 -6 21 13 29 24 10 59 31 68 40 9
9 65 39 73 40 5 0 17 -10 28 -22z m-1651 -11 c0 -9 -79 -12 -322 -13 -264 0
-443 -6 -443 -14 0 -4 -120 -27 -123 -25 -7 6 56 35 75 35 10 0 36 7 58 15 53
19 755 21 755 2z m1520 6 c0 -5 -11 -13 -25 -20 -20 -9 -25 -8 -25 2 0 8 10
16 23 18 12 2 23 5 25 6 1 0 2 -2 2 -6z m-1414 -27 c3 -8 1 -23 -5 -33 -9 -17
-10 -16 -19 7 -5 14 -8 28 -5 33 7 12 23 8 29 -7z m-1033 -19 c20 -11 23 -17
15 -25 -7 -7 -20 -12 -29 -12 -23 0 -79 -69 -79 -97 0 -28 19 -63 43 -81 10
-8 33 -30 50 -48 30 -34 32 -34 89 -28 l59 7 12 -32 c8 -21 22 -34 44 -42 49
-16 33 -24 -48 -24 -71 0 -74 1 -95 33 -12 18 -50 53 -83 77 -34 25 -66 57
-71 71 -8 21 -13 24 -24 15 -26 -22 -48 -212 -26 -226 6 -3 10 -16 10 -28 0
-12 7 -35 15 -51 17 -31 19 -56 7 -56 -5 0 -17 26 -27 58 -11 31 -24 63 -29
70 -14 19 -12 170 2 184 7 7 12 20 12 30 0 25 45 115 85 171 20 26 37 47 39
47 2 0 15 -6 29 -13z m833 -5 c11 -5 24 -8 30 -5 6 2 17 -3 23 -11 17 -20 -4
-78 -33 -92 -56 -27 -163 -88 -177 -100 -8 -8 -19 -14 -23 -14 -8 0 -33 -17
-156 -106 -88 -63 -137 -83 -147 -58 -3 8 -17 14 -32 14 -15 0 -36 7 -47 15
-10 8 -29 15 -41 15 -15 0 -32 13 -49 40 -30 46 -50 54 -107 46 -40 -6 -45 -3
-89 40 -40 38 -48 52 -48 83 0 47 31 76 97 92 27 6 66 17 88 24 22 7 74 13
115 14 41 1 89 5 105 10 40 12 467 6 491 -7z m1779 -12 c4 -6 -5 -10 -20 -10
-15 0 -24 4 -20 10 3 6 12 10 20 10 8 0 17 -4 20 -10z m-1490 -17 c11 -15 15
-15 29 -4 14 12 19 11 31 -5 23 -30 19 -54 -10 -54 -16 0 -25 6 -25 15 0 17
-16 20 -25 5 -11 -17 -24 -11 -31 14 -10 41 9 59 31 29z m282 11 c-3 -3 -12
-4 -19 -1 -8 3 -5 6 6 6 11 1 17 -2 13 -5z m1308 -26 c11 -18 18 -38 17 -45
-1 -7 7 -17 18 -23 22 -12 28 -50 7 -50 -21 0 -37 22 -37 53 0 16 -9 40 -20
54 -21 27 -25 43 -12 43 4 0 16 -15 27 -32z m-1170 2 c14 -6 16 -9 5 -10 -33
-4 -96 2 -110 11 -20 11 78 11 105 -1z m1015 0 c0 -5 -12 -10 -26 -10 -14 0
-23 4 -19 10 3 6 15 10 26 10 10 0 19 -4 19 -10z m115 -16 c34 -37 32 -59 -7
-74 -64 -24 -73 -27 -111 -44 -52 -22 -72 -20 -85 9 -19 40 -14 54 21 70 17 8
39 19 47 24 26 16 85 41 98 41 7 0 24 -12 37 -26z m-1615 -4 c0 -11 7 -23 15
-26 15 -6 21 -34 8 -34 -36 2 -72 80 -38 80 8 0 15 -9 15 -20z m325 10 c3 -5
26 -10 50 -10 24 0 56 -5 72 -11 15 -7 46 -15 68 -20 96 -19 235 -60 235 -70
0 -24 -340 -245 -364 -236 -15 6 -45 84 -53 137 -3 19 -9 40 -14 45 -7 9 -39
146 -39 168 0 11 38 9 45 -3z m295 -31 c20 -17 21 -20 5 -14 -11 4 -37 9 -57
12 -21 3 -38 10 -38 14 0 17 65 8 90 -12z m810 9 c0 -4 -9 -8 -21 -8 -11 0
-18 4 -15 8 3 5 12 9 21 9 8 0 15 -4 15 -9z m-1285 -83 c-26 -35 -45 -45 -45
-25 0 6 10 21 23 33 13 12 27 31 32 42 7 18 8 19 12 2 3 -10 -7 -33 -22 -52z
m-285 31 c0 -8 -5 -18 -11 -22 -14 -8 -33 11 -25 25 10 16 36 13 36 -3z m900
4 c12 -8 11 -10 -7 -10 -13 0 -23 5 -23 10 0 13 11 13 30 0z m-970 -36 c-8 -8
-29 -22 -47 -29 -19 -8 -55 -28 -79 -45 -25 -16 -47 -30 -50 -30 -3 0 -10 -5
-17 -11 -7 -5 -50 -34 -96 -64 -118 -77 -114 -73 -97 -100 15 -23 15 -23 -23
-18 -39 5 -40 5 -172 -105 -12 -9 -45 -45 -75 -80 -45 -52 -54 -59 -54 -40 0
20 86 128 101 128 15 0 121 109 115 119 -5 7 2 11 16 11 31 0 72 23 165 95 43
33 96 69 118 80 22 11 44 24 50 28 73 56 177 100 145 61z m270 -3 c0 -23 -25
-47 -35 -31 -10 16 4 50 21 50 8 0 14 -8 14 -19z m1560 -1 c-19 -13 -30 -13
-30 0 0 6 10 10 23 10 18 0 19 -2 7 -10z m-1799 -82 c-1 -34 -6 -67 -10 -72
-5 -6 -12 -36 -15 -66 -4 -30 -11 -64 -16 -75 -4 -11 -11 -28 -14 -39 -7 -21
-23 -19 -116 9 -30 9 -75 21 -100 26 -24 5 -49 14 -54 19 -6 6 -22 10 -37 10
-43 0 -43 16 -2 41 21 12 77 51 125 86 48 35 94 63 101 63 8 0 20 7 27 15 7 8
23 15 36 15 13 0 24 5 24 10 0 11 42 31 49 24 2 -2 3 -32 2 -66z m1867 60 c7
-7 12 -21 12 -31 0 -10 7 -34 16 -53 9 -19 15 -36 13 -38 -2 -2 -66 -6 -141
-7 -153 -4 -172 1 -148 46 7 14 21 25 31 25 16 0 91 26 144 50 21 9 46 18 56
19 3 1 10 -4 17 -11z m52 -30 c0 -14 -18 -9 -24 8 -11 28 -6 39 9 20 8 -11 15
-23 15 -28z m-790 -3 c114 -37 211 -76 231 -92 8 -7 21 -13 28 -13 14 0 60
-28 83 -51 10 -10 27 -24 39 -32 29 -21 27 -59 -6 -99 -35 -42 -75 -56 -215
-78 -151 -24 -660 -29 -660 -6 0 7 -6 19 -14 25 -16 14 -29 72 -20 94 3 9 18
20 32 26 29 11 36 16 124 73 32 21 60 38 64 38 5 0 71 51 139 108 25 22 69 42
80 38 6 -2 48 -16 95 -31z m605 25 c-3 -5 -15 -10 -26 -10 -11 0 -17 5 -14 10
3 6 15 10 26 10 11 0 17 -4 14 -10z m-2600 -130 c14 -5 25 -16 25 -24 0 -19
61 -66 86 -66 11 0 25 5 32 12 11 11 95 -9 148 -37 24 -12 23 -14 -124 -145
-23 -21 -69 -90 -77 -117 -3 -13 -10 -23 -14 -23 -10 0 -118 120 -150 168 -14
20 -32 53 -40 72 -15 39 -26 187 -17 235 l6 32 50 -49 c27 -27 61 -53 75 -58z
m2522 104 c-3 -3 -12 -4 -19 -1 -8 3 -5 6 6 6 11 1 17 -2 13 -5z m-1630 -61
c-3 -10 -5 -4 -5 12 0 17 2 24 5 18 2 -7 2 -21 0 -30z m1917 -35 c7 -48 -6
-73 -22 -41 -10 21 -3 109 8 96 4 -4 11 -29 14 -55z m-3294 42 c11 -7 4 -10
-27 -10 -23 0 -45 5 -48 10 -8 13 55 13 75 0z m1730 -55 c0 -14 -5 -25 -11
-25 -7 0 -18 -8 -25 -17 -13 -17 -13 -17 -14 0 0 9 4 17 8 17 5 0 14 11 20 25
6 14 14 25 17 25 3 0 5 -11 5 -25z m1517 -11 c-3 -3 -12 -4 -19 -1 -8 3 -5 6
6 6 11 1 17 -2 13 -5z m13 -100 c0 -64 -1 -66 -22 -61 -13 4 -43 9 -68 12 -25
3 -61 10 -80 15 -19 5 -56 12 -82 15 -45 6 -48 8 -48 35 0 15 6 30 13 33 8 3
67 6 132 6 65 1 121 4 124 6 2 3 10 5 18 5 9 0 13 -18 13 -66z m-2475 46 c8
-13 -25 -13 -45 0 -12 8 -9 10 12 10 15 0 30 -4 33 -10z m975 1 c0 -14 -18
-23 -30 -16 -6 4 -8 11 -5 16 8 12 35 12 35 0z m1517 -159 c-12 -11 -18 -12
-36 0 -28 17 -27 28 3 28 29 0 35 15 38 88 2 46 3 42 5 -22 3 -59 0 -83 -10
-94z m-1607 143 c0 -8 -4 -15 -10 -15 -5 0 -7 7 -4 15 4 8 8 15 10 15 2 0 4
-7 4 -15z m-323 -27 c-3 -7 -5 -2 -5 12 0 14 2 19 5 13 2 -7 2 -19 0 -25z
m-1332 12 c-3 -5 -15 -10 -26 -10 -10 0 -19 5 -19 10 0 6 12 10 26 10 14 0 23
-4 19 -10z m1435 -55 c0 -38 -2 -40 -31 -25 -35 19 -23 52 24 59 4 0 7 -15 7
-34z m59 26 c9 -6 10 -11 2 -15 -13 -8 -31 1 -31 15 0 11 11 11 29 0z m199 -8
c-4 -22 -22 -20 -26 1 -2 10 3 16 13 16 10 0 15 -7 13 -17z m-782 -28 c10 -8
33 -15 51 -15 17 0 35 -4 38 -10 3 -5 17 -10 30 -10 13 0 44 -6 67 -14 24 -8
69 -20 101 -26 l58 -12 -3 -56 c-3 -54 -5 -58 -38 -74 -19 -9 -53 -21 -75 -27
-227 -57 -290 -71 -352 -77 -62 -6 -77 -4 -117 17 -45 22 -46 23 -42 65 4 49
28 81 134 176 89 79 113 90 148 63z m134 5 c12 -8 11 -10 -5 -9 -11 1 -33 5
-50 9 l-30 8 35 1 c19 0 42 -4 50 -9z m77 -26 c-3 -3 -12 -4 -19 -1 -8 3 -5 6
6 6 11 1 17 -2 13 -5z m1878 -19 c187 -28 215 -36 215 -55 0 -10 -8 -27 -17
-39 -16 -19 -21 -20 -43 -8 -14 7 -41 19 -60 27 -19 7 -57 23 -85 35 -27 12
-58 25 -67 28 -10 4 -18 14 -18 23 0 12 4 14 13 6 6 -5 35 -13 62 -17z m98 18
c-7 -2 -19 -2 -25 0 -7 3 -2 5 12 5 14 0 19 -2 13 -5z m-148 -53 c18 -8 17 -9
-7 -9 -16 -1 -28 4 -28 9 0 12 8 12 35 0z m-2791 -18 c-26 -24 -221 -62 -208
-40 3 4 18 8 34 8 16 0 41 6 57 14 40 20 84 34 112 35 24 1 25 1 5 -17z m226
-3 c0 -6 -4 -7 -10 -4 -5 3 -10 11 -10 16 0 6 5 7 10 4 6 -3 10 -11 10 -16z
m2861 -29 c-4 -20 -10 -30 -14 -23 -7 11 10 70 18 62 2 -2 0 -20 -4 -39z
m-246 -13 c33 -16 72 -36 87 -44 14 -7 33 -13 42 -13 9 0 19 -6 22 -14 7 -19
-56 -106 -78 -106 -10 0 -64 34 -121 76 -79 59 -101 81 -99 96 9 55 46 56 147
5z m18 26 c-7 -2 -19 -2 -25 0 -7 3 -2 5 12 5 14 0 19 -2 13 -5z m-2603 -24
c0 -6 -4 -7 -10 -4 -5 3 -10 11 -10 16 0 6 5 7 10 4 6 -3 10 -11 10 -16z
m2665 1 c3 -5 -1 -10 -9 -10 -8 0 -18 5 -21 10 -3 6 1 10 9 10 8 0 18 -4 21
-10z m-384 -71 c-29 -27 -73 -59 -97 -71 -24 -12 -44 -25 -44 -29 0 -3 -8 -9
-17 -13 -10 -3 -25 -9 -33 -14 -41 -24 -83 -42 -96 -42 -8 0 -17 -7 -20 -15
-4 -8 -14 -15 -24 -15 -11 0 -51 -12 -90 -26 -67 -24 -100 -32 -225 -54 -76
-13 -155 -18 -155 -10 0 4 15 10 33 14 117 22 177 53 177 90 0 30 -16 43 -71
59 -44 13 -44 13 -52 71 -5 32 -6 60 -3 63 2 2 130 7 283 9 157 3 295 10 318
16 44 12 157 26 165 20 3 -2 -19 -26 -49 -53z m119 46 c0 -8 -5 -15 -12 -15
-18 0 -58 -41 -58 -60 0 -11 -11 -20 -30 -23 -42 -9 -95 -67 -61 -67 5 0 12
-8 15 -18 4 -10 20 -33 37 -50 17 -18 27 -32 21 -32 -6 0 -28 22 -49 50 -25
32 -46 49 -60 50 -30 0 -29 15 3 37 15 10 47 36 73 59 95 83 121 98 121 69z
m-2362 -16 c12 -19 11 -19 -7 -10 -26 14 -36 31 -19 31 7 0 19 -9 26 -21z
m2702 11 c12 -8 9 -10 -12 -10 -15 0 -30 5 -33 10 -8 13 25 13 45 0z m-2885
-30 c-3 -5 -20 -10 -36 -10 -18 0 -28 4 -24 10 3 6 20 10 36 10 18 0 28 -4 24
-10z m2600 -16 l17 -26 -31 23 c-35 26 -37 29 -17 29 7 0 21 -12 31 -26z m10
-50 c6 -6 26 -20 45 -32 19 -11 44 -29 55 -40 11 -10 28 -23 37 -28 16 -8 15
-12 -8 -42 -14 -17 -31 -32 -38 -32 -16 0 -200 185 -204 206 -2 7 4 14 12 14
9 0 16 5 16 11 0 11 63 -31 85 -57z m-2690 36 c-3 -5 -13 -10 -21 -10 -8 0
-14 5 -14 10 0 6 9 10 21 10 11 0 17 -4 14 -10z m310 0 c3 -5 1 -10 -4 -10 -6
0 -11 5 -11 10 0 6 2 10 4 10 3 0 8 -4 11 -10z m1125 -10 c0 -5 -2 -10 -4 -10
-3 0 -8 5 -11 10 -3 6 -1 10 4 10 6 0 11 -4 11 -10z m-1037 -12 c7 -7 18 -26
25 -41 l12 -28 -38 7 c-20 4 -39 8 -41 10 -4 3 22 64 27 64 2 0 9 -6 15 -12z
m2332 2 c3 -5 1 -10 -4 -10 -6 0 -11 5 -11 10 0 6 2 10 4 10 3 0 8 -4 11 -10z
m-2800 -10 c-3 -5 -13 -10 -21 -10 -8 0 -14 5 -14 10 0 6 9 10 21 10 11 0 17
-4 14 -10z m1362 -22 c-3 -8 -6 -5 -6 6 -1 11 2 17 5 13 3 -3 4 -12 1 -19z
m-1419 0 c-5 -16 -48 -24 -48 -9 0 8 17 16 43 20 5 0 7 -5 5 -11z m1186 -7
c10 -15 -12 -61 -29 -61 -19 0 -38 -47 -30 -77 8 -33 55 -53 122 -53 32 0 67
-6 78 -13 11 -7 49 -14 85 -16 36 -1 69 -6 75 -12 12 -13 -191 -6 -275 10 -30
6 -84 15 -120 21 -78 14 -203 47 -247 66 -17 8 -41 14 -54 14 -53 0 32 33 113
45 26 3 50 10 53 15 3 4 28 11 55 15 27 4 52 11 56 16 3 5 13 9 22 9 9 0 28 7
42 14 30 17 47 19 54 7z m1568 -91 c54 -55 98 -102 98 -104 0 -3 -16 -14 -36
-27 -32 -19 -38 -20 -48 -8 -6 8 -31 41 -55 74 -25 33 -47 62 -50 65 -3 3 -17
17 -29 32 -20 22 -22 30 -13 47 7 12 17 21 24 21 6 0 55 -45 109 -100z m-32
92 c0 -5 26 -34 57 -65 31 -31 54 -59 51 -63 -6 -6 -63 48 -122 115 -17 18
-17 21 -3 21 10 0 17 -4 17 -8z m190 -2 c0 -5 -4 -10 -9 -10 -6 0 -13 5 -16
10 -3 6 1 10 9 10 9 0 16 -4 16 -10z m-1518 -22 c-7 -7 -12 -8 -12 -2 0 6 3
14 7 17 3 4 9 5 12 2 2 -3 -1 -11 -7 -17z m236 -12 c-2 -10 -7 -13 -17 -7 -8
6 -11 16 -7 27 8 21 30 4 24 -20z m82 25 c0 -5 -9 -11 -20 -14 -12 -3 -20 0
-20 7 0 6 9 12 20 13 11 1 20 -2 20 -6z m-720 -10 c0 -13 -84 -30 -89 -18 -2
5 3 13 10 18 19 12 79 11 79 0z m251 -19 c-6 -2 -11 -14 -11 -27 0 -19 -6 -23
-40 -27 -46 -4 -51 4 -15 20 14 6 25 18 25 25 0 24 22 38 38 25 9 -8 10 -14 3
-16z m59 -7 c-12 -22 -11 -27 6 -39 20 -15 49 -3 38 15 -3 5 0 9 5 9 6 0 11
-7 11 -16 0 -13 7 -15 29 -11 21 4 31 2 35 -9 7 -18 -16 -28 -47 -20 -13 3
-38 1 -55 -4 -26 -7 -32 -6 -32 7 0 8 -9 17 -20 20 -25 7 -26 30 -1 38 10 3
21 15 25 27 3 12 8 19 12 15 4 -4 1 -18 -6 -32z m1665 5 c3 -6 3 -10 -2 -10
-11 1 -43 26 -43 34 0 9 37 -11 45 -24z m-445 -4 c0 -7 -10 -16 -21 -19 -19
-5 -21 -10 -15 -42 5 -25 4 -35 -3 -30 -6 3 -11 12 -11 19 0 8 -13 16 -30 18
-16 3 -30 1 -30 -4 0 -4 -26 -20 -57 -34 -32 -15 -66 -31 -75 -35 -10 -5 -24
-9 -33 -9 -8 0 -29 -6 -47 -14 -76 -32 -207 -59 -413 -86 -109 -14 -293 -18
-390 -8 -44 5 -105 11 -135 14 -64 6 -148 20 -205 34 -22 5 -67 16 -99 23 -33
7 -62 19 -64 27 -3 9 1 11 12 7 10 -4 30 -7 46 -7 16 0 35 -6 42 -14 8 -7 33
-14 57 -14 23 0 56 -5 74 -11 43 -14 336 -40 472 -42 62 -1 122 3 138 10 16 6
47 11 70 11 45 0 109 10 222 35 39 9 93 20 120 26 28 6 54 15 60 20 5 5 21 9
36 9 15 0 32 7 39 15 7 8 18 15 25 15 8 0 26 7 42 14 15 8 35 18 43 21 8 3 40
19 70 35 30 16 56 29 58 29 1 1 2 -5 2 -13z m-2071 -25 c-11 -16 -32 -35 -45
-42 -13 -7 -24 -18 -24 -26 0 -7 -4 -13 -10 -13 -19 0 -10 15 38 62 53 53 73
63 41 19z m211 9 c42 -12 70 -33 70 -52 0 -11 -34 -10 -45 1 -6 5 -27 14 -48
21 -32 10 -41 10 -55 -3 -16 -14 -17 -13 -17 19 0 39 -1 39 95 14z m206 5
c-22 -17 -82 -20 -91 -6 -7 12 18 18 70 20 37 0 39 -1 21 -14z m1086 -15 c39
0 58 -10 58 -30 0 -26 -16 -35 -120 -64 -52 -15 -115 -33 -140 -40 -45 -14
-87 -6 -75 14 10 17 -27 40 -64 40 -40 0 -61 14 -61 42 0 24 21 23 50 -2 28
-24 34 -25 54 -5 17 17 36 20 36 5 0 -5 21 -10 46 -10 38 0 47 4 51 20 4 16 8
18 19 9 21 -17 63 -2 75 28 9 24 11 25 28 9 9 -9 29 -16 43 -16z m-1405 4 c4
-10 -1 -22 -10 -29 -10 -7 -17 -15 -17 -19 0 -4 -20 -37 -45 -74 -25 -37 -45
-71 -45 -77 0 -5 -13 -25 -28 -43 -26 -31 -28 -32 -62 -20 -19 7 -41 19 -48
26 -7 6 -19 12 -25 12 -7 0 43 54 111 120 121 118 155 139 169 104z m950 -36
c-2 -13 -4 -5 -4 17 -1 22 1 32 4 23 2 -10 2 -28 0 -40z m1073 16 c0 -8 7 -14
15 -14 8 0 15 -3 15 -7 0 -5 27 -39 60 -78 33 -38 60 -77 60 -85 0 -8 -14 -23
-31 -33 -30 -17 -33 -17 -50 -1 -11 10 -19 21 -19 26 0 5 -27 45 -60 88 -33
43 -60 85 -60 92 0 14 49 38 63 31 4 -2 7 -11 7 -19z m-2385 6 c-3 -5 -15 -10
-26 -10 -11 0 -17 5 -14 10 3 6 15 10 26 10 11 0 17 -4 14 -10z m501 -55 c40
-19 77 -35 83 -35 6 0 11 -4 11 -10 0 -5 13 -10 29 -10 16 0 36 -6 43 -12 7
-7 24 -14 38 -16 14 -1 41 -9 60 -16 168 -65 627 -96 895 -61 126 16 188 29
286 60 26 8 55 15 65 15 11 0 28 7 38 15 11 8 28 15 37 15 10 0 30 6 46 14 53
27 101 46 118 46 18 0 54 -37 55 -57 0 -6 4 -13 8 -15 14 -6 100 -142 96 -150
-3 -5 -14 -8 -24 -8 -10 0 -22 -4 -25 -10 -3 -5 -15 -10 -26 -10 -10 0 -19 -4
-19 -10 0 -5 -15 -13 -32 -19 -33 -9 -85 -27 -123 -42 -40 -15 -127 -40 -168
-48 -23 -5 -50 -12 -59 -16 -13 -5 -20 -2 -24 11 -3 11 -10 27 -15 36 -13 25
-11 62 4 77 10 10 7 17 -13 35 -14 12 -30 31 -36 41 -16 28 -31 29 -58 2 -16
-16 -29 -21 -38 -16 -25 17 -91 10 -124 -13 -28 -19 -32 -27 -27 -53 3 -16 18
-48 33 -70 26 -38 31 -40 85 -43 32 -2 63 2 70 8 14 12 55 -2 55 -19 0 -11
-88 -27 -220 -41 -58 -6 -115 -14 -127 -17 -20 -4 -23 -1 -23 25 0 17 8 44 18
62 16 30 16 32 0 44 -11 8 -18 26 -18 46 0 19 -7 42 -17 52 -15 17 -17 17 -35
2 -10 -10 -18 -27 -18 -38 0 -20 -1 -20 -19 3 -14 18 -29 24 -67 26 -69 3 -84
-3 -84 -32 0 -17 7 -27 21 -30 14 -4 18 -11 13 -22 -3 -9 -8 -24 -11 -33 -3
-9 -15 -18 -27 -20 -13 -2 -22 -11 -24 -25 -3 -18 3 -23 33 -29 20 -3 64 -3
97 0 59 7 77 1 78 -28 0 -10 -356 -4 -366 7 -5 4 -3 17 4 27 7 11 12 27 12 37
0 9 7 25 17 35 13 15 14 23 5 41 -6 12 -13 40 -14 61 l-3 40 -72 1 c-56 1 -77
6 -93 20 -27 24 -51 11 -64 -34 -5 -17 -15 -31 -22 -31 -19 0 -36 -34 -22 -48
6 -6 16 -21 22 -34 9 -17 26 -26 71 -37 106 -24 138 -52 75 -66 -30 -7 -267
29 -305 46 -18 8 -71 21 -150 36 -16 3 -39 12 -50 19 -11 8 -28 14 -40 14 -11
0 -47 13 -80 29 -33 16 -68 32 -78 35 -11 4 -15 11 -11 18 25 43 168 258 172
258 3 0 38 -16 78 -35z m-569 19 c-3 -3 -12 -4 -19 -1 -8 3 -5 6 6 6 11 1 17
-2 13 -5z m443 -12 c0 -5 -11 -22 -25 -38 -29 -34 -31 -30 -9 14 14 30 34 43
34 24z m605 -2 c3 -5 -1 -10 -9 -10 -9 0 -16 5 -16 10 0 6 4 10 9 10 6 0 13
-4 16 -10z m-372 -15 c20 -8 48 -15 62 -15 14 0 25 -4 25 -10 0 -15 -54 -12
-76 5 -10 8 -27 15 -36 15 -9 0 -20 5 -23 10 -9 14 7 12 48 -5z m2067 -5 c0
-5 -2 -10 -4 -10 -3 0 -8 5 -11 10 -3 6 -1 10 4 10 6 0 11 -4 11 -10z m-2527
-34 c-10 -14 -24 -26 -31 -26 -7 0 -1 13 15 29 33 34 42 33 16 -3z m2187 19
c0 -8 -4 -15 -10 -15 -5 0 -10 7 -10 15 0 8 5 15 10 15 6 0 10 -7 10 -15z
m-1160 -9 c0 -11 -8 -12 -36 -6 -51 12 -54 20 -6 20 29 0 42 -4 42 -14z m1360
-28 c0 -6 8 -17 18 -24 12 -10 13 -13 3 -14 -16 0 -40 29 -41 48 0 7 5 10 10
7 6 -3 10 -11 10 -17z m-1227 5 c-7 -2 -21 -2 -30 0 -10 3 -4 5 12 5 17 0 24
-2 18 -5z m1057 -8 c0 -8 -4 -15 -10 -15 -5 0 -10 7 -10 15 0 8 5 15 10 15 6
0 10 -7 10 -15z m-2276 -34 c-10 -10 -21 -17 -23 -15 -6 6 20 34 32 34 6 0 2
-8 -9 -19z m216 -1 c0 -5 -5 -10 -11 -10 -5 0 -7 5 -4 10 3 6 8 10 11 10 2 0
4 -4 4 -10z m2085 0 c3 -5 3 -15 -1 -21 -6 -11 -23 6 -24 24 0 10 18 9 25 -3z
m-2129 -62 c-9 -5 -16 -16 -16 -25 0 -9 -3 -13 -7 -10 -3 4 2 23 13 43 14 26
20 31 23 18 1 -9 -4 -21 -13 -26z m2157 17 c4 -8 2 -17 -3 -20 -6 -4 -10 -4
-10 -1 0 2 -3 11 -6 20 -3 9 -2 16 4 16 5 0 12 -7 15 -15z m-1519 -40 c3 -9
18 -15 36 -15 16 0 30 -5 30 -11 0 -7 -9 -9 -22 -6 -22 6 -48 -7 -48 -24 0 -5
10 -9 22 -9 29 0 68 -38 68 -67 0 -18 6 -23 24 -23 26 0 39 -20 30 -45 -9 -23
-21 -18 -36 12 -11 24 -22 29 -77 38 -36 5 -66 16 -68 22 -3 9 4 11 26 7 38
-8 44 16 9 31 -34 15 -45 105 -13 105 7 0 15 -7 19 -15z m946 -2 c0 -9 8 -25
17 -35 14 -16 15 -24 6 -48 -7 -18 -7 -32 -2 -36 5 -3 9 -16 9 -30 0 -27 -24
-33 -34 -9 -3 8 -12 15 -21 15 -22 0 -18 18 6 25 15 5 17 10 9 20 -6 7 -13 36
-17 64 -5 43 -3 51 11 51 9 0 16 -8 16 -17z m-780 -37 c0 -14 -5 -28 -10 -31
-8 -5 -7 -11 1 -21 17 -20 0 -34 -33 -27 -23 4 -26 9 -24 40 3 54 66 90 66 39z
m680 9 c7 -8 15 -35 17 -59 5 -42 4 -46 -28 -65 -42 -26 -50 -26 -56 -1 -3 10
-16 26 -29 35 -19 12 -22 21 -18 48 4 17 14 38 22 45 22 17 77 15 92 -3z
m-298 -48 c-2 -26 2 -39 13 -43 17 -7 20 -39 5 -49 -5 -3 -10 -19 -10 -36 0
-19 -5 -29 -15 -29 -8 0 -15 6 -16 13 -9 156 -7 188 9 185 13 -3 16 -13 14
-41z m-74 14 c9 -6 11 -19 7 -45 -8 -41 -25 -49 -25 -11 0 15 -8 29 -21 36
-17 9 -19 13 -8 20 18 11 30 11 47 0z m-521 -17 c-3 -3 -12 -4 -19 -1 -8 3 -5
6 6 6 11 1 17 -2 13 -5z m445 -66 c2 -18 13 -25 46 -33 24 -6 40 -14 36 -18
-11 -11 -152 -8 -159 3 -4 6 5 10 20 10 20 0 27 6 32 30 7 35 20 39 25 8z
m498 12 c0 -5 -2 -10 -4 -10 -3 0 -8 5 -11 10 -3 6 -1 10 4 10 6 0 11 -4 11
-10z"/>
<path d="M2403 3194 c-6 -15 15 -39 55 -61 29 -17 35 -3 12 34 -21 35 -58 49
-67 27z"/>
<path d="M2395 3040 c3 -5 8 -10 11 -10 2 0 4 5 4 10 0 6 -5 10 -11 10 -5 0
-7 -4 -4 -10z"/>
<path d="M2430 3020 c0 -5 5 -10 10 -10 6 0 10 5 10 10 0 6 -4 10 -10 10 -5 0
-10 -4 -10 -10z"/>
<path d="M2500 2440 c0 -5 5 -10 11 -10 5 0 7 5 4 10 -3 6 -8 10 -11 10 -2 0
-4 -4 -4 -10z"/>
<path d="M2535 2377 c-48 -27 -53 -51 -10 -54 17 0 40 1 53 4 20 5 22 10 17
32 -10 40 -17 42 -60 18z"/>
<path d="M1454 1958 c-6 -20 9 -41 39 -51 20 -6 -5 -27 -33 -27 -15 0 -35 -3
-44 -6 -19 -7 -21 -31 -3 -37 9 -3 7 -9 -5 -24 -10 -11 -18 -26 -18 -35 0 -36
107 -97 172 -98 43 0 68 8 68 22 0 10 20 60 47 114 18 38 14 90 -7 87 -8 -1
-25 -5 -37 -8 -16 -5 -23 -2 -27 13 -5 13 -30 29 -71 46 -36 14 -67 26 -69 26
-3 0 -8 -10 -12 -22z m66 -18 c0 -5 -11 -10 -25 -10 -14 0 -25 5 -25 10 0 6
11 10 25 10 14 0 25 -4 25 -10z m48 -19 c19 -12 11 -45 -12 -49 -11 -2 -26
-11 -34 -19 -16 -16 -99 -14 -94 2 1 6 10 10 20 11 9 1 32 2 50 3 26 1 32 5
32 24 0 35 13 44 38 28z m112 -50 c0 -10 -6 -24 -14 -31 -8 -6 -16 -24 -18
-38 -4 -34 -37 -37 -49 -4 -5 13 -5 22 1 22 6 0 10 9 10 20 0 11 12 26 28 34
36 20 42 20 42 -3z m-224 -88 c-5 -25 -2 -30 32 -46 47 -22 88 -20 86 6 -2 21
34 23 42 2 16 -42 -59 -60 -119 -29 -18 9 -43 23 -57 30 -29 15 -38 43 -18 55
27 17 40 10 34 -18z m49 17 c3 -5 -1 -10 -10 -10 -9 0 -13 5 -10 10 3 6 8 10
10 10 2 0 7 -4 10 -10z"/>
<path d="M3155 1933 c-11 -3 -29 -12 -40 -19 -11 -8 -29 -14 -40 -14 -30 0
-65 -28 -65 -52 0 -19 4 -20 46 -14 45 6 46 5 40 -18 -3 -14 -2 -28 4 -31 15
-9 12 -25 -5 -25 -25 0 -65 -31 -65 -50 0 -10 8 -21 17 -24 23 -9 143 31 248
82 40 19 43 43 5 52 -17 4 -28 18 -40 50 -8 25 -19 51 -23 58 -8 12 -44 14
-82 5z m75 -35 c22 -37 27 -92 8 -86 -7 3 -16 19 -21 37 -5 22 -17 36 -38 45
l-30 13 23 11 c34 16 36 15 58 -20z m-100 -15 c-8 -3 -32 -13 -52 -24 -21 -10
-40 -14 -43 -9 -8 13 45 38 80 38 17 0 23 -2 15 -5z m33 -104 c22 -39 15 -49
-31 -49 -33 0 -34 1 -17 14 17 12 18 18 7 40 -10 23 -9 26 6 26 9 0 25 -14 35
-31z m132 11 c-3 -5 -10 -10 -16 -10 -5 0 -9 5 -9 10 0 6 7 10 16 10 8 0 12
-4 9 -10z m-50 -20 c-3 -5 -15 -10 -26 -10 -11 0 -17 5 -14 10 3 6 15 10 26
10 11 0 17 -4 14 -10z m-160 -60 c-3 -5 -13 -10 -21 -10 -8 0 -12 5 -9 10 3 6
13 10 21 10 8 0 12 -4 9 -10z"/>
<path d="M2670 1715 c0 -20 5 -25 24 -25 25 0 36 15 29 38 -3 6 -16 12 -29 12
-19 0 -24 -5 -24 -25z"/>
<path d="M2756 3481 c17 -4 36 -11 42 -15 7 -4 12 -3 12 2 0 11 -35 22 -65 21
-12 -1 -8 -4 11 -8z"/>
<path d="M2855 3474 c-26 -13 -27 -14 -5 -10 14 3 35 6 48 6 13 0 20 4 17 10
-8 13 -24 12 -60 -6z"/>
<path d="M2990 3482 c0 -4 16 -6 35 -4 19 2 35 6 35 8 0 2 -16 4 -35 4 -19 0
-35 -4 -35 -8z"/>
<path d="M1500 3472 c0 -5 14 -7 30 -4 17 2 30 6 30 8 0 2 -13 4 -30 4 -16 0
-30 -4 -30 -8z"/>
<path d="M1760 3470 c-35 -7 -35 -7 -5 -9 17 0 37 4 45 9 17 11 11 11 -40 0z"/>
<path d="M3060 3470 c-12 -8 -9 -10 13 -10 15 0 27 -4 27 -9 0 -6 17 -8 38 -6
31 4 33 3 12 -4 l-25 -9 26 -1 c14 -1 30 -6 37 -13 9 -9 12 -8 12 5 0 21 -30
37 -69 37 -17 0 -31 5 -31 10 0 13 -20 13 -40 0z"/>
<path d="M1428 3453 c-27 -8 -48 -18 -48 -24 0 -12 17 -12 25 1 3 6 19 10 35
10 16 0 32 5 35 11 11 16 3 17 -47 2z"/>
<path d="M1546 3452 c-11 -18 84 -23 112 -6 15 8 18 12 7 8 -26 -10 -65 -10
-92 -1 -12 4 -24 4 -27 -1z"/>
<path d="M2903 3453 c9 -2 17 -8 17 -13 0 -5 7 -7 16 -3 13 5 13 7 2 14 -7 5
-22 8 -33 8 -17 -1 -17 -2 -2 -6z"/>
<path d="M3005 3450 c-3 -5 1 -10 9 -10 9 0 16 5 16 10 0 6 -4 10 -9 10 -6 0
-13 -4 -16 -10z"/>
<path d="M1470 3430 l-35 -7 38 -2 c20 0 37 4 37 9 0 6 -1 9 -2 9 -2 -1 -19
-5 -38 -9z"/>
<path d="M1320 3419 c0 -5 11 -9 25 -9 14 0 25 2 25 4 0 2 -11 6 -25 8 -14 3
-25 1 -25 -3z"/>
<path d="M1530 3415 c0 -8 2 -15 4 -15 2 0 6 7 10 15 3 8 1 15 -4 15 -6 0 -10
-7 -10 -15z"/>
<path d="M3031 3417 c7 -7 24 -14 38 -15 l26 -2 -29 15 c-35 18 -51 19 -35 2z"/>
<path d="M3088 3423 c6 -2 18 -2 25 0 6 3 1 5 -13 5 -14 0 -19 -2 -12 -5z"/>
<path d="M3227 3424 c-7 -7 35 -44 50 -44 4 0 1 5 -7 10 -12 8 -12 10 5 10 16
0 15 3 -9 15 -33 17 -31 17 -39 9z"/>
<path d="M1488 3403 c7 -3 16 -2 19 1 4 3 -2 6 -13 5 -11 0 -14 -3 -6 -6z"/>
<path d="M3326 3402 c-3 -6 10 -16 29 -23 22 -8 34 -18 31 -26 -3 -7 -1 -13 5
-13 6 0 8 -9 4 -20 -5 -16 -2 -20 17 -19 22 0 22 1 3 9 -11 5 -14 9 -7 9 7 1
10 6 7 11 -3 6 3 10 14 10 22 0 40 -20 19 -20 -8 -1 -6 -6 6 -15 11 -8 25 -15
30 -15 6 0 4 4 -4 10 -19 12 -8 22 14 14 9 -4 15 -13 12 -20 -3 -7 -1 -16 4
-19 4 -3 10 -1 12 5 4 11 48 1 48 -11 0 -5 -6 -9 -12 -9 -8 0 -5 -7 6 -15 19
-15 19 -15 1 -15 -15 0 -16 -3 -7 -12 8 -8 15 -9 20 -3 9 13 72 17 72 5 0 -4
-5 -10 -10 -12 -6 -2 -1 -9 11 -16 12 -8 18 -9 14 -3 -3 6 0 11 7 11 17 -1 77
-50 60 -50 -7 0 -20 7 -29 15 -8 9 -18 13 -21 10 -8 -7 79 -94 94 -95 18 0
151 -148 203 -225 26 -39 55 -97 64 -130 10 -33 22 -67 27 -77 34 -63 6 -376
-38 -420 -6 -6 -12 -22 -12 -35 0 -13 -4 -23 -10 -23 -5 0 -10 -5 -10 -12 0
-18 -146 -192 -201 -239 -28 -24 -56 -48 -63 -54 -25 -22 -105 -74 -161 -105
-33 -19 -78 -44 -100 -57 -64 -36 -163 -78 -220 -92 -17 -4 -40 -13 -52 -19
-12 -7 -32 -12 -45 -12 -13 0 -32 -7 -42 -15 -11 -8 -34 -15 -52 -15 -18 0
-36 -5 -39 -10 -3 -6 -22 -10 -40 -10 -19 0 -52 -6 -72 -14 -21 -8 -90 -22
-153 -31 -486 -66 -944 -32 -1345 103 -33 11 -88 28 -122 37 -35 10 -68 24
-74 31 -6 8 -18 14 -25 14 -16 0 -92 39 -100 51 -3 5 -12 9 -20 9 -8 0 -27 8
-42 19 -15 10 -67 45 -117 77 -110 71 -295 252 -295 288 0 8 -6 19 -13 23 -7
4 -25 33 -41 63 -91 178 -89 412 7 590 32 61 117 175 170 230 56 58 170 150
185 150 5 0 12 7 16 15 3 8 10 15 16 15 14 0 110 70 110 81 0 5 12 10 28 10
l27 1 -30 7 c-28 7 -29 7 -8 15 13 4 26 5 30 3 5 -3 17 -1 28 4 l20 8 -20 0
c-17 1 -17 3 -5 11 22 14 43 12 34 -2 -4 -8 -3 -10 2 -5 5 5 9 14 9 20 0 6 11
14 25 18 14 4 18 7 8 8 -9 1 -23 4 -31 7 -8 3 -21 -1 -28 -8 -8 -8 -49 -31
-92 -52 -42 -21 -77 -42 -77 -47 0 -5 -9 -9 -19 -9 -11 0 -23 -5 -27 -11 -3
-6 -29 -26 -58 -44 -28 -18 -62 -43 -76 -55 -14 -11 -47 -40 -73 -63 -50 -44
-179 -200 -190 -229 -4 -10 -11 -18 -17 -18 -5 0 -10 -6 -10 -14 0 -8 -8 -29
-17 -48 -9 -18 -22 -45 -30 -60 -7 -14 -13 -37 -13 -50 0 -13 -5 -29 -12 -36
-8 -8 -14 -58 -16 -136 -4 -100 -1 -130 12 -157 9 -17 16 -41 16 -51 0 -11 23
-63 50 -116 62 -118 69 -130 98 -158 12 -11 22 -26 22 -32 0 -6 13 -21 30 -34
16 -12 30 -28 30 -35 0 -7 4 -13 8 -13 5 0 18 -9 29 -20 104 -96 343 -254 405
-265 10 -2 23 -8 30 -14 41 -33 67 -61 97 -106 41 -61 179 -198 221 -220 16
-8 30 -19 30 -23 0 -5 19 -19 41 -33 23 -13 53 -32 68 -41 53 -35 248 -123
336 -152 28 -9 71 -16 98 -16 26 0 74 -7 106 -16 52 -15 77 -15 198 -5 182 15
341 45 366 70 6 6 19 11 28 11 10 0 30 6 46 14 62 31 132 67 154 78 20 11 119
84 205 151 39 30 145 144 189 202 44 58 95 105 116 106 8 0 28 9 44 19 17 10
62 36 100 58 39 21 83 51 99 65 16 15 35 27 42 27 7 0 17 6 21 13 4 6 31 32
58 56 60 54 175 182 175 195 0 5 7 17 15 26 8 8 34 56 59 105 60 123 82 230
68 345 -15 119 -41 216 -68 251 -6 8 -19 32 -29 53 -9 22 -36 65 -59 95 -42
58 -224 241 -238 241 -5 0 -26 12 -47 28 -21 15 -49 34 -61 42 -13 8 -32 23
-42 33 -10 9 -24 17 -32 17 -7 0 -30 11 -50 25 -20 14 -40 25 -44 25 -4 1 -25
9 -47 20 -22 11 -47 19 -55 20 -9 0 -21 5 -27 11 -7 7 -13 7 -17 1z m-2271
-122 c3 -6 -2 -13 -12 -17 -47 -16 -188 -119 -267 -194 -88 -84 -207 -233
-221 -279 -4 -14 -10 -27 -14 -30 -10 -9 -32 -72 -47 -140 -32 -142 -6 -322
63 -432 13 -21 23 -40 23 -44 0 -3 14 -23 30 -44 17 -21 30 -41 30 -44 0 -8
160 -167 195 -193 78 -59 101 -75 120 -84 11 -5 43 -23 70 -40 28 -17 62 -35
78 -42 15 -6 27 -15 27 -19 0 -4 5 -8 11 -8 6 0 43 -16 83 -35 40 -19 82 -35
93 -35 12 0 24 -7 27 -15 5 -13 0 -15 -29 -9 -31 5 -35 4 -35 -15 0 -12 12
-36 27 -54 42 -49 162 -167 170 -167 5 0 24 -14 43 -30 50 -43 50 -43 103 -70
26 -14 47 -28 47 -32 0 -5 6 -8 14 -8 8 0 21 -6 28 -14 8 -8 23 -15 33 -17 10
-2 20 -9 22 -15 2 -7 -6 -10 -22 -7 -14 3 -25 9 -25 14 0 5 -7 9 -16 9 -18 0
-87 39 -92 52 -2 4 -12 8 -23 8 -10 0 -19 7 -19 15 0 8 -7 15 -15 15 -9 0 -21
5 -28 10 -7 6 -43 35 -81 66 -38 30 -78 67 -90 82 -11 15 -26 31 -33 35 -7 4
-13 12 -13 18 0 5 -11 22 -25 37 -14 15 -25 32 -25 38 0 22 -59 65 -170 122
-118 60 -239 136 -253 159 -4 7 -13 13 -18 13 -28 0 -259 258 -259 288 0 5 -7
15 -15 22 -8 7 -15 23 -15 35 0 13 -7 25 -15 29 -8 3 -15 14 -15 24 0 10 -6
32 -14 48 -8 16 -17 54 -21 84 -4 30 -9 73 -12 95 -9 74 24 225 70 320 60 125
182 272 302 362 66 50 115 83 124 83 5 0 11 4 13 8 3 8 68 50 80 51 4 1 10 -4
13 -9z m2555 -35 c14 -16 10 -18 -14 -9 -9 3 -16 10 -16 15 0 14 16 11 30 -6z
m155 -115 c3 -5 1 -10 -4 -10 -6 0 -11 5 -11 10 0 6 2 10 4 10 3 0 8 -4 11
-10z m35 -30 c0 -5 -2 -10 -4 -10 -3 0 -8 5 -11 10 -3 6 -1 10 4 10 6 0 11 -4
11 -10z m44 -35 c3 -8 2 -15 -3 -15 -5 0 -14 7 -21 15 -10 12 -10 15 3 15 8 0
17 -7 21 -15z m206 -273 c0 -15 -2 -15 -10 -2 -13 20 -13 33 0 25 6 -3 10 -14
10 -23z m-3 -604 c-3 -8 -6 -5 -6 6 -1 11 2 17 5 13 3 -3 4 -12 1 -19z m-182
-254 c-11 -8 -30 -24 -43 -34 -37 -33 -38 -23 -2 15 19 19 41 35 49 35 13 -1
12 -4 -4 -16z m-95 -84 c-24 -15 -37 -11 -16 5 11 8 22 12 25 9 3 -3 -1 -9 -9
-14z m-35 -30 c-3 -5 -10 -10 -16 -10 -5 0 -9 5 -9 10 0 6 7 10 16 10 8 0 12
-4 9 -10z m-35 -20 c0 -5 -4 -10 -9 -10 -5 0 -16 -6 -24 -14 -7 -8 -29 -23
-48 -33 -19 -10 -53 -31 -76 -45 -23 -15 -53 -30 -67 -34 -14 -3 -26 -10 -26
-15 0 -5 -7 -9 -15 -9 -18 0 -94 -75 -114 -112 -7 -14 -26 -36 -42 -47 -16
-12 -29 -28 -29 -35 0 -8 -10 -20 -23 -29 -13 -8 -48 -39 -79 -68 -53 -51
-185 -149 -201 -149 -13 0 -8 20 6 20 6 0 32 19 57 41 25 22 64 54 88 71 78
54 212 201 212 232 0 9 -9 16 -20 16 -19 0 -88 -23 -120 -40 -9 -4 -36 -11
-60 -15 -25 -4 -54 -13 -65 -20 -11 -7 -54 -20 -95 -28 -41 -9 -100 -21 -130
-28 -152 -32 -410 -47 -655 -38 -214 8 -353 22 -383 38 -11 6 -36 11 -56 11
-19 0 -47 5 -63 11 -15 7 -46 15 -68 20 -83 16 -170 41 -179 50 -6 5 -18 9
-27 9 -19 0 -35 17 -26 27 3 3 30 -2 59 -10 155 -46 232 -64 378 -90 203 -37
246 -41 509 -43 225 -2 278 0 295 12 12 8 45 14 76 14 30 1 75 5 100 11 25 6
68 14 95 19 118 21 319 72 372 96 17 8 38 14 46 14 8 0 20 7 27 15 7 8 19 15
27 15 8 0 29 6 46 14 18 8 39 17 47 20 8 3 38 20 65 36 28 16 59 34 71 39 11
5 41 23 65 40 47 33 59 37 59 21z m-410 -244 c0 -22 -163 -183 -256 -253 -132
-101 -279 -169 -429 -201 -27 -6 -75 -16 -105 -23 -79 -18 -297 -15 -415 4
-187 31 -296 73 -447 170 -31 20 -60 37 -64 37 -10 0 -136 101 -174 140 -52
54 -90 98 -90 103 0 9 38 15 47 7 9 -8 124 -44 193 -61 25 -5 72 -17 105 -25
33 -8 98 -20 145 -26 47 -5 94 -14 105 -18 49 -21 467 -28 650 -11 196 17 408
51 444 70 11 6 32 11 46 11 15 0 39 6 53 14 39 19 126 46 151 46 12 0 24 7 27
15 8 19 14 19 14 1z m-360 -363 c-1 -10 -66 -43 -83 -43 -19 0 46 49 66 50 9
0 17 -3 17 -7z m-1094 -61 c13 -12 137 -52 160 -52 11 0 29 -7 40 -16 18 -14
15 -15 -38 -9 -64 7 -208 60 -208 77 0 11 34 10 46 0z m979 -2 c-3 -5 -14 -10
-24 -10 -10 0 -24 -7 -31 -15 -7 -8 -22 -15 -34 -15 -11 0 -34 -7 -50 -15 -15
-8 -39 -15 -51 -15 -13 0 -34 -4 -47 -9 -38 -14 -165 -25 -153 -13 6 6 38 13
73 16 35 3 72 11 82 16 10 6 30 10 43 10 14 0 38 7 53 15 16 8 39 15 52 15 13
0 30 7 38 15 17 17 59 21 49 5z m-415 -87 c10 -4 5 -8 -15 -13 -34 -8 -270 -3
-300 7 -19 6 -19 7 3 12 29 7 292 2 312 -6z"/>
<path d="M2777 1371 c-35 -34 -36 -38 -22 -58 12 -18 13 -27 3 -48 -17 -37 1
-51 40 -31 19 10 33 12 37 6 3 -6 17 -10 31 -10 23 0 24 3 18 36 -5 27 -2 38
10 47 22 16 12 43 -19 51 -12 3 -25 15 -28 26 -7 28 -26 23 -70 -19z m63 -1
c0 -6 11 -16 25 -22 23 -10 24 -13 9 -29 -8 -9 -14 -23 -13 -31 4 -29 -2 -34
-36 -30 -25 3 -35 9 -35 21 0 10 -6 26 -14 36 -12 17 -10 21 18 41 35 25 46
28 46 14z"/>
<path d="M1745 1380 c-4 -13 -18 -23 -36 -27 -32 -6 -37 -24 -14 -43 8 -7 15
-28 15 -46 0 -37 15 -43 50 -22 15 10 22 10 32 0 6 -6 20 -12 30 -12 13 0 18
8 18 30 0 17 7 41 16 55 14 22 14 24 -4 34 -11 6 -22 8 -25 5 -3 -3 -13 6 -22
20 -21 31 -51 34 -60 6z m55 -25 c7 -8 19 -15 26 -15 16 0 19 -16 4 -25 -5 -3
-10 -19 -10 -36 0 -33 -2 -34 -30 -17 -16 10 -24 10 -40 0 -28 -17 -30 -16
-30 23 0 19 -4 35 -10 35 -5 0 -10 5 -10 10 0 6 8 10 19 10 10 0 24 7 31 15 7
8 18 15 25 15 7 0 18 -7 25 -15z"/>
<path d="M1977 1334 c-29 -25 -34 -43 -16 -61 6 -6 12 -30 14 -54 2 -32 8 -46
23 -52 43 -19 52 -4 51 81 -1 44 -4 84 -8 89 -13 21 -38 20 -64 -3z m53 -80
c0 -59 -3 -74 -15 -74 -11 0 -15 11 -15 42 0 25 -7 49 -17 61 -17 18 -17 20 6
38 13 10 27 16 32 13 5 -3 9 -39 9 -80z"/>
<path d="M2153 1344 c-38 -19 -43 -32 -39 -103 2 -45 8 -58 30 -78 56 -48 120
-16 131 67 9 66 -7 105 -47 119 -38 14 -36 14 -75 -5z m93 -25 c25 -28 23
-118 -3 -137 -23 -16 -95 -12 -101 7 -4 11 3 12 30 7 42 -8 68 13 43 34 -13
11 -13 14 1 27 23 24 14 58 -16 58 -19 0 -26 -6 -28 -24 -2 -13 1 -28 7 -34
15 -15 14 -27 -3 -27 -15 0 -46 42 -46 61 0 46 82 66 116 28z"/>
<path d="M2561 1348 c-53 -29 -54 -78 -1 -78 28 0 30 -2 20 -20 -6 -11 -15
-18 -21 -14 -14 8 -39 -15 -39 -36 0 -22 28 -47 61 -55 31 -8 83 16 97 43 10
19 -1 139 -15 152 -16 16 -78 21 -102 8z m81 -20 c20 -17 33 -125 17 -144 -12
-14 -74 -19 -103 -8 -9 3 -16 15 -16 26 0 19 1 20 26 4 14 -10 35 -16 47 -14
29 4 35 38 9 45 -18 4 -19 7 -5 34 8 16 12 33 8 39 -10 16 -36 12 -51 -7 -10
-14 -15 -16 -25 -6 -30 29 59 58 93 31z"/>
<path d="M2338 1337 c-13 -11 -17 -30 -16 -90 0 -76 0 -78 31 -93 25 -13 37
-14 69 -5 45 14 58 38 58 111 0 38 -5 54 -22 70 -25 23 -93 27 -120 7z m110
-17 c25 -24 29 -80 9 -120 -10 -20 -21 -25 -59 -28 -45 -3 -66 8 -53 29 5 7
14 5 29 -4 15 -10 27 -12 39 -5 21 11 22 34 1 42 -14 5 -13 8 4 24 28 23 13
65 -20 60 -26 -3 -37 -41 -18 -63 8 -10 8 -15 -1 -21 -14 -8 -48 33 -49 57 0
22 38 48 71 48 14 1 35 -8 47 -19z"/>
<path d="M1370 3385 c7 -8 20 -15 29 -15 13 0 13 2 2 9 -11 7 -11 9 0 14 8 3
1 6 -15 6 -24 1 -27 -1 -16 -14z"/>
<path d="M1435 3390 c-3 -5 -2 -10 4 -10 5 0 13 5 16 10 3 6 2 10 -4 10 -5 0
-13 -4 -16 -10z"/>
<path d="M3137 3389 c7 -7 15 -10 18 -7 3 3 -2 9 -12 12 -14 6 -15 5 -6 -5z"/>
<path d="M3180 3396 c0 -2 9 -6 20 -9 11 -3 18 -1 14 4 -5 9 -34 13 -34 5z"/>
<path d="M1243 3383 c4 -3 1 -13 -6 -22 -11 -14 -10 -14 5 -2 16 12 16 31 1
31 -4 0 -3 -3 0 -7z"/>
<path d="M3322 3366 c7 -8 15 -12 17 -11 5 6 -10 25 -20 25 -5 0 -4 -6 3 -14z"/>
<path d="M1275 3360 c-3 -5 2 -10 12 -10 17 -1 17 -2 -1 -15 -11 -8 -16 -15
-10 -15 12 1 50 30 38 30 -5 0 -2 5 6 10 12 8 9 10 -12 10 -15 0 -30 -4 -33
-10z"/>
<path d="M3266 3355 c4 -9 11 -14 16 -13 15 5 11 23 -6 26 -11 2 -14 -2 -10
-13z"/>
<path d="M1210 3330 c0 -13 11 -13 30 0 12 8 11 10 -7 10 -13 0 -23 -4 -23
-10z"/>
<path d="M3290 3330 c0 -5 7 -10 16 -10 8 0 12 5 9 10 -3 6 -10 10 -16 10 -5
0 -9 -4 -9 -10z"/>
<path d="M3337 3326 c-4 -10 -1 -13 9 -9 15 6 19 23 5 23 -5 0 -11 -7 -14 -14z"/>
<path d="M1216 3305 c-11 -8 -16 -15 -10 -15 5 0 18 7 28 15 11 8 16 15 10 15
-5 0 -18 -7 -28 -15z"/>
<path d="M1147 3299 c8 -8 16 -8 30 0 16 9 14 10 -11 11 -22 0 -27 -3 -19 -11z"/>
<path d="M3410 3286 c0 -2 8 -10 18 -17 15 -13 16 -12 3 4 -13 16 -21 21 -21
13z"/>
<path d="M1108 3273 c7 -3 16 -2 19 1 4 3 -2 6 -13 5 -11 0 -14 -3 -6 -6z"/>
<path d="M3458 3273 c7 -3 16 -2 19 1 4 3 -2 6 -13 5 -11 0 -14 -3 -6 -6z"/>
<path d="M1099 3243 c-13 -16 -12 -17 4 -4 9 7 17 15 17 17 0 8 -8 3 -21 -13z"/>
<path d="M3470 3256 c0 -2 8 -10 18 -17 15 -13 16 -12 3 4 -13 16 -21 21 -21
13z"/>
<path d="M3519 3241 c9 -6 10 -10 2 -12 -6 -2 -1 -10 11 -18 15 -9 19 -9 11
-1 -6 7 -9 19 -6 26 3 9 -2 14 -13 14 -15 0 -16 -2 -5 -9z"/>
<path d="M672 995 c0 -16 2 -22 5 -12 2 9 2 23 0 30 -3 6 -5 -1 -5 -18z"/>
<path d="M3641 954 c0 -11 3 -14 6 -6 3 7 2 16 -1 19 -3 4 -6 -2 -5 -13z"/>
<path d="M1700 922 c0 -8 -33 -13 -107 -14 l-108 -2 104 -3 c96 -3 137 5 118
24 -4 3 -7 1 -7 -5z"/>
<path d="M3100 900 l-105 -6 102 -2 c59 -1 104 2 108 8 3 6 5 9 3 8 -2 -1 -50
-5 -108 -8z"/>
<path d="M470 863 c99 -3 128 -7 145 -21 20 -17 20 -17 1 6 -18 21 -25 22
-145 20 l-126 -2 125 -3z"/>
<path d="M1070 863 c158 -7 328 -7 323 0 -2 4 -91 6 -196 5 -106 -1 -163 -3
-127 -5z"/>
<path d="M1451 843 c2 -25 2 -25 6 -5 4 23 6 23 119 20 63 -2 114 0 114 5 0 4
-54 7 -120 7 l-120 0 1 -27z"/>
<path d="M3606 853 c-5 -12 -9 -14 -18 -5 -7 7 -19 12 -27 12 -9 0 -3 -7 13
-15 29 -15 45 -9 46 18 0 13 -8 8 -14 -10z"/>
<path d="M964 844 c-18 -14 -18 -14 6 -3 31 14 36 19 24 19 -6 0 -19 -7 -30
-16z"/>
<path d="M1998 853 c7 -3 16 -2 19 1 4 3 -2 6 -13 5 -11 0 -14 -3 -6 -6z"/>
<path d="M2208 853 c6 -2 18 -2 25 0 6 3 1 5 -13 5 -14 0 -19 -2 -12 -5z"/>
<path d="M2493 853 c9 -2 25 -2 35 0 9 3 1 5 -18 5 -19 0 -27 -2 -17 -5z"/>
<path d="M2962 835 c0 -16 2 -22 5 -12 2 9 2 23 0 30 -3 6 -5 -1 -5 -18z"/>
<path d="M3181 844 c0 -11 3 -14 6 -6 3 7 2 16 -1 19 -3 4 -6 -2 -5 -13z"/>
<path d="M3338 853 c6 -2 18 -2 25 0 6 3 1 5 -13 5 -14 0 -19 -2 -12 -5z"/>
<path d="M3960 850 c-11 -7 -5 -8 20 -4 43 8 51 14 19 14 -13 0 -31 -5 -39
-10z"/>
<path d="M4123 853 c48 -2 125 -2 170 0 45 1 6 3 -88 3 -93 0 -130 -2 -82 -3z"/>
<path d="M1959 833 c-13 -16 -12 -17 4 -4 16 13 21 21 13 21 -2 0 -10 -8 -17
-17z"/>
<path d="M2261 833 c7 -12 15 -20 18 -17 3 2 -3 12 -13 22 -17 16 -18 16 -5
-5z"/>
<path d="M4391 833 c7 -12 15 -20 18 -17 3 2 -3 12 -13 22 -17 16 -18 16 -5
-5z"/>
<path d="M2882 820 c0 -14 2 -19 5 -12 2 6 2 18 0 25 -3 6 -5 1 -5 -13z"/>
<path d="M3264 808 l-29 -33 33 29 c17 17 32 31 32 33 0 8 -8 1 -36 -29z"/>
<path d="M3806 825 c-9 -26 -7 -32 5 -12 6 10 9 21 6 23 -2 3 -7 -2 -11 -11z"/>
<path d="M919 813 c-13 -16 -12 -17 4 -4 9 7 17 15 17 17 0 8 -8 3 -21 -13z"/>
<path d="M1381 814 c0 -11 3 -14 6 -6 3 7 2 16 -1 19 -3 4 -6 -2 -5 -13z"/>
<path d="M2389 803 l-24 -28 28 24 c25 23 32 31 24 31 -2 0 -14 -12 -28 -27z"/>
<path d="M3894 808 l-19 -23 23 19 c21 18 27 26 19 26 -2 0 -12 -10 -23 -22z"/>
<path d="M1741 804 c0 -11 3 -14 6 -6 3 7 2 16 -1 19 -3 4 -6 -2 -5 -13z"/>
<path d="M2282 775 c0 -16 2 -22 5 -12 2 9 2 23 0 30 -3 6 -5 -1 -5 -18z"/>
<path d="M890 769 c-7 -11 -10 -23 -7 -25 2 -2 9 7 15 21 14 30 7 33 -8 4z"/>
<path d="M473 772 c-7 -4 16 -6 51 -4 56 4 65 2 69 -14 5 -17 6 -17 4 1 -2 17
-11 20 -57 23 -30 1 -61 -1 -67 -6z"/>
<path d="M1109 763 c-11 -15 -11 -16 1 -5 18 16 231 17 247 1 8 -8 13 -7 18 2
5 7 4 10 -3 5 -6 -3 -13 -2 -17 4 -4 6 -53 10 -119 10 -96 0 -116 -3 -127 -17z"/>
<path d="M1952 764 c-12 -8 -22 -19 -22 -25 0 -5 9 0 20 11 25 25 91 27 114 4
9 -8 16 -12 16 -7 0 34 -88 45 -128 17z"/>
<path d="M2573 774 c-7 -3 -13 -14 -13 -24 0 -17 11 -19 129 -22 71 -2 127 0
124 5 -2 4 -58 7 -124 7 -71 0 -119 4 -119 10 0 17 49 23 160 18 68 -3 114 -9
124 -17 13 -11 17 -10 22 3 4 9 4 20 0 23 -3 4 -6 -2 -6 -12 0 -15 -2 -16 -16
-4 -17 14 -255 25 -281 13z"/>
<path d="M3463 770 c-22 -9 -49 -47 -40 -57 3 -2 8 5 12 17 12 38 99 55 129
24 9 -8 16 -12 16 -7 0 30 -67 43 -117 23z"/>
<path d="M4088 773 c-9 -2 -19 -10 -21 -18 -5 -11 -1 -11 21 1 33 17 76 18
105 2 20 -10 21 -10 8 5 -13 16 -71 21 -113 10z"/>
<path d="M4401 734 c0 -11 3 -14 6 -6 3 7 2 16 -1 19 -3 4 -6 -2 -5 -13z"/>
<path d="M4180 701 c0 -9 -19 -12 -70 -9 -39 2 -70 0 -70 -4 0 -12 138 -9 145
3 4 6 4 13 1 16 -3 4 -6 1 -6 -6z"/>
<path d="M2842 670 c0 -14 2 -19 5 -12 2 6 2 18 0 25 -3 6 -5 1 -5 -13z"/>
<path d="M4376 665 c-9 -26 -7 -32 5 -12 6 10 9 21 6 23 -2 3 -7 -2 -11 -11z"/>
<path d="M3746 655 c-9 -26 -7 -32 5 -12 6 10 9 21 6 23 -2 3 -7 -2 -11 -11z"/>
<path d="M2311 614 c0 -11 3 -14 6 -6 3 7 2 16 -1 19 -3 4 -6 -2 -5 -13z"/>
<path d="M3096 605 c-9 -26 -7 -32 5 -12 6 10 9 21 6 23 -2 3 -7 -2 -11 -11z"/>
<path d="M2816 585 c-9 -26 -7 -32 5 -12 6 10 9 21 6 23 -2 3 -7 -2 -11 -11z"/>
<path d="M4007 593 c-4 -3 -7 -11 -7 -17 0 -7 3 -6 8 1 6 9 58 13 182 16 l175
3 -176 2 c-97 1 -179 -1 -182 -5z"/>
<path d="M2332 564 c9 -9 21 -15 27 -13 6 2 -2 10 -17 17 -25 11 -25 11 -10
-4z"/>
<path d="M515 540 c-8 -24 -43 -34 -96 -27 -22 3 -37 1 -33 -4 3 -5 27 -9 55
-9 48 0 89 23 89 50 0 17 -8 11 -15 -10z"/>
<path d="M3361 539 c-1 -16 5 -29 15 -33 32 -12 82 -6 105 15 l24 20 -27 -16
c-16 -10 -42 -15 -64 -13 -31 2 -40 8 -45 28 l-7 25 -1 -26z"/>
<path d="M3781 544 c0 -11 3 -14 6 -6 3 7 2 16 -1 19 -3 4 -6 -2 -5 -13z"/>
<path d="M3991 538 c-1 -21 5 -29 24 -34 42 -10 268 0 290 14 18 11 17 11 -10
5 -16 -5 -88 -8 -160 -8 l-129 0 -7 25 -7 25 -1 -27z"/>
<path d="M1021 539 c-2 -32 24 -40 116 -36 l88 3 -93 2 c-86 2 -93 4 -102 25
-6 15 -9 17 -9 6z"/>
<path d="M2420 544 c83 -8 190 -8 190 -1 0 4 -51 6 -112 5 -62 -1 -97 -3 -78
-4z"/>
<path d="M2791 523 c-10 -26 -10 -27 4 -9 8 11 15 23 15 28 0 15 -7 8 -19 -19z"/>
<path d="M2263 524 c-3 -8 -3 -18 1 -21 3 -4 6 1 6 9 0 14 5 14 38 2 40 -14
258 -19 279 -6 6 4 -44 6 -111 4 -88 -3 -133 0 -164 11 -38 13 -44 13 -49 1z"/>
<path d="M802 500 c0 -19 2 -27 5 -17 2 9 2 25 0 35 -3 9 -5 1 -5 -18z"/>
<path d="M1245 520 c-16 -7 -14 -8 12 -7 18 1 33 5 33 10 0 9 -19 8 -45 -3z"/>
<path d="M3142 495 c0 -16 2 -22 5 -12 2 9 2 23 0 30 -3 6 -5 -1 -5 -18z"/>
<path d="M2759 473 c-13 -16 -12 -17 4 -4 9 7 17 15 17 17 0 8 -8 3 -21 -13z"/>
<path d="M711 464 c0 -11 3 -14 6 -6 3 7 2 16 -1 19 -3 4 -6 -2 -5 -13z"/>
<path d="M1966 463 c-6 -14 -5 -15 5 -6 7 7 10 15 7 18 -3 3 -9 -2 -12 -12z"/>
<path d="M3052 450 c0 -19 2 -27 5 -17 2 9 2 25 0 35 -3 9 -5 1 -5 -18z"/>
<path d="M160 461 c0 -10 39 -46 43 -40 2 2 -7 14 -20 26 -13 12 -23 19 -23
14z"/>
<path d="M1542 445 c0 -16 2 -22 5 -12 2 9 2 23 0 30 -3 6 -5 -1 -5 -18z"/>
<path d="M2182 445 c0 -16 2 -22 5 -12 2 9 2 23 0 30 -3 6 -5 -1 -5 -18z"/>
<path d="M2251 454 c0 -11 3 -14 6 -6 3 7 2 16 -1 19 -3 4 -6 -2 -5 -13z"/>
<path d="M3682 445 c0 -16 2 -22 5 -12 2 9 2 23 0 30 -3 6 -5 -1 -5 -18z"/>
<path d="M3780 463 c0 -6 8 -17 18 -24 16 -13 16 -13 2 6 -8 11 -16 22 -17 24
-2 2 -3 0 -3 -6z"/>
<path d="M824 443 c11 -13 26 -23 35 -22 14 0 14 1 1 6 -8 3 -24 13 -35 22
-20 16 -20 16 -1 -6z"/>
<path d="M1832 440 c0 -14 2 -19 5 -12 2 6 2 18 0 25 -3 6 -5 1 -5 -13z"/>
<path d="M3150 456 c0 -2 8 -10 18 -17 15 -13 16 -12 3 4 -13 16 -21 21 -21
13z"/>
<path d="M3470 445 c-11 -13 -10 -14 4 -9 9 3 16 10 16 15 0 13 -6 11 -20 -6z"/>
<path d="M480 435 c-14 -8 -20 -14 -15 -14 6 0 21 6 35 14 14 8 21 14 15 14
-5 0 -21 -6 -35 -14z"/>
<path d="M1305 439 c-4 -6 -5 -12 -2 -15 2 -3 7 2 10 11 7 17 1 20 -8 4z"/>
<path d="M2658 423 c6 -2 18 -2 25 0 6 3 1 5 -13 5 -14 0 -19 -2 -12 -5z"/>
<path d="M3198 423 c7 -3 16 -2 19 1 4 3 -2 6 -13 5 -11 0 -14 -3 -6 -6z"/>
<path d="M3428 423 c7 -3 16 -2 19 1 4 3 -2 6 -13 5 -11 0 -14 -3 -6 -6z"/>
<path d="M3828 423 c7 -3 16 -2 19 1 4 3 -2 6 -13 5 -11 0 -14 -3 -6 -6z"/>
</g>
</svg>
